%TF.GenerationSoftware,KiCad,Pcbnew,9.0.5*%
%TF.CreationDate,2025-10-27T23:23:53+01:00*%
%TF.ProjectId,mouse,6d6f7573-652e-46b6-9963-61645f706362,rev?*%
%TF.SameCoordinates,Original*%
%TF.FileFunction,Copper,L1,Top*%
%TF.FilePolarity,Positive*%
%FSLAX46Y46*%
G04 Gerber Fmt 4.6, Leading zero omitted, Abs format (unit mm)*
G04 Created by KiCad (PCBNEW 9.0.5) date 2025-10-27 23:23:53*
%MOMM*%
%LPD*%
G01*
G04 APERTURE LIST*
G04 Aperture macros list*
%AMRoundRect*
0 Rectangle with rounded corners*
0 $1 Rounding radius*
0 $2 $3 $4 $5 $6 $7 $8 $9 X,Y pos of 4 corners*
0 Add a 4 corners polygon primitive as box body*
4,1,4,$2,$3,$4,$5,$6,$7,$8,$9,$2,$3,0*
0 Add four circle primitives for the rounded corners*
1,1,$1+$1,$2,$3*
1,1,$1+$1,$4,$5*
1,1,$1+$1,$6,$7*
1,1,$1+$1,$8,$9*
0 Add four rect primitives between the rounded corners*
20,1,$1+$1,$2,$3,$4,$5,0*
20,1,$1+$1,$4,$5,$6,$7,0*
20,1,$1+$1,$6,$7,$8,$9,0*
20,1,$1+$1,$8,$9,$2,$3,0*%
G04 Aperture macros list end*
%TA.AperFunction,SMDPad,CuDef*%
%ADD10RoundRect,0.250000X-0.650000X0.425000X-0.650000X-0.425000X0.650000X-0.425000X0.650000X0.425000X0*%
%TD*%
%TA.AperFunction,SMDPad,CuDef*%
%ADD11R,0.450000X1.400000*%
%TD*%
%TA.AperFunction,ComponentPad*%
%ADD12C,1.200000*%
%TD*%
%TA.AperFunction,ComponentPad*%
%ADD13R,1.200000X1.200000*%
%TD*%
%TA.AperFunction,SMDPad,CuDef*%
%ADD14RoundRect,0.250000X-0.450000X0.262500X-0.450000X-0.262500X0.450000X-0.262500X0.450000X0.262500X0*%
%TD*%
%TA.AperFunction,ComponentPad*%
%ADD15R,1.700000X1.700000*%
%TD*%
%TA.AperFunction,ComponentPad*%
%ADD16C,1.700000*%
%TD*%
%TA.AperFunction,SMDPad,CuDef*%
%ADD17RoundRect,0.250000X0.475000X-0.250000X0.475000X0.250000X-0.475000X0.250000X-0.475000X-0.250000X0*%
%TD*%
%TA.AperFunction,SMDPad,CuDef*%
%ADD18RoundRect,0.250000X-0.475000X0.250000X-0.475000X-0.250000X0.475000X-0.250000X0.475000X0.250000X0*%
%TD*%
%TA.AperFunction,SMDPad,CuDef*%
%ADD19RoundRect,0.250000X-0.262500X-0.450000X0.262500X-0.450000X0.262500X0.450000X-0.262500X0.450000X0*%
%TD*%
%TA.AperFunction,SMDPad,CuDef*%
%ADD20RoundRect,0.250000X0.262500X0.450000X-0.262500X0.450000X-0.262500X-0.450000X0.262500X-0.450000X0*%
%TD*%
%TA.AperFunction,SMDPad,CuDef*%
%ADD21R,0.700000X1.500000*%
%TD*%
%TA.AperFunction,SMDPad,CuDef*%
%ADD22R,1.000000X0.800000*%
%TD*%
%TA.AperFunction,SMDPad,CuDef*%
%ADD23R,0.800000X1.600000*%
%TD*%
%TA.AperFunction,SMDPad,CuDef*%
%ADD24R,2.100000X3.000000*%
%TD*%
%TA.AperFunction,SMDPad,CuDef*%
%ADD25RoundRect,0.250000X-0.250000X-0.475000X0.250000X-0.475000X0.250000X0.475000X-0.250000X0.475000X0*%
%TD*%
%TA.AperFunction,SMDPad,CuDef*%
%ADD26RoundRect,0.150000X0.625000X-0.150000X0.625000X0.150000X-0.625000X0.150000X-0.625000X-0.150000X0*%
%TD*%
%TA.AperFunction,SMDPad,CuDef*%
%ADD27RoundRect,0.250000X0.650000X-0.350000X0.650000X0.350000X-0.650000X0.350000X-0.650000X-0.350000X0*%
%TD*%
%TA.AperFunction,SMDPad,CuDef*%
%ADD28RoundRect,0.075000X-0.247500X-0.075000X0.247500X-0.075000X0.247500X0.075000X-0.247500X0.075000X0*%
%TD*%
%TA.AperFunction,HeatsinkPad*%
%ADD29R,1.010000X1.700000*%
%TD*%
%TA.AperFunction,SMDPad,CuDef*%
%ADD30R,0.600000X1.250000*%
%TD*%
%TA.AperFunction,ComponentPad*%
%ADD31C,1.752600*%
%TD*%
%TA.AperFunction,ViaPad*%
%ADD32C,0.600000*%
%TD*%
%TA.AperFunction,Conductor*%
%ADD33C,0.200000*%
%TD*%
%TA.AperFunction,Conductor*%
%ADD34C,0.500000*%
%TD*%
G04 APERTURE END LIST*
D10*
%TO.P,SW1,1,1*%
%TO.N,Net-(U2-RST)*%
X204400000Y-95000000D03*
%TO.P,SW1,2,2*%
%TO.N,GND*%
X204400000Y-99150000D03*
%TD*%
D11*
%TO.P,3DHALL1,1,SCK*%
%TO.N,SCK*%
X165575000Y-116000000D03*
%TO.P,3DHALL1,2,SDI*%
%TO.N,MOSI*%
X164925000Y-116000000D03*
%TO.P,3DHALL1,3,SDO*%
%TO.N,MISO*%
X164275000Y-116000000D03*
%TO.P,3DHALL1,4,~{CS}*%
%TO.N,CS 2*%
X163625000Y-116000000D03*
%TO.P,3DHALL1,5,VCC*%
%TO.N,+3.3V*%
X163625000Y-120400000D03*
%TO.P,3DHALL1,6,GND*%
%TO.N,GND*%
X164275000Y-120400000D03*
%TO.P,3DHALL1,7,TEST*%
X164925000Y-120400000D03*
%TO.P,3DHALL1,8,~{ALERT}*%
%TO.N,Alert*%
X165575000Y-120400000D03*
%TD*%
D12*
%TO.P,OpticalSensor1,1,NC*%
%TO.N,unconnected-(OpticalSensor1-NC-Pad1)*%
X188950000Y-100420001D03*
%TO.P,OpticalSensor1,2,NC*%
%TO.N,unconnected-(OpticalSensor1-NC-Pad2)*%
X188950000Y-98640001D03*
D13*
%TO.P,OpticalSensor1,3,GND*%
%TO.N,GND*%
X188950000Y-96860001D03*
D12*
%TO.P,OpticalSensor1,4,VDD*%
%TO.N,1.9v*%
X188950000Y-95080001D03*
%TO.P,OpticalSensor1,5,VDDREG*%
%TO.N,Net-(OpticalSensor1-VDDREG)*%
X188950000Y-93300001D03*
%TO.P,OpticalSensor1,6,NC*%
%TO.N,unconnected-(OpticalSensor1-NC-Pad6)*%
X188950000Y-91520001D03*
%TO.P,OpticalSensor1,7,VDDIO*%
%TO.N,+3.3V*%
X188950000Y-89740002D03*
D13*
%TO.P,OpticalSensor1,8,GNDIO*%
%TO.N,GND*%
X188950000Y-87960002D03*
D12*
%TO.P,OpticalSensor1,9,MOTION*%
%TO.N,MOTION*%
X178250000Y-87070001D03*
%TO.P,OpticalSensor1,10,SCLK*%
%TO.N,SCK*%
X178250000Y-88850001D03*
%TO.P,OpticalSensor1,11,MOSI*%
%TO.N,MISO*%
X178250000Y-90630001D03*
%TO.P,OpticalSensor1,12,MISO*%
%TO.N,MOSI*%
X178250000Y-92410001D03*
%TO.P,OpticalSensor1,13,NCS*%
%TO.N,CS 1*%
X178250000Y-94190001D03*
%TO.P,OpticalSensor1,14,NRESET*%
%TO.N,NRESET*%
X178250000Y-95970001D03*
%TO.P,OpticalSensor1,15,LED_P*%
%TO.N,Net-(OpticalSensor1-LED_P)*%
X178250000Y-97750000D03*
%TO.P,OpticalSensor1,16,NC*%
%TO.N,unconnected-(OpticalSensor1-NC-Pad16)*%
X178249999Y-99530001D03*
%TD*%
D14*
%TO.P,RLED5,1*%
%TO.N,1.9v*%
X167400000Y-103187500D03*
%TO.P,RLED5,2*%
%TO.N,Net-(RLED4-Pad2)*%
X167400000Y-105012500D03*
%TD*%
D15*
%TO.P,J1,1,Pin_1*%
%TO.N,+3.3V*%
X165100000Y-87200000D03*
D16*
%TO.P,J1,2,Pin_2*%
%TO.N,SDA*%
X165100000Y-89740000D03*
%TO.P,J1,3,Pin_3*%
%TO.N,SCL*%
X165100000Y-92280000D03*
%TO.P,J1,4,Pin_4*%
%TO.N,INT*%
X165100000Y-94820000D03*
%TO.P,J1,5,Pin_5*%
%TO.N,GND*%
X165100000Y-97360000D03*
%TD*%
D17*
%TO.P,C4,1*%
%TO.N,+3.3V*%
X196400000Y-87150000D03*
%TO.P,C4,2*%
%TO.N,GND*%
X196400000Y-85250000D03*
%TD*%
D18*
%TO.P,C2,1*%
%TO.N,Net-(OpticalSensor1-VDDREG)*%
X201200000Y-97500000D03*
%TO.P,C2,2*%
%TO.N,GND*%
X201200000Y-99400000D03*
%TD*%
D11*
%TO.P,3DHALL2,1,SCK*%
%TO.N,SCK*%
X203375000Y-116000000D03*
%TO.P,3DHALL2,2,SDI*%
%TO.N,MOSI*%
X202725000Y-116000000D03*
%TO.P,3DHALL2,3,SDO*%
%TO.N,MISO*%
X202075000Y-116000000D03*
%TO.P,3DHALL2,4,~{CS}*%
%TO.N,CS 3*%
X201425000Y-116000000D03*
%TO.P,3DHALL2,5,VCC*%
%TO.N,+3.3V*%
X201425000Y-120400000D03*
%TO.P,3DHALL2,6,GND*%
%TO.N,GND*%
X202075000Y-120400000D03*
%TO.P,3DHALL2,7,TEST*%
X202725000Y-120400000D03*
%TO.P,3DHALL2,8,~{ALERT}*%
%TO.N,Alert*%
X203375000Y-120400000D03*
%TD*%
D17*
%TO.P,C6,1*%
%TO.N,1.9v*%
X203200000Y-92600000D03*
%TO.P,C6,2*%
%TO.N,GND*%
X203200000Y-90700000D03*
%TD*%
D14*
%TO.P,RLED1,1*%
%TO.N,Net-(OpticalSensor1-LED_P)*%
X173000000Y-99087500D03*
%TO.P,RLED1,2*%
%TO.N,Net-(RLED1-Pad2)*%
X173000000Y-100912500D03*
%TD*%
D19*
%TO.P,RLED3,1*%
%TO.N,Net-(RLED2-Pad2)*%
X169287500Y-102900000D03*
%TO.P,RLED3,2*%
%TO.N,Net-(RLED3-Pad2)*%
X171112500Y-102900000D03*
%TD*%
D20*
%TO.P,RLED2,1*%
%TO.N,Net-(RLED1-Pad2)*%
X171112500Y-100800000D03*
%TO.P,RLED2,2*%
%TO.N,Net-(RLED2-Pad2)*%
X169287500Y-100800000D03*
%TD*%
D21*
%TO.P,Switch1,1,1*%
%TO.N,Battery*%
X185870000Y-81595000D03*
%TO.P,Switch1,2,2*%
%TO.N,Interruptor*%
X182870000Y-81595000D03*
%TO.P,Switch1,3,3*%
%TO.N,unconnected-(Switch1-Pad3)*%
X181370000Y-81595000D03*
D22*
%TO.P,Switch1,4,4*%
%TO.N,unconnected-(Switch1-Pad4)*%
X187270000Y-80945000D03*
%TO.P,Switch1,5,5*%
%TO.N,unconnected-(Switch1-Pad5)*%
X187270000Y-78745000D03*
%TO.P,Switch1,6,6*%
%TO.N,unconnected-(Switch1-Pad6)*%
X179970000Y-80945000D03*
%TO.P,Switch1,7,7*%
%TO.N,unconnected-(Switch1-Pad7)*%
X179970000Y-78745000D03*
%TD*%
D17*
%TO.P,C7,1*%
%TO.N,1.9v*%
X198700000Y-92550000D03*
%TO.P,C7,2*%
%TO.N,GND*%
X198700000Y-90650000D03*
%TD*%
D23*
%TO.P,J3,1,1*%
%TO.N,GND*%
X182625000Y-108500000D03*
%TO.P,J3,2,2*%
%TO.N,Battery*%
X183875000Y-108500000D03*
D24*
%TO.P,J3,MP1,MP1*%
%TO.N,GND*%
X180075000Y-111400000D03*
%TO.P,J3,MP2,MP2*%
X186425000Y-111400000D03*
%TD*%
D20*
%TO.P,R1,1*%
%TO.N,MOSI*%
X172912500Y-96500000D03*
%TO.P,R1,2*%
%TO.N,+3.3V*%
X171087500Y-96500000D03*
%TD*%
D18*
%TO.P,C8,1*%
%TO.N,1.9v*%
X194750000Y-95050000D03*
%TO.P,C8,2*%
%TO.N,GND*%
X194750000Y-96950000D03*
%TD*%
D17*
%TO.P,C3,1*%
%TO.N,+3.3V*%
X194200000Y-87200000D03*
%TO.P,C3,2*%
%TO.N,GND*%
X194200000Y-85300000D03*
%TD*%
D25*
%TO.P,C9,1*%
%TO.N,1.9v*%
X198550000Y-94600000D03*
%TO.P,C9,2*%
%TO.N,GND*%
X200450000Y-94600000D03*
%TD*%
D26*
%TO.P,J2,1,Pin_1*%
%TO.N,+3.3V*%
X195700000Y-107200000D03*
%TO.P,J2,2,Pin_2*%
%TO.N,SDA*%
X195700000Y-106200000D03*
%TO.P,J2,3,Pin_3*%
%TO.N,SCL*%
X195700000Y-105200000D03*
%TO.P,J2,4,Pin_4*%
%TO.N,GND*%
X195700000Y-104200000D03*
D27*
%TO.P,J2,MP,MountPin*%
%TO.N,unconnected-(J2-MountPin-PadMP)_1*%
X199575000Y-108500000D03*
%TO.N,unconnected-(J2-MountPin-PadMP)*%
X199575000Y-102900000D03*
%TD*%
D28*
%TO.P,HALL2,1,OUTPUT*%
%TO.N,Left_click*%
X169972453Y-80724918D03*
%TO.P,HALL2,2,NC_1*%
%TO.N,unconnected-(HALL2-NC_1-Pad2)*%
X169972453Y-81374918D03*
%TO.P,HALL2,3,VDD*%
%TO.N,1.9v*%
X169972453Y-82024918D03*
%TO.P,HALL2,4,CNTRL*%
%TO.N,Left_control*%
X172027453Y-82024918D03*
%TO.P,HALL2,5,GND*%
%TO.N,GND*%
X172027453Y-81374918D03*
%TO.P,HALL2,6,NC_2*%
%TO.N,unconnected-(HALL2-NC_2-Pad6)*%
X172027453Y-80724918D03*
D29*
%TO.P,HALL2,7,EP*%
%TO.N,unconnected-(HALL2-EP-Pad7)*%
X170999953Y-81374918D03*
%TD*%
D30*
%TO.P,LDO1.9,1,IN*%
%TO.N,+3.3V*%
X196450000Y-90750000D03*
%TO.P,LDO1.9,2,GND*%
%TO.N,GND*%
X195500000Y-90750000D03*
%TO.P,LDO1.9,3,EN*%
%TO.N,EN_LDO*%
X194550000Y-90750000D03*
%TO.P,LDO1.9,4,NC*%
%TO.N,unconnected-(LDO1.9-NC-Pad4)*%
X194550000Y-93250000D03*
%TO.P,LDO1.9,5,OUT*%
%TO.N,1.9v*%
X196450000Y-93250000D03*
%TD*%
D31*
%TO.P,U2,1,TX0/P0.06*%
%TO.N,unconnected-(U2-TX0{slash}P0.06-Pad1)*%
X175880000Y-82140000D03*
%TO.P,U2,2,RX1/P0.08*%
%TO.N,unconnected-(U2-RX1{slash}P0.08-Pad2)*%
X175880000Y-84680000D03*
%TO.P,U2,3,GND*%
%TO.N,GND*%
X175880000Y-87220000D03*
%TO.P,U2,4,GND*%
X175880000Y-89760000D03*
%TO.P,U2,5,P0.17*%
%TO.N,SCK*%
X175880000Y-92300000D03*
%TO.P,U2,6,P0.20*%
%TO.N,MISO*%
X175880000Y-94840000D03*
%TO.P,U2,7,P0.22*%
%TO.N,MOSI*%
X175880000Y-97380000D03*
%TO.P,U2,8,P0.24*%
%TO.N,CS 1*%
X175880000Y-99920000D03*
%TO.P,U2,9,P1.00*%
%TO.N,SDA*%
X175880000Y-102460000D03*
%TO.P,U2,10,P0.11*%
%TO.N,SCL*%
X175880000Y-105000000D03*
%TO.P,U2,11,P1.04*%
%TO.N,CS 2*%
X175880000Y-107540000D03*
%TO.P,U2,12,P1.06*%
%TO.N,MOTION*%
X175880000Y-110080000D03*
%TO.P,U2,13,NFC1/P0.09*%
%TO.N,CS 3*%
X191120000Y-110080000D03*
%TO.P,U2,14,NFC2/P0.10*%
%TO.N,NRESET*%
X191120000Y-107540000D03*
%TO.P,U2,15,P1.11*%
%TO.N,INT*%
X191120000Y-105000000D03*
%TO.P,U2,16,P1.13*%
%TO.N,EN_LDO*%
X191120000Y-102460000D03*
%TO.P,U2,17,P1.15*%
%TO.N,Left_control*%
X191120000Y-99920000D03*
%TO.P,U2,18,AIN0/P0.02*%
%TO.N,Left_click*%
X191120000Y-97380000D03*
%TO.P,U2,19,AIN5/P0.29*%
%TO.N,Right_click*%
X191120000Y-94840000D03*
%TO.P,U2,20,AIN7/P0.31*%
%TO.N,Alert*%
X191120000Y-92300000D03*
%TO.P,U2,21,VCC*%
%TO.N,+3.3V*%
X191120000Y-89760000D03*
%TO.P,U2,22,RST*%
%TO.N,Net-(U2-RST)*%
X191120000Y-87220000D03*
%TO.P,U2,23,GND*%
%TO.N,GND*%
X191120000Y-84680000D03*
%TO.P,U2,24,BATIN/P0.04*%
%TO.N,Interruptor*%
X191120000Y-82140000D03*
%TO.P,U2,31,P1.01*%
%TO.N,unconnected-(U2-P1.01-Pad31)*%
X178420000Y-105000000D03*
%TO.P,U2,32,P1.02*%
%TO.N,unconnected-(U2-P1.02-Pad32)*%
X180960000Y-105000000D03*
%TO.P,U2,33,P1.07*%
%TO.N,unconnected-(U2-P1.07-Pad33)*%
X183500000Y-105000000D03*
%TD*%
D18*
%TO.P,C1,1*%
%TO.N,Net-(OpticalSensor1-VDDREG)*%
X198700000Y-97500000D03*
%TO.P,C1,2*%
%TO.N,GND*%
X198700000Y-99400000D03*
%TD*%
D20*
%TO.P,RLED4,1*%
%TO.N,Net-(RLED3-Pad2)*%
X171112500Y-104900000D03*
%TO.P,RLED4,2*%
%TO.N,Net-(RLED4-Pad2)*%
X169287500Y-104900000D03*
%TD*%
D28*
%TO.P,HALL1,1,OUTPUT*%
%TO.N,Right_click*%
X194972500Y-80750000D03*
%TO.P,HALL1,2,NC_1*%
%TO.N,unconnected-(HALL1-NC_1-Pad2)*%
X194972500Y-81400000D03*
%TO.P,HALL1,3,VDD*%
%TO.N,1.9v*%
X194972500Y-82050000D03*
%TO.P,HALL1,4,CNTRL*%
%TO.N,Left_control*%
X197027500Y-82050000D03*
%TO.P,HALL1,5,GND*%
%TO.N,GND*%
X197027500Y-81400000D03*
%TO.P,HALL1,6,NC_2*%
%TO.N,unconnected-(HALL1-NC_2-Pad6)*%
X197027500Y-80750000D03*
D29*
%TO.P,HALL1,7,EP*%
%TO.N,unconnected-(HALL1-EP-Pad7)*%
X196000000Y-81400000D03*
%TD*%
D17*
%TO.P,C5,1*%
%TO.N,1.9v*%
X200950000Y-92600000D03*
%TO.P,C5,2*%
%TO.N,GND*%
X200950000Y-90700000D03*
%TD*%
D32*
%TO.N,GND*%
X178050000Y-82200000D03*
X196200000Y-99900000D03*
X191250000Y-114950000D03*
X204000000Y-121850000D03*
X198850000Y-120450000D03*
X202550000Y-105850000D03*
X202050000Y-89350000D03*
%TO.N,EN_LDO*%
X200600000Y-88200000D03*
X200550000Y-100900000D03*
%TO.N,GND*%
X205700000Y-105500000D03*
X163200000Y-101200000D03*
X174500000Y-120400000D03*
X196800000Y-97900000D03*
%TO.N,Right_click*%
X193250000Y-83700000D03*
%TO.N,1.9v*%
X195000000Y-83000000D03*
X193651000Y-95000000D03*
X170800000Y-83600000D03*
X169000000Y-95200000D03*
%TO.N,+3.3V*%
X201400000Y-121700000D03*
X163625000Y-121700000D03*
X193700000Y-107200000D03*
X193700000Y-103800000D03*
X198650000Y-87300000D03*
%TO.N,Left_control*%
X197000000Y-83250000D03*
X172500000Y-83600000D03*
%TO.N,Left_click*%
X169400000Y-79000000D03*
%TO.N,SCK*%
X169500000Y-118600000D03*
X167300000Y-100700000D03*
X166900000Y-116000000D03*
%TO.N,SDA*%
X170200000Y-98350000D03*
X189300000Y-106800000D03*
%TO.N,MOSI*%
X167800000Y-99882068D03*
X172750000Y-97750000D03*
%TO.N,SCL*%
X169600000Y-99240000D03*
%TO.N,MISO*%
X166600000Y-117400000D03*
X167800000Y-98975735D03*
X164400000Y-117400000D03*
%TO.N,CS 2*%
X163675000Y-107600000D03*
%TO.N,Battery*%
X183875000Y-115975000D03*
X199500000Y-83700000D03*
%TD*%
D33*
%TO.N,EN_LDO*%
X194550000Y-89050000D02*
X194550000Y-90750000D01*
X195400000Y-88200000D02*
X194550000Y-89050000D01*
X200600000Y-88200000D02*
X195400000Y-88200000D01*
%TO.N,+3.3V*%
X196300000Y-91750000D02*
X196450000Y-91600000D01*
X196450000Y-91600000D02*
X196450000Y-90750000D01*
X193100000Y-91750000D02*
X196300000Y-91750000D01*
X191120000Y-89770000D02*
X193100000Y-91750000D01*
X191120000Y-89760000D02*
X191120000Y-89770000D01*
%TO.N,EN_LDO*%
X200550000Y-100900000D02*
X192680000Y-100900000D01*
X192680000Y-100900000D02*
X191120000Y-102460000D01*
%TO.N,+3.3V*%
X192110000Y-90750000D02*
X191120000Y-89760000D01*
%TO.N,GND*%
X192250000Y-98750000D02*
X192242700Y-98742700D01*
X190632346Y-98742700D02*
X192242700Y-98742700D01*
X188950000Y-97060354D02*
X190632346Y-98742700D01*
X188950000Y-96860001D02*
X188950000Y-97060354D01*
%TO.N,Alert*%
X204200000Y-119575000D02*
X203375000Y-120400000D01*
X202650000Y-96700000D02*
X202650000Y-103700000D01*
X202099000Y-96149000D02*
X202650000Y-96700000D01*
X193050000Y-95248943D02*
X193950057Y-96149000D01*
X193950057Y-96149000D02*
X202099000Y-96149000D01*
X193050000Y-94230000D02*
X193050000Y-95248943D01*
X202650000Y-103700000D02*
X204200000Y-105250000D01*
X191120000Y-92300000D02*
X193050000Y-94230000D01*
X204200000Y-105250000D02*
X204200000Y-119575000D01*
%TO.N,Net-(U2-RST)*%
X204400000Y-89950000D02*
X204400000Y-95000000D01*
X191996300Y-86343700D02*
X200793700Y-86343700D01*
X200793700Y-86343700D02*
X204400000Y-89950000D01*
X191120000Y-87220000D02*
X191996300Y-86343700D01*
%TO.N,+3.3V*%
X198650000Y-87300000D02*
X198500000Y-87150000D01*
X198500000Y-87150000D02*
X196400000Y-87150000D01*
%TO.N,Alert*%
X203375000Y-119500000D02*
X203375000Y-120400000D01*
X203075000Y-119200000D02*
X203375000Y-119500000D01*
X166775000Y-119200000D02*
X203075000Y-119200000D01*
X165575000Y-120400000D02*
X166775000Y-119200000D01*
%TO.N,GND*%
X188950000Y-86850000D02*
X191120000Y-84680000D01*
X196400000Y-103500000D02*
X196400000Y-102400000D01*
X172027453Y-81374918D02*
X173174918Y-81374918D01*
X188950000Y-87960002D02*
X188950000Y-86850000D01*
X195700000Y-104200000D02*
X196400000Y-103500000D01*
X197000000Y-81400000D02*
X198100000Y-81400000D01*
%TO.N,CS 3*%
X201425000Y-116000000D02*
X201425000Y-113825000D01*
X197680000Y-110080000D02*
X191120000Y-110080000D01*
X201425000Y-113825000D02*
X197680000Y-110080000D01*
%TO.N,Right_click*%
X194649999Y-80750000D02*
X194945000Y-80750000D01*
X193250000Y-82150000D02*
X194649999Y-80750000D01*
X193250000Y-83700000D02*
X193250000Y-82150000D01*
%TO.N,1.9v*%
X194700000Y-95000000D02*
X194750000Y-95050000D01*
D34*
X196450000Y-93350000D02*
X194750000Y-95050000D01*
D33*
X168400000Y-102187500D02*
X167400000Y-103187500D01*
X196490000Y-93290000D02*
X196450000Y-93250000D01*
X169000000Y-95200000D02*
X168400000Y-95800000D01*
X198700000Y-94450000D02*
X198550000Y-94600000D01*
X193651000Y-95000000D02*
X194700000Y-95000000D01*
D34*
X200950000Y-92600000D02*
X203200000Y-92600000D01*
D33*
X170800000Y-83600000D02*
X169972453Y-82772453D01*
D34*
X197230000Y-92550000D02*
X196490000Y-93290000D01*
D33*
X196450000Y-93250000D02*
X196450000Y-93350000D01*
X168400000Y-95800000D02*
X168400000Y-102187500D01*
D34*
X200900000Y-92550000D02*
X197230000Y-92550000D01*
D33*
X195000000Y-83000000D02*
X195000000Y-82105000D01*
D34*
X198700000Y-92550000D02*
X198700000Y-94450000D01*
D33*
X195000000Y-82105000D02*
X194945000Y-82050000D01*
D34*
X200950000Y-92600000D02*
X200900000Y-92550000D01*
D33*
X169972453Y-82772453D02*
X169972453Y-82024918D01*
%TO.N,+3.3V*%
X193677300Y-103822700D02*
X178907654Y-103822700D01*
X196550000Y-87250000D02*
X194300000Y-87250000D01*
X173487160Y-99901000D02*
X172314840Y-99901000D01*
X191100002Y-89740002D02*
X191120000Y-89760000D01*
X188950000Y-89740002D02*
X191100002Y-89740002D01*
X194250000Y-87200000D02*
X191690000Y-89760000D01*
X201425000Y-120400000D02*
X201425000Y-120975000D01*
X172314840Y-99901000D02*
X171087500Y-98673660D01*
X163625000Y-120400000D02*
X162049000Y-118824000D01*
X174868860Y-101282700D02*
X173487160Y-99901000D01*
X178907654Y-103822700D02*
X176367654Y-101282700D01*
X163625000Y-121700000D02*
X163625000Y-120400000D01*
X195700000Y-107200000D02*
X193700000Y-107200000D01*
X176367654Y-101282700D02*
X174868860Y-101282700D01*
X170750000Y-96500000D02*
X171087500Y-96500000D01*
X162049000Y-87751000D02*
X162600000Y-87200000D01*
X162049000Y-118824000D02*
X162049000Y-87751000D01*
X171087500Y-98673660D02*
X171087500Y-96500000D01*
X193700000Y-103800000D02*
X193677300Y-103822700D01*
X201400000Y-121700000D02*
X201400000Y-120425000D01*
X191690000Y-89760000D02*
X191120000Y-89760000D01*
X162600000Y-87200000D02*
X165100000Y-87200000D01*
X193700000Y-107200000D02*
X196116968Y-107200000D01*
X171087500Y-89187500D02*
X169100000Y-87200000D01*
X169100000Y-87200000D02*
X165100000Y-87200000D01*
X194300000Y-87250000D02*
X194250000Y-87200000D01*
X171087500Y-96500000D02*
X171087500Y-89187500D01*
X201400000Y-120425000D02*
X201425000Y-120400000D01*
%TO.N,Left_control*%
X172500000Y-83600000D02*
X175295046Y-83600000D01*
X172500000Y-83600000D02*
X172500000Y-82497465D01*
X191607654Y-83502700D02*
X192404954Y-84300000D01*
X196650000Y-83600000D02*
X197000000Y-83250000D01*
X197000000Y-83250000D02*
X197000000Y-82050000D01*
X192404954Y-84300000D02*
X193800057Y-84300000D01*
X175392346Y-83502700D02*
X191607654Y-83502700D01*
X175295046Y-83600000D02*
X175392346Y-83502700D01*
X193800057Y-84300000D02*
X194500057Y-83600000D01*
X172500000Y-82497465D02*
X172027453Y-82024918D01*
X194500057Y-83600000D02*
X196650000Y-83600000D01*
%TO.N,Left_click*%
X169400000Y-80474964D02*
X169649954Y-80724918D01*
X169400000Y-79000000D02*
X169400000Y-80474964D01*
X169649954Y-80724918D02*
X169972453Y-80724918D01*
%TO.N,SCK*%
X165600000Y-109800000D02*
X165575000Y-109825000D01*
X178250000Y-89355794D02*
X178250000Y-88850001D01*
X203400000Y-118600000D02*
X203400000Y-116025000D01*
X165600000Y-102400000D02*
X165600000Y-109800000D01*
X165575000Y-109825000D02*
X165575000Y-116000000D01*
X175880000Y-91725794D02*
X178250000Y-89355794D01*
X167300000Y-100700000D02*
X165600000Y-102400000D01*
X175880000Y-92300000D02*
X175880000Y-91725794D01*
X169500000Y-118600000D02*
X203400000Y-118600000D01*
X165575000Y-116000000D02*
X166900000Y-116000000D01*
%TO.N,SDA*%
X168400000Y-89700000D02*
X165140000Y-89700000D01*
X192082700Y-108717300D02*
X193225029Y-107574971D01*
X193401000Y-106599000D02*
X194093101Y-106599000D01*
X170200000Y-91500000D02*
X168400000Y-89700000D01*
X189300000Y-106800000D02*
X189300000Y-108301000D01*
X189716300Y-108717300D02*
X192082700Y-108717300D01*
X189300000Y-108301000D02*
X189716300Y-108717300D01*
X194093101Y-106599000D02*
X194113801Y-106578300D01*
X193225029Y-107574971D02*
X193099000Y-107448943D01*
X193099000Y-106901000D02*
X193401000Y-106599000D01*
X194113801Y-106578300D02*
X194492101Y-106200000D01*
X165140000Y-89700000D02*
X165100000Y-89740000D01*
X194492101Y-106200000D02*
X195700000Y-106200000D01*
X193099000Y-107448943D02*
X193099000Y-106901000D01*
X170200000Y-98350000D02*
X170200000Y-91500000D01*
%TO.N,MOSI*%
X177401000Y-93886100D02*
X177401000Y-93259001D01*
X175880000Y-97380000D02*
X173792500Y-97380000D01*
X166025000Y-118000000D02*
X164925000Y-116900000D01*
X172912500Y-97587500D02*
X172912500Y-96500000D01*
X177057300Y-94229800D02*
X177401000Y-93886100D01*
X172750000Y-96662500D02*
X172912500Y-96500000D01*
X202725000Y-117925000D02*
X202650000Y-118000000D01*
X172750000Y-97750000D02*
X172912500Y-97587500D01*
X167606569Y-100075499D02*
X167024501Y-100075499D01*
X167024501Y-100075499D02*
X164925000Y-102175000D01*
X175880000Y-97380000D02*
X177057300Y-96202700D01*
X164925000Y-102175000D02*
X164925000Y-116000000D01*
X202650000Y-118000000D02*
X166025000Y-118000000D01*
X164925000Y-116900000D02*
X164925000Y-116000000D01*
X177401000Y-93259001D02*
X178250000Y-92410001D01*
X173706250Y-97293750D02*
X172912500Y-96500000D01*
X177057300Y-96202700D02*
X177057300Y-94229800D01*
X167800000Y-99882068D02*
X167606569Y-100075499D01*
X202725000Y-116000000D02*
X202725000Y-117925000D01*
X173792500Y-97380000D02*
X173706250Y-97293750D01*
%TO.N,SCL*%
X193947701Y-106177300D02*
X194925001Y-105200000D01*
X194925001Y-105200000D02*
X195700000Y-105200000D01*
X177057300Y-106177300D02*
X193947701Y-106177300D01*
X169600000Y-99240000D02*
X169600000Y-94000000D01*
X165280000Y-92100000D02*
X165100000Y-92280000D01*
X167700000Y-92100000D02*
X165280000Y-92100000D01*
X169600000Y-94000000D02*
X167700000Y-92100000D01*
X175880000Y-105000000D02*
X177057300Y-106177300D01*
%TO.N,MISO*%
X177000000Y-93720000D02*
X177000000Y-92844954D01*
X201575000Y-117400000D02*
X202075000Y-116900000D01*
X167800000Y-98975735D02*
X167772793Y-98975735D01*
X166600000Y-117400000D02*
X201575000Y-117400000D01*
X176860000Y-93860000D02*
X176985000Y-93735000D01*
X167200000Y-99000000D02*
X164275000Y-101925000D01*
X176860000Y-93860000D02*
X177000000Y-93720000D01*
X177000000Y-92844954D02*
X177057300Y-92787654D01*
X202075000Y-116900000D02*
X202075000Y-116000000D01*
X175880000Y-94840000D02*
X176860000Y-93860000D01*
X177057300Y-91812346D02*
X177000000Y-91755046D01*
X177000000Y-91755046D02*
X177000000Y-91750000D01*
X175790000Y-94750000D02*
X175880000Y-94840000D01*
X164275000Y-116000000D02*
X164275000Y-117275000D01*
X177057300Y-92787654D02*
X177057300Y-91812346D01*
X164275000Y-117275000D02*
X164400000Y-117400000D01*
X167772793Y-98975735D02*
X167748528Y-99000000D01*
X178119999Y-90630001D02*
X178250000Y-90630001D01*
X164275000Y-101925000D02*
X164275000Y-116000000D01*
X177000000Y-91750000D02*
X178119999Y-90630001D01*
X167748528Y-99000000D02*
X167200000Y-99000000D01*
%TO.N,Net-(OpticalSensor1-LED_P)*%
X173000000Y-99087500D02*
X173000000Y-98897900D01*
X177257300Y-98742700D02*
X178250000Y-97750000D01*
X173000000Y-98897900D02*
X173155200Y-98742700D01*
X173155200Y-98742700D02*
X177257300Y-98742700D01*
%TO.N,Net-(OpticalSensor1-VDDREG)*%
X197250000Y-98950000D02*
X194750000Y-98950000D01*
X189942700Y-94292701D02*
X188950000Y-93300001D01*
X194750000Y-98950000D02*
X191817300Y-96017300D01*
X198700000Y-97500000D02*
X197250000Y-98950000D01*
X190632346Y-96017300D02*
X189942700Y-95327654D01*
X191817300Y-96017300D02*
X190632346Y-96017300D01*
X198700000Y-97500000D02*
X201200000Y-97500000D01*
X189942700Y-95327654D02*
X189942700Y-94292701D01*
%TO.N,CS 2*%
X163625000Y-107650000D02*
X163625000Y-116000000D01*
X163675000Y-107600000D02*
X163625000Y-107650000D01*
%TO.N,Battery*%
X183875000Y-108500000D02*
X183875000Y-115975000D01*
X199500000Y-83700000D02*
X199500000Y-81000000D01*
X198200000Y-79700000D02*
X187013000Y-79700000D01*
X199500000Y-81000000D02*
X198200000Y-79700000D01*
X187013000Y-79700000D02*
X185870000Y-80843000D01*
X185870000Y-80843000D02*
X185870000Y-81595000D01*
%TO.N,Interruptor*%
X190560000Y-82700000D02*
X191120000Y-82140000D01*
X182870000Y-81595000D02*
X183975000Y-82700000D01*
X183975000Y-82700000D02*
X190560000Y-82700000D01*
%TO.N,Net-(RLED1-Pad2)*%
X171225000Y-100912500D02*
X171112500Y-100800000D01*
X173000000Y-100912500D02*
X171225000Y-100912500D01*
%TO.N,Net-(RLED2-Pad2)*%
X169287500Y-100800000D02*
X169287500Y-102900000D01*
%TO.N,Net-(RLED3-Pad2)*%
X171112500Y-102900000D02*
X171112500Y-104900000D01*
%TO.N,Net-(RLED4-Pad2)*%
X169287500Y-104900000D02*
X167512500Y-104900000D01*
X167512500Y-104900000D02*
X167400000Y-105012500D01*
%TD*%
%TA.AperFunction,Conductor*%
%TO.N,GND*%
G36*
X168962336Y-78169407D02*
G01*
X168998300Y-78218907D01*
X168998300Y-78280093D01*
X168962336Y-78329593D01*
X168959147Y-78331815D01*
X168889711Y-78378211D01*
X168889707Y-78378214D01*
X168778214Y-78489707D01*
X168778211Y-78489711D01*
X168690609Y-78620814D01*
X168690603Y-78620825D01*
X168630263Y-78766501D01*
X168630263Y-78766503D01*
X168599500Y-78921155D01*
X168599500Y-78921158D01*
X168599500Y-79078842D01*
X168627474Y-79219478D01*
X168630263Y-79233496D01*
X168630263Y-79233498D01*
X168690603Y-79379174D01*
X168690609Y-79379185D01*
X168737593Y-79449500D01*
X168778211Y-79510289D01*
X168778212Y-79510290D01*
X168780913Y-79514332D01*
X168779536Y-79515251D01*
X168799329Y-79565832D01*
X168799500Y-79571652D01*
X168799500Y-80389827D01*
X168799499Y-80389845D01*
X168799499Y-80395907D01*
X168799499Y-80554021D01*
X168840423Y-80706749D01*
X168840424Y-80706752D01*
X168858186Y-80737515D01*
X168858187Y-80737518D01*
X168919478Y-80843677D01*
X168919480Y-80843680D01*
X169031284Y-80955484D01*
X169031286Y-80955485D01*
X169136866Y-81061065D01*
X169164643Y-81115582D01*
X169165015Y-81143991D01*
X169149453Y-81262196D01*
X169149453Y-81487638D01*
X169164265Y-81600151D01*
X169189897Y-81662034D01*
X169194696Y-81723031D01*
X169189897Y-81737802D01*
X169164265Y-81799684D01*
X169149453Y-81912197D01*
X169149453Y-82137638D01*
X169164265Y-82250150D01*
X169164267Y-82250156D01*
X169222254Y-82390151D01*
X169222255Y-82390152D01*
X169314498Y-82510366D01*
X169314502Y-82510369D01*
X169333219Y-82524731D01*
X169341382Y-82536607D01*
X169353046Y-82545082D01*
X169358281Y-82561194D01*
X169367875Y-82575153D01*
X169371953Y-82603273D01*
X169371953Y-82687316D01*
X169371952Y-82687334D01*
X169371952Y-82693396D01*
X169371952Y-82851510D01*
X169412876Y-83004238D01*
X169412877Y-83004241D01*
X169431747Y-83036923D01*
X169431748Y-83036926D01*
X169491931Y-83141166D01*
X169491933Y-83141169D01*
X169603737Y-83252973D01*
X169603739Y-83252974D01*
X169971163Y-83620398D01*
X169998514Y-83674079D01*
X169998551Y-83674072D01*
X169998576Y-83674202D01*
X169998940Y-83674915D01*
X169999342Y-83678052D01*
X170030263Y-83833496D01*
X170030263Y-83833498D01*
X170090603Y-83979174D01*
X170090609Y-83979185D01*
X170117705Y-84019736D01*
X170178211Y-84110289D01*
X170289711Y-84221789D01*
X170360228Y-84268907D01*
X170420814Y-84309390D01*
X170420825Y-84309396D01*
X170450743Y-84321788D01*
X170566503Y-84369737D01*
X170721158Y-84400500D01*
X170721159Y-84400500D01*
X170878841Y-84400500D01*
X170878842Y-84400500D01*
X171033497Y-84369737D01*
X171179179Y-84309394D01*
X171310289Y-84221789D01*
X171421789Y-84110289D01*
X171509394Y-83979179D01*
X171558536Y-83860537D01*
X171598272Y-83814012D01*
X171657767Y-83799728D01*
X171714295Y-83823142D01*
X171741463Y-83860536D01*
X171746124Y-83871788D01*
X171790603Y-83979174D01*
X171790609Y-83979185D01*
X171817705Y-84019736D01*
X171878211Y-84110289D01*
X171989711Y-84221789D01*
X172060228Y-84268907D01*
X172120814Y-84309390D01*
X172120825Y-84309396D01*
X172150743Y-84321788D01*
X172266503Y-84369737D01*
X172421158Y-84400500D01*
X172421159Y-84400500D01*
X172578841Y-84400500D01*
X172578842Y-84400500D01*
X172733497Y-84369737D01*
X172879179Y-84309394D01*
X173010289Y-84221789D01*
X173010290Y-84221787D01*
X173014332Y-84219087D01*
X173015251Y-84220463D01*
X173065832Y-84200671D01*
X173071652Y-84200500D01*
X174451884Y-84200500D01*
X174510075Y-84219407D01*
X174546039Y-84268907D01*
X174546039Y-84330091D01*
X174537101Y-84357599D01*
X174503200Y-84571640D01*
X174503200Y-84788359D01*
X174537100Y-85002396D01*
X174604070Y-85208508D01*
X174696799Y-85390501D01*
X174702455Y-85401600D01*
X174829836Y-85576925D01*
X174983075Y-85730164D01*
X175158400Y-85857545D01*
X175351492Y-85955930D01*
X175557599Y-86022898D01*
X175557600Y-86022898D01*
X175557603Y-86022899D01*
X175771641Y-86056800D01*
X175771644Y-86056800D01*
X175988359Y-86056800D01*
X176202396Y-86022899D01*
X176202397Y-86022898D01*
X176202401Y-86022898D01*
X176408508Y-85955930D01*
X176601600Y-85857545D01*
X176776925Y-85730164D01*
X176930164Y-85576925D01*
X177057545Y-85401600D01*
X177155930Y-85208508D01*
X177222898Y-85002401D01*
X177224060Y-84995063D01*
X177256800Y-84788359D01*
X177256800Y-84571640D01*
X177222899Y-84357603D01*
X177211262Y-84321789D01*
X177182346Y-84232792D01*
X177182346Y-84171607D01*
X177218310Y-84122107D01*
X177276501Y-84103200D01*
X191317911Y-84103200D01*
X191376102Y-84122107D01*
X191387915Y-84132196D01*
X191924432Y-84668713D01*
X191924434Y-84668716D01*
X192036238Y-84780520D01*
X192173170Y-84859577D01*
X192280288Y-84888279D01*
X192325896Y-84900500D01*
X192325897Y-84900500D01*
X193714921Y-84900500D01*
X193714937Y-84900501D01*
X193721000Y-84900501D01*
X193879113Y-84900501D01*
X193879114Y-84900501D01*
X194031842Y-84859577D01*
X194076795Y-84833622D01*
X194081958Y-84830641D01*
X194081961Y-84830639D01*
X194168773Y-84780520D01*
X194280577Y-84668716D01*
X194280577Y-84668714D01*
X194288727Y-84660565D01*
X194288728Y-84660562D01*
X194719796Y-84229496D01*
X194774312Y-84201719D01*
X194789799Y-84200500D01*
X196564864Y-84200500D01*
X196564880Y-84200501D01*
X196570943Y-84200501D01*
X196729056Y-84200501D01*
X196729057Y-84200501D01*
X196881785Y-84159577D01*
X196931904Y-84130639D01*
X197018716Y-84080520D01*
X197028511Y-84070724D01*
X197038259Y-84064685D01*
X197057371Y-84059996D01*
X197074078Y-84051482D01*
X197074072Y-84051449D01*
X197074189Y-84051425D01*
X197074907Y-84051060D01*
X197078057Y-84050656D01*
X197078841Y-84050500D01*
X197078842Y-84050500D01*
X197233497Y-84019737D01*
X197379179Y-83959394D01*
X197510289Y-83871789D01*
X197621789Y-83760289D01*
X197709394Y-83629179D01*
X197769737Y-83483497D01*
X197800500Y-83328842D01*
X197800500Y-83171158D01*
X197769737Y-83016503D01*
X197730243Y-82921155D01*
X197709396Y-82870825D01*
X197709390Y-82870814D01*
X197667453Y-82808052D01*
X197621789Y-82739711D01*
X197621784Y-82739706D01*
X197619914Y-82736907D01*
X197619407Y-82736538D01*
X197619159Y-82735776D01*
X197619087Y-82735668D01*
X197619117Y-82735647D01*
X197610805Y-82710065D01*
X197600670Y-82684146D01*
X197600500Y-82678347D01*
X197600500Y-82649457D01*
X197619407Y-82591266D01*
X197639233Y-82570915D01*
X197685451Y-82535451D01*
X197777698Y-82415233D01*
X197835687Y-82275236D01*
X197850500Y-82162720D01*
X197850500Y-81937280D01*
X197835687Y-81824764D01*
X197777698Y-81684767D01*
X197685451Y-81564549D01*
X197685446Y-81564545D01*
X197685445Y-81564544D01*
X197573365Y-81478542D01*
X197538709Y-81428117D01*
X197540311Y-81366953D01*
X197573365Y-81321458D01*
X197606052Y-81296376D01*
X197685451Y-81235451D01*
X197777698Y-81115233D01*
X197835687Y-80975236D01*
X197850500Y-80862720D01*
X197850500Y-80637280D01*
X197835687Y-80524764D01*
X197835685Y-80524759D01*
X197799494Y-80437385D01*
X197799177Y-80433360D01*
X197796803Y-80430093D01*
X197796803Y-80403196D01*
X197794693Y-80376389D01*
X197796803Y-80372945D01*
X197796803Y-80368907D01*
X197812614Y-80347144D01*
X197826663Y-80324220D01*
X197830392Y-80322675D01*
X197832767Y-80319407D01*
X197858348Y-80311095D01*
X197883191Y-80300805D01*
X197890958Y-80300500D01*
X197910257Y-80300500D01*
X197968448Y-80319407D01*
X197980261Y-80329496D01*
X198870504Y-81219739D01*
X198898281Y-81274256D01*
X198899500Y-81289743D01*
X198899500Y-83128347D01*
X198880882Y-83185647D01*
X198880913Y-83185668D01*
X198880840Y-83185776D01*
X198880593Y-83186538D01*
X198878655Y-83189046D01*
X198790609Y-83320814D01*
X198790603Y-83320825D01*
X198730263Y-83466501D01*
X198730263Y-83466503D01*
X198699500Y-83621155D01*
X198699500Y-83778844D01*
X198730263Y-83933496D01*
X198730263Y-83933498D01*
X198790603Y-84079174D01*
X198790609Y-84079185D01*
X198825506Y-84131411D01*
X198878211Y-84210289D01*
X198989711Y-84321789D01*
X199061469Y-84369736D01*
X199120814Y-84409390D01*
X199120825Y-84409396D01*
X199174638Y-84431685D01*
X199266503Y-84469737D01*
X199421158Y-84500500D01*
X199421159Y-84500500D01*
X199578841Y-84500500D01*
X199578842Y-84500500D01*
X199733497Y-84469737D01*
X199879179Y-84409394D01*
X200010289Y-84321789D01*
X200121789Y-84210289D01*
X200209394Y-84079179D01*
X200269737Y-83933497D01*
X200300500Y-83778842D01*
X200300500Y-83621158D01*
X200269737Y-83466503D01*
X200242303Y-83400271D01*
X200209396Y-83320825D01*
X200209390Y-83320814D01*
X200159184Y-83245677D01*
X200121789Y-83189711D01*
X200121787Y-83189709D01*
X200119087Y-83185668D01*
X200120459Y-83184751D01*
X200100670Y-83134146D01*
X200100500Y-83128347D01*
X200100500Y-81178710D01*
X201549500Y-81178710D01*
X201549500Y-81421289D01*
X201581161Y-81661781D01*
X201581161Y-81661786D01*
X201643944Y-81896092D01*
X201643948Y-81896105D01*
X201736772Y-82120204D01*
X201736774Y-82120208D01*
X201736776Y-82120212D01*
X201827614Y-82277548D01*
X201858066Y-82330292D01*
X202005729Y-82522731D01*
X202005731Y-82522733D01*
X202005735Y-82522738D01*
X202177262Y-82694265D01*
X202177266Y-82694268D01*
X202177268Y-82694270D01*
X202344959Y-82822943D01*
X202369711Y-82841936D01*
X202579788Y-82963224D01*
X202579794Y-82963226D01*
X202579795Y-82963227D01*
X202615970Y-82978211D01*
X202803900Y-83056054D01*
X203038211Y-83118838D01*
X203278712Y-83150500D01*
X203278713Y-83150500D01*
X203521287Y-83150500D01*
X203521288Y-83150500D01*
X203761789Y-83118838D01*
X203996100Y-83056054D01*
X204220212Y-82963224D01*
X204430289Y-82841936D01*
X204622738Y-82694265D01*
X204794265Y-82522738D01*
X204941936Y-82330289D01*
X205063224Y-82120212D01*
X205156054Y-81896100D01*
X205218838Y-81661789D01*
X205250500Y-81421288D01*
X205250500Y-81178712D01*
X205218838Y-80938211D01*
X205156054Y-80703900D01*
X205063224Y-80479788D01*
X204941936Y-80269711D01*
X204941933Y-80269707D01*
X204794270Y-80077268D01*
X204794268Y-80077266D01*
X204794265Y-80077262D01*
X204622738Y-79905735D01*
X204622733Y-79905731D01*
X204622731Y-79905729D01*
X204430292Y-79758066D01*
X204430289Y-79758064D01*
X204220212Y-79636776D01*
X204220208Y-79636774D01*
X204220204Y-79636772D01*
X203996105Y-79543948D01*
X203996104Y-79543947D01*
X203996100Y-79543946D01*
X203761789Y-79481162D01*
X203761786Y-79481161D01*
X203761784Y-79481161D01*
X203521289Y-79449500D01*
X203521288Y-79449500D01*
X203278712Y-79449500D01*
X203278710Y-79449500D01*
X203038218Y-79481161D01*
X203038213Y-79481161D01*
X202803907Y-79543944D01*
X202803894Y-79543948D01*
X202579795Y-79636772D01*
X202369707Y-79758066D01*
X202177268Y-79905729D01*
X202005729Y-80077268D01*
X201858066Y-80269707D01*
X201736772Y-80479795D01*
X201643948Y-80703894D01*
X201643944Y-80703907D01*
X201581161Y-80938213D01*
X201581161Y-80938218D01*
X201549500Y-81178710D01*
X200100500Y-81178710D01*
X200100500Y-81087045D01*
X200100501Y-81087032D01*
X200100501Y-80920942D01*
X200100500Y-80920940D01*
X200059578Y-80768219D01*
X200059578Y-80768218D01*
X200041856Y-80737522D01*
X199980520Y-80631284D01*
X198680521Y-79331286D01*
X198680520Y-79331284D01*
X198568716Y-79219480D01*
X198568713Y-79219478D01*
X198438846Y-79144499D01*
X198438844Y-79144498D01*
X198431791Y-79140425D01*
X198431785Y-79140423D01*
X198279057Y-79099499D01*
X198120943Y-79099499D01*
X198114880Y-79099499D01*
X198114864Y-79099500D01*
X188369500Y-79099500D01*
X188311309Y-79080593D01*
X188275345Y-79031093D01*
X188270500Y-79000500D01*
X188270499Y-78297133D01*
X188270499Y-78297128D01*
X188266516Y-78260079D01*
X188279095Y-78200203D01*
X188324468Y-78159155D01*
X188364949Y-78150500D01*
X206450500Y-78150500D01*
X206508691Y-78169407D01*
X206544655Y-78218907D01*
X206549500Y-78249500D01*
X206549500Y-122150500D01*
X206530593Y-122208691D01*
X206481093Y-122244655D01*
X206450500Y-122249500D01*
X202180806Y-122249500D01*
X202122615Y-122230593D01*
X202086651Y-122181093D01*
X202086651Y-122119907D01*
X202098490Y-122095499D01*
X202109391Y-122079184D01*
X202109392Y-122079181D01*
X202109394Y-122079179D01*
X202169737Y-121933497D01*
X202200500Y-121778842D01*
X202200500Y-121621158D01*
X202169737Y-121466503D01*
X202120312Y-121347181D01*
X202115512Y-121286186D01*
X202119010Y-121274725D01*
X202144091Y-121207483D01*
X202150500Y-121147873D01*
X202150499Y-119899499D01*
X202169406Y-119841309D01*
X202218906Y-119805345D01*
X202249499Y-119800500D01*
X202550500Y-119800500D01*
X202608691Y-119819407D01*
X202644655Y-119868907D01*
X202649500Y-119899500D01*
X202649500Y-121147866D01*
X202649501Y-121147870D01*
X202655908Y-121207480D01*
X202655909Y-121207485D01*
X202706202Y-121342329D01*
X202709835Y-121347182D01*
X202792454Y-121457546D01*
X202792457Y-121457548D01*
X202792458Y-121457549D01*
X202907670Y-121543797D01*
X203042511Y-121594089D01*
X203042512Y-121594089D01*
X203042517Y-121594091D01*
X203102127Y-121600500D01*
X203647872Y-121600499D01*
X203707483Y-121594091D01*
X203774907Y-121568943D01*
X203842329Y-121543797D01*
X203842329Y-121543796D01*
X203842331Y-121543796D01*
X203957546Y-121457546D01*
X204043796Y-121342331D01*
X204053495Y-121316328D01*
X204094089Y-121207488D01*
X204094090Y-121207485D01*
X204094091Y-121207483D01*
X204100500Y-121147873D01*
X204100499Y-120564741D01*
X204119406Y-120506551D01*
X204129489Y-120494744D01*
X204568713Y-120055521D01*
X204568716Y-120055520D01*
X204680520Y-119943716D01*
X204723711Y-119868907D01*
X204749312Y-119824565D01*
X204749322Y-119824546D01*
X204749349Y-119824500D01*
X204759577Y-119806785D01*
X204800500Y-119654058D01*
X204800500Y-119495943D01*
X204800500Y-105337044D01*
X204800501Y-105337031D01*
X204800501Y-105170943D01*
X204759577Y-105018215D01*
X204759576Y-105018214D01*
X204730639Y-104968094D01*
X204730639Y-104968093D01*
X204730637Y-104968091D01*
X204680524Y-104881289D01*
X204680521Y-104881286D01*
X204680520Y-104881284D01*
X204568716Y-104769480D01*
X204568713Y-104769478D01*
X203279496Y-103480261D01*
X203251719Y-103425744D01*
X203250500Y-103410257D01*
X203250500Y-96787045D01*
X203250501Y-96787032D01*
X203250501Y-96620942D01*
X203250500Y-96620940D01*
X203209578Y-96468219D01*
X203209578Y-96468218D01*
X203206883Y-96463550D01*
X203130520Y-96331284D01*
X202579521Y-95780285D01*
X202579520Y-95780284D01*
X202579520Y-95780283D01*
X202467715Y-95668479D01*
X202352914Y-95602199D01*
X202352911Y-95602198D01*
X202330788Y-95589424D01*
X202330785Y-95589423D01*
X202178057Y-95548499D01*
X202019943Y-95548499D01*
X202013880Y-95548499D01*
X202013864Y-95548500D01*
X199567105Y-95548500D01*
X199508914Y-95529593D01*
X199472950Y-95480093D01*
X199472950Y-95418907D01*
X199482846Y-95397526D01*
X199484042Y-95395584D01*
X199484814Y-95394334D01*
X199539999Y-95227797D01*
X199550500Y-95125009D01*
X199550499Y-94074992D01*
X199550499Y-94074991D01*
X199550499Y-94074983D01*
X199540000Y-93972211D01*
X199539999Y-93972209D01*
X199539999Y-93972203D01*
X199484814Y-93805666D01*
X199465237Y-93773927D01*
X199450500Y-93721957D01*
X199450500Y-93567105D01*
X199469407Y-93508914D01*
X199497528Y-93482844D01*
X199575016Y-93435049D01*
X199643656Y-93392712D01*
X199686204Y-93350164D01*
X199706873Y-93329496D01*
X199713989Y-93325870D01*
X199718685Y-93319407D01*
X199740736Y-93312242D01*
X199761390Y-93301719D01*
X199776876Y-93300500D01*
X199823125Y-93300500D01*
X199881316Y-93319407D01*
X199893122Y-93329490D01*
X200006344Y-93442712D01*
X200006346Y-93442713D01*
X200006347Y-93442714D01*
X200071409Y-93482844D01*
X200155666Y-93534814D01*
X200322203Y-93589999D01*
X200424991Y-93600500D01*
X201475008Y-93600499D01*
X201475016Y-93600499D01*
X201577788Y-93590000D01*
X201577788Y-93589999D01*
X201577797Y-93589999D01*
X201744334Y-93534814D01*
X201893656Y-93442712D01*
X201938294Y-93398074D01*
X201956873Y-93379496D01*
X201963989Y-93375870D01*
X201968685Y-93369407D01*
X201990736Y-93362242D01*
X202011390Y-93351719D01*
X202026876Y-93350500D01*
X202123124Y-93350500D01*
X202181315Y-93369407D01*
X202193127Y-93379496D01*
X202256343Y-93442711D01*
X202256345Y-93442713D01*
X202357419Y-93505055D01*
X202405666Y-93534814D01*
X202572203Y-93589999D01*
X202674991Y-93600500D01*
X203700500Y-93600499D01*
X203715412Y-93605344D01*
X203731093Y-93605344D01*
X203743778Y-93614560D01*
X203758691Y-93619406D01*
X203767907Y-93632091D01*
X203780593Y-93641308D01*
X203785438Y-93656220D01*
X203794655Y-93668906D01*
X203799500Y-93699499D01*
X203799500Y-93725500D01*
X203780593Y-93783691D01*
X203731093Y-93819655D01*
X203702493Y-93824189D01*
X203702499Y-93824244D01*
X203702493Y-93824244D01*
X203702500Y-93824373D01*
X203700783Y-93824460D01*
X203700533Y-93824500D01*
X203699999Y-93824500D01*
X203699983Y-93824501D01*
X203597211Y-93834999D01*
X203597199Y-93835002D01*
X203430663Y-93890187D01*
X203281347Y-93982285D01*
X203157285Y-94106347D01*
X203065187Y-94255663D01*
X203010000Y-94422205D01*
X202999500Y-94524983D01*
X202999500Y-95475016D01*
X203009999Y-95577788D01*
X203010000Y-95577795D01*
X203010001Y-95577797D01*
X203062730Y-95736923D01*
X203065187Y-95744336D01*
X203157285Y-95893652D01*
X203157286Y-95893653D01*
X203157288Y-95893656D01*
X203281344Y-96017712D01*
X203430666Y-96109814D01*
X203597203Y-96164999D01*
X203699991Y-96175500D01*
X205100008Y-96175499D01*
X205100016Y-96175499D01*
X205202788Y-96165000D01*
X205202788Y-96164999D01*
X205202797Y-96164999D01*
X205369334Y-96109814D01*
X205518656Y-96017712D01*
X205642712Y-95893656D01*
X205734814Y-95744334D01*
X205789999Y-95577797D01*
X205800500Y-95475009D01*
X205800499Y-94524992D01*
X205800499Y-94524991D01*
X205800499Y-94524983D01*
X205790000Y-94422211D01*
X205789999Y-94422209D01*
X205789999Y-94422203D01*
X205734814Y-94255666D01*
X205670221Y-94150943D01*
X205642714Y-94106347D01*
X205642713Y-94106346D01*
X205642712Y-94106344D01*
X205518656Y-93982288D01*
X205518653Y-93982286D01*
X205518652Y-93982285D01*
X205369336Y-93890187D01*
X205369335Y-93890186D01*
X205369334Y-93890186D01*
X205202797Y-93835001D01*
X205202794Y-93835000D01*
X205100017Y-93824500D01*
X205100009Y-93824500D01*
X205099500Y-93824500D01*
X205099403Y-93824468D01*
X205097501Y-93824372D01*
X205097507Y-93824243D01*
X205097501Y-93824243D01*
X205097514Y-93824115D01*
X205097527Y-93823858D01*
X205041309Y-93805593D01*
X205005345Y-93756093D01*
X205000500Y-93725500D01*
X205000500Y-89870947D01*
X205000500Y-89870943D01*
X204998394Y-89863084D01*
X204998394Y-89863080D01*
X204998393Y-89863081D01*
X204979142Y-89791232D01*
X204979142Y-89791231D01*
X204959578Y-89718219D01*
X204959578Y-89718218D01*
X204959577Y-89718216D01*
X204880520Y-89581284D01*
X204768716Y-89469480D01*
X204768713Y-89469478D01*
X201274221Y-85974986D01*
X201274220Y-85974984D01*
X201162416Y-85863180D01*
X201075604Y-85813060D01*
X201075603Y-85813059D01*
X201025488Y-85784125D01*
X201025485Y-85784123D01*
X200872757Y-85743199D01*
X200714643Y-85743199D01*
X200708580Y-85743199D01*
X200708564Y-85743200D01*
X191917242Y-85743200D01*
X191876318Y-85754165D01*
X191876317Y-85754164D01*
X191764519Y-85784121D01*
X191764518Y-85784121D01*
X191673228Y-85836827D01*
X191627584Y-85863180D01*
X191627583Y-85863181D01*
X191614559Y-85876205D01*
X191560041Y-85903981D01*
X191513965Y-85900354D01*
X191442398Y-85877101D01*
X191228359Y-85843200D01*
X191228356Y-85843200D01*
X191011644Y-85843200D01*
X191011641Y-85843200D01*
X190797603Y-85877100D01*
X190591491Y-85944070D01*
X190398402Y-86042453D01*
X190223076Y-86169835D01*
X190069835Y-86323076D01*
X189942453Y-86498402D01*
X189844070Y-86691491D01*
X189777100Y-86897603D01*
X189743200Y-87111640D01*
X189743200Y-87328359D01*
X189777100Y-87542396D01*
X189844070Y-87748508D01*
X189885622Y-87830060D01*
X189942455Y-87941600D01*
X190069836Y-88116925D01*
X190223075Y-88270164D01*
X190398400Y-88397545D01*
X190398403Y-88397547D01*
X190398405Y-88397548D01*
X190406732Y-88401791D01*
X190449996Y-88445056D01*
X190459567Y-88505488D01*
X190431789Y-88560004D01*
X190406732Y-88578209D01*
X190398405Y-88582451D01*
X190398403Y-88582452D01*
X190223076Y-88709835D01*
X190069831Y-88863080D01*
X189951593Y-89025820D01*
X189902093Y-89061784D01*
X189840908Y-89061783D01*
X189791408Y-89025819D01*
X189791405Y-89025815D01*
X189789415Y-89023076D01*
X189789414Y-89023074D01*
X189666928Y-88900588D01*
X189526788Y-88798770D01*
X189526787Y-88798769D01*
X189526785Y-88798768D01*
X189372441Y-88720127D01*
X189372438Y-88720125D01*
X189207706Y-88666600D01*
X189207702Y-88666599D01*
X189036614Y-88639502D01*
X189036611Y-88639502D01*
X188863389Y-88639502D01*
X188863386Y-88639502D01*
X188692297Y-88666599D01*
X188692293Y-88666600D01*
X188527561Y-88720125D01*
X188527552Y-88720129D01*
X188494444Y-88736999D01*
X188434012Y-88746570D01*
X188379496Y-88718792D01*
X188351719Y-88664275D01*
X188350500Y-88648789D01*
X188350500Y-85874630D01*
X188350499Y-85874612D01*
X188350499Y-85825841D01*
X188314784Y-85600346D01*
X188307174Y-85576925D01*
X188244230Y-85383203D01*
X188140578Y-85179774D01*
X188006379Y-84995064D01*
X187844937Y-84833622D01*
X187660227Y-84699422D01*
X187660226Y-84699421D01*
X187660224Y-84699420D01*
X187456799Y-84595770D01*
X187239654Y-84525215D01*
X187014160Y-84489501D01*
X187014157Y-84489501D01*
X186959309Y-84489501D01*
X180341008Y-84489501D01*
X180341005Y-84489500D01*
X180300000Y-84489500D01*
X180185843Y-84489500D01*
X180185840Y-84489500D01*
X179960344Y-84525214D01*
X179743203Y-84595768D01*
X179539774Y-84699420D01*
X179447417Y-84766521D01*
X179355062Y-84833621D01*
X179193620Y-84995063D01*
X179188289Y-85002401D01*
X179059419Y-85179775D01*
X178955769Y-85383201D01*
X178885214Y-85600346D01*
X178849500Y-85825841D01*
X178849500Y-85978788D01*
X178830593Y-86036979D01*
X178781093Y-86072943D01*
X178719907Y-86072943D01*
X178705556Y-86066998D01*
X178672447Y-86050128D01*
X178672438Y-86050124D01*
X178507706Y-85996599D01*
X178507702Y-85996598D01*
X178336614Y-85969501D01*
X178336611Y-85969501D01*
X178163389Y-85969501D01*
X178163386Y-85969501D01*
X177992297Y-85996598D01*
X177992293Y-85996599D01*
X177827561Y-86050124D01*
X177827558Y-86050126D01*
X177673214Y-86128767D01*
X177533073Y-86230586D01*
X177410585Y-86353074D01*
X177308766Y-86493215D01*
X177230125Y-86647559D01*
X177230123Y-86647562D01*
X177176598Y-86812294D01*
X177176597Y-86812298D01*
X177149500Y-86983386D01*
X177149500Y-87156615D01*
X177176597Y-87327703D01*
X177176598Y-87327707D01*
X177230123Y-87492439D01*
X177230125Y-87492442D01*
X177299202Y-87628016D01*
X177308768Y-87646789D01*
X177410586Y-87786929D01*
X177513656Y-87889999D01*
X177541432Y-87944514D01*
X177531861Y-88004946D01*
X177513657Y-88030001D01*
X177445789Y-88097870D01*
X177410585Y-88133074D01*
X177308766Y-88273215D01*
X177230125Y-88427559D01*
X177230123Y-88427562D01*
X177176598Y-88592294D01*
X177176597Y-88592298D01*
X177149500Y-88763386D01*
X177149500Y-88936615D01*
X177176597Y-89107702D01*
X177230123Y-89272439D01*
X177230125Y-89272442D01*
X177283202Y-89376612D01*
X177292773Y-89437044D01*
X177264996Y-89491561D01*
X175862355Y-90894204D01*
X175807838Y-90921981D01*
X175792351Y-90923200D01*
X175771641Y-90923200D01*
X175557603Y-90957100D01*
X175351491Y-91024070D01*
X175158402Y-91122453D01*
X174983076Y-91249835D01*
X174829835Y-91403076D01*
X174702453Y-91578402D01*
X174604070Y-91771491D01*
X174537100Y-91977603D01*
X174503200Y-92191640D01*
X174503200Y-92408359D01*
X174537100Y-92622396D01*
X174604070Y-92828508D01*
X174685242Y-92987819D01*
X174702455Y-93021600D01*
X174829836Y-93196925D01*
X174983075Y-93350164D01*
X175136715Y-93461790D01*
X175158403Y-93477547D01*
X175158405Y-93477548D01*
X175166732Y-93481791D01*
X175209996Y-93525056D01*
X175219567Y-93585488D01*
X175191789Y-93640004D01*
X175166732Y-93658209D01*
X175158405Y-93662451D01*
X175158403Y-93662452D01*
X174983076Y-93789835D01*
X174829835Y-93943076D01*
X174702453Y-94118402D01*
X174604070Y-94311491D01*
X174537100Y-94517603D01*
X174503200Y-94731640D01*
X174503200Y-94948359D01*
X174537100Y-95162396D01*
X174604070Y-95368508D01*
X174695779Y-95548499D01*
X174702455Y-95561600D01*
X174829836Y-95736925D01*
X174983075Y-95890164D01*
X175140763Y-96004731D01*
X175158403Y-96017547D01*
X175158405Y-96017548D01*
X175166732Y-96021791D01*
X175209996Y-96065056D01*
X175219567Y-96125488D01*
X175191789Y-96180004D01*
X175166732Y-96198209D01*
X175158405Y-96202451D01*
X175158403Y-96202452D01*
X174983076Y-96329835D01*
X174829835Y-96483076D01*
X174702453Y-96658402D01*
X174668294Y-96725445D01*
X174625029Y-96768710D01*
X174580084Y-96779500D01*
X174082243Y-96779500D01*
X174074645Y-96777031D01*
X174066756Y-96778281D01*
X174046100Y-96767756D01*
X174024052Y-96760593D01*
X174012239Y-96750504D01*
X173954495Y-96692760D01*
X173926718Y-96638243D01*
X173925499Y-96622756D01*
X173925499Y-95999983D01*
X173915000Y-95897211D01*
X173914999Y-95897209D01*
X173914999Y-95897203D01*
X173859814Y-95730666D01*
X173767712Y-95581344D01*
X173643656Y-95457288D01*
X173643653Y-95457286D01*
X173643652Y-95457285D01*
X173494336Y-95365187D01*
X173494335Y-95365186D01*
X173494334Y-95365186D01*
X173327797Y-95310001D01*
X173327794Y-95310000D01*
X173225016Y-95299500D01*
X172599983Y-95299500D01*
X172497211Y-95309999D01*
X172497199Y-95310002D01*
X172330663Y-95365187D01*
X172181347Y-95457285D01*
X172181344Y-95457287D01*
X172181344Y-95457288D01*
X172070001Y-95568630D01*
X172015487Y-95596406D01*
X171955055Y-95586835D01*
X171929999Y-95568631D01*
X171818656Y-95457288D01*
X171818653Y-95457286D01*
X171818651Y-95457284D01*
X171735027Y-95405704D01*
X171695426Y-95359063D01*
X171688000Y-95321444D01*
X171688000Y-89108444D01*
X171687999Y-89108437D01*
X171687816Y-89107756D01*
X171687801Y-89107702D01*
X171669232Y-89038400D01*
X171665125Y-89023074D01*
X171647077Y-88955716D01*
X171568020Y-88818784D01*
X171456216Y-88706980D01*
X171456213Y-88706978D01*
X169580521Y-86831286D01*
X169580520Y-86831284D01*
X169468716Y-86719480D01*
X169468713Y-86719478D01*
X169378057Y-86667138D01*
X169378054Y-86667137D01*
X169331787Y-86640424D01*
X169331786Y-86640423D01*
X169331785Y-86640423D01*
X169179057Y-86599499D01*
X169020943Y-86599499D01*
X169014880Y-86599499D01*
X169014864Y-86599500D01*
X166549499Y-86599500D01*
X166491308Y-86580593D01*
X166455344Y-86531093D01*
X166450499Y-86500500D01*
X166450499Y-86302133D01*
X166450499Y-86302128D01*
X166444091Y-86242517D01*
X166444089Y-86242511D01*
X166393797Y-86107670D01*
X166307549Y-85992458D01*
X166307548Y-85992457D01*
X166307546Y-85992454D01*
X166284212Y-85974986D01*
X166192329Y-85906202D01*
X166057488Y-85855910D01*
X166057483Y-85855909D01*
X166057481Y-85855908D01*
X166057477Y-85855908D01*
X166026249Y-85852550D01*
X165997873Y-85849500D01*
X165997870Y-85849500D01*
X164202133Y-85849500D01*
X164202129Y-85849500D01*
X164202128Y-85849501D01*
X164194949Y-85850272D01*
X164142519Y-85855908D01*
X164142514Y-85855909D01*
X164007670Y-85906202D01*
X163892458Y-85992450D01*
X163892450Y-85992458D01*
X163806202Y-86107670D01*
X163755910Y-86242511D01*
X163755908Y-86242522D01*
X163749500Y-86302129D01*
X163749500Y-86500500D01*
X163730593Y-86558691D01*
X163681093Y-86594655D01*
X163650500Y-86599500D01*
X162685137Y-86599500D01*
X162685121Y-86599499D01*
X162679058Y-86599499D01*
X162520943Y-86599499D01*
X162520940Y-86599499D01*
X162368219Y-86640421D01*
X162368218Y-86640421D01*
X162279763Y-86691491D01*
X162231288Y-86719478D01*
X162231281Y-86719482D01*
X161674641Y-87276120D01*
X161674642Y-87276121D01*
X161674639Y-87276124D01*
X161674638Y-87276123D01*
X161568479Y-87382284D01*
X161528353Y-87451785D01*
X161489425Y-87519209D01*
X161489423Y-87519213D01*
X161489423Y-87519215D01*
X161448499Y-87671943D01*
X161448499Y-87671945D01*
X161448499Y-87838031D01*
X161448500Y-87838044D01*
X161448500Y-118738863D01*
X161448499Y-118738881D01*
X161448499Y-118744943D01*
X161448499Y-118903057D01*
X161489423Y-119055785D01*
X161489424Y-119055788D01*
X161517996Y-119105274D01*
X161517997Y-119105277D01*
X161568478Y-119192713D01*
X161568480Y-119192716D01*
X161680284Y-119304520D01*
X161680286Y-119304521D01*
X162870504Y-120494740D01*
X162898281Y-120549257D01*
X162899500Y-120564744D01*
X162899500Y-121147866D01*
X162899501Y-121147870D01*
X162905909Y-121207485D01*
X162919179Y-121243064D01*
X162921799Y-121304193D01*
X162917015Y-121316140D01*
X162917467Y-121316328D01*
X162855263Y-121466501D01*
X162855263Y-121466503D01*
X162824500Y-121621155D01*
X162824500Y-121778844D01*
X162855263Y-121933496D01*
X162855263Y-121933498D01*
X162915603Y-122079174D01*
X162915608Y-122079184D01*
X162926510Y-122095499D01*
X162943118Y-122154387D01*
X162921940Y-122211791D01*
X162871066Y-122245783D01*
X162844194Y-122249500D01*
X160549500Y-122249500D01*
X160491309Y-122230593D01*
X160455345Y-122181093D01*
X160450500Y-122150500D01*
X160450500Y-81178710D01*
X161749500Y-81178710D01*
X161749500Y-81421289D01*
X161781161Y-81661781D01*
X161781161Y-81661786D01*
X161843944Y-81896092D01*
X161843948Y-81896105D01*
X161936772Y-82120204D01*
X161936774Y-82120208D01*
X161936776Y-82120212D01*
X162027614Y-82277548D01*
X162058066Y-82330292D01*
X162205729Y-82522731D01*
X162205731Y-82522733D01*
X162205735Y-82522738D01*
X162377262Y-82694265D01*
X162377266Y-82694268D01*
X162377268Y-82694270D01*
X162544959Y-82822943D01*
X162569711Y-82841936D01*
X162779788Y-82963224D01*
X162779794Y-82963226D01*
X162779795Y-82963227D01*
X162815970Y-82978211D01*
X163003900Y-83056054D01*
X163238211Y-83118838D01*
X163478712Y-83150500D01*
X163478713Y-83150500D01*
X163721287Y-83150500D01*
X163721288Y-83150500D01*
X163961789Y-83118838D01*
X164196100Y-83056054D01*
X164420212Y-82963224D01*
X164630289Y-82841936D01*
X164822738Y-82694265D01*
X164994265Y-82522738D01*
X165141936Y-82330289D01*
X165263224Y-82120212D01*
X165356054Y-81896100D01*
X165418838Y-81661789D01*
X165450500Y-81421288D01*
X165450500Y-81178712D01*
X165418838Y-80938211D01*
X165356054Y-80703900D01*
X165263224Y-80479788D01*
X165141936Y-80269711D01*
X165141933Y-80269707D01*
X164994270Y-80077268D01*
X164994268Y-80077266D01*
X164994265Y-80077262D01*
X164822738Y-79905735D01*
X164822733Y-79905731D01*
X164822731Y-79905729D01*
X164630292Y-79758066D01*
X164630289Y-79758064D01*
X164420212Y-79636776D01*
X164420208Y-79636774D01*
X164420204Y-79636772D01*
X164196105Y-79543948D01*
X164196104Y-79543947D01*
X164196100Y-79543946D01*
X163961789Y-79481162D01*
X163961786Y-79481161D01*
X163961784Y-79481161D01*
X163721289Y-79449500D01*
X163721288Y-79449500D01*
X163478712Y-79449500D01*
X163478710Y-79449500D01*
X163238218Y-79481161D01*
X163238213Y-79481161D01*
X163003907Y-79543944D01*
X163003894Y-79543948D01*
X162779795Y-79636772D01*
X162569707Y-79758066D01*
X162377268Y-79905729D01*
X162205729Y-80077268D01*
X162058066Y-80269707D01*
X161936772Y-80479795D01*
X161843948Y-80703894D01*
X161843944Y-80703907D01*
X161781161Y-80938213D01*
X161781161Y-80938218D01*
X161749500Y-81178710D01*
X160450500Y-81178710D01*
X160450500Y-78249500D01*
X160469407Y-78191309D01*
X160518907Y-78155345D01*
X160549500Y-78150500D01*
X168904145Y-78150500D01*
X168962336Y-78169407D01*
G37*
%TD.AperFunction*%
%TA.AperFunction,Conductor*%
G36*
X163708692Y-87819407D02*
G01*
X163744656Y-87868907D01*
X163749501Y-87899500D01*
X163749501Y-88097870D01*
X163755908Y-88157480D01*
X163755909Y-88157485D01*
X163806202Y-88292329D01*
X163884969Y-88397548D01*
X163892454Y-88407546D01*
X163892457Y-88407548D01*
X163892458Y-88407549D01*
X164007670Y-88493797D01*
X164142511Y-88544089D01*
X164142512Y-88544089D01*
X164142517Y-88544091D01*
X164156637Y-88545609D01*
X164212473Y-88570629D01*
X164242939Y-88623689D01*
X164236399Y-88684524D01*
X164216058Y-88714045D01*
X164069897Y-88860206D01*
X164069892Y-88860212D01*
X163944950Y-89032180D01*
X163944948Y-89032184D01*
X163848443Y-89221587D01*
X163782752Y-89423761D01*
X163749500Y-89633709D01*
X163749500Y-89846290D01*
X163782752Y-90056238D01*
X163848443Y-90258412D01*
X163944948Y-90447815D01*
X163944950Y-90447819D01*
X164069891Y-90619786D01*
X164069893Y-90619788D01*
X164069896Y-90619792D01*
X164220208Y-90770104D01*
X164220211Y-90770106D01*
X164220213Y-90770108D01*
X164392180Y-90895049D01*
X164392184Y-90895051D01*
X164444662Y-90921790D01*
X164487927Y-90965055D01*
X164497498Y-91025487D01*
X164469720Y-91080004D01*
X164444662Y-91098210D01*
X164392184Y-91124948D01*
X164392180Y-91124950D01*
X164220213Y-91249891D01*
X164069891Y-91400213D01*
X163944950Y-91572180D01*
X163944948Y-91572184D01*
X163848443Y-91761587D01*
X163782752Y-91963761D01*
X163749500Y-92173709D01*
X163749500Y-92386290D01*
X163782752Y-92596238D01*
X163848443Y-92798412D01*
X163944948Y-92987815D01*
X163944950Y-92987819D01*
X164069891Y-93159786D01*
X164069893Y-93159788D01*
X164069896Y-93159792D01*
X164220208Y-93310104D01*
X164220211Y-93310106D01*
X164220213Y-93310108D01*
X164392180Y-93435049D01*
X164392184Y-93435051D01*
X164444662Y-93461790D01*
X164487927Y-93505055D01*
X164497498Y-93565487D01*
X164469720Y-93620004D01*
X164444662Y-93638210D01*
X164392184Y-93664948D01*
X164392180Y-93664950D01*
X164220213Y-93789891D01*
X164069891Y-93940213D01*
X163944950Y-94112180D01*
X163944948Y-94112184D01*
X163848443Y-94301587D01*
X163782752Y-94503761D01*
X163749500Y-94713709D01*
X163749500Y-94926290D01*
X163782752Y-95136238D01*
X163848443Y-95338412D01*
X163944948Y-95527815D01*
X163944950Y-95527819D01*
X164069891Y-95699786D01*
X164069893Y-95699788D01*
X164069896Y-95699792D01*
X164220208Y-95850104D01*
X164220211Y-95850106D01*
X164220213Y-95850108D01*
X164392180Y-95975049D01*
X164392184Y-95975051D01*
X164581588Y-96071557D01*
X164783757Y-96137246D01*
X164783758Y-96137246D01*
X164783761Y-96137247D01*
X164993710Y-96170500D01*
X164993713Y-96170500D01*
X165206290Y-96170500D01*
X165416238Y-96137247D01*
X165416239Y-96137246D01*
X165416243Y-96137246D01*
X165618412Y-96071557D01*
X165807816Y-95975051D01*
X165826585Y-95961415D01*
X165884393Y-95919415D01*
X165979792Y-95850104D01*
X166130104Y-95699792D01*
X166255051Y-95527816D01*
X166351557Y-95338412D01*
X166417246Y-95136243D01*
X166418881Y-95125920D01*
X166450500Y-94926290D01*
X166450500Y-94713709D01*
X166417247Y-94503761D01*
X166390746Y-94422199D01*
X166351557Y-94301588D01*
X166255051Y-94112184D01*
X166255049Y-94112180D01*
X166130108Y-93940213D01*
X166130106Y-93940211D01*
X166130104Y-93940208D01*
X165979792Y-93789896D01*
X165979788Y-93789893D01*
X165979786Y-93789891D01*
X165807819Y-93664950D01*
X165807815Y-93664948D01*
X165776904Y-93649198D01*
X165755336Y-93638209D01*
X165712073Y-93594946D01*
X165702501Y-93534514D01*
X165730278Y-93479997D01*
X165755335Y-93461791D01*
X165807816Y-93435051D01*
X165979792Y-93310104D01*
X166130104Y-93159792D01*
X166255051Y-92987816D01*
X166351557Y-92798412D01*
X166361144Y-92768905D01*
X166397108Y-92719407D01*
X166455298Y-92700500D01*
X167410257Y-92700500D01*
X167468448Y-92719407D01*
X167480261Y-92729496D01*
X168970504Y-94219739D01*
X168974130Y-94226856D01*
X168980593Y-94231552D01*
X168987756Y-94253600D01*
X168998281Y-94274256D01*
X168999500Y-94289743D01*
X168999500Y-94302669D01*
X168980593Y-94360860D01*
X168931093Y-94396824D01*
X168919814Y-94399767D01*
X168766503Y-94430263D01*
X168766501Y-94430263D01*
X168620825Y-94490603D01*
X168620814Y-94490609D01*
X168489711Y-94578211D01*
X168489707Y-94578214D01*
X168378214Y-94689707D01*
X168378211Y-94689711D01*
X168290609Y-94820814D01*
X168290603Y-94820825D01*
X168230263Y-94966501D01*
X168230263Y-94966503D01*
X168198841Y-95124465D01*
X168198940Y-95125085D01*
X168198576Y-95125797D01*
X168198551Y-95125928D01*
X168198514Y-95125920D01*
X168186307Y-95149878D01*
X168175160Y-95175361D01*
X168171165Y-95179599D01*
X168031286Y-95319478D01*
X168031284Y-95319480D01*
X168031275Y-95319487D01*
X167919480Y-95431283D01*
X167914772Y-95439438D01*
X167890934Y-95480728D01*
X167877705Y-95503641D01*
X167840424Y-95568211D01*
X167840423Y-95568215D01*
X167799499Y-95720943D01*
X167799499Y-95720945D01*
X167799499Y-95887031D01*
X167799500Y-95887044D01*
X167799500Y-98078404D01*
X167780593Y-98136595D01*
X167731093Y-98172559D01*
X167719814Y-98175502D01*
X167566503Y-98205998D01*
X167566501Y-98205998D01*
X167420825Y-98266338D01*
X167420814Y-98266344D01*
X167289711Y-98353946D01*
X167289707Y-98353949D01*
X167273154Y-98370503D01*
X167218637Y-98398280D01*
X167203150Y-98399499D01*
X167120940Y-98399499D01*
X166968219Y-98440421D01*
X166968218Y-98440421D01*
X166857128Y-98504559D01*
X166831284Y-98519480D01*
X163906286Y-101444478D01*
X163906284Y-101444480D01*
X163906283Y-101444479D01*
X163794482Y-101556281D01*
X163794480Y-101556283D01*
X163794480Y-101556284D01*
X163763817Y-101609396D01*
X163753121Y-101627922D01*
X163753120Y-101627923D01*
X163715424Y-101693211D01*
X163715423Y-101693215D01*
X163674499Y-101845943D01*
X163674499Y-101845945D01*
X163674499Y-102012031D01*
X163674500Y-102012044D01*
X163674500Y-106702669D01*
X163655593Y-106760860D01*
X163606093Y-106796824D01*
X163594814Y-106799767D01*
X163441503Y-106830263D01*
X163441501Y-106830263D01*
X163295825Y-106890603D01*
X163295814Y-106890609D01*
X163164711Y-106978211D01*
X163164707Y-106978214D01*
X163053214Y-107089707D01*
X163053211Y-107089711D01*
X162965609Y-107220814D01*
X162965603Y-107220825D01*
X162905263Y-107366501D01*
X162905263Y-107366503D01*
X162874500Y-107521155D01*
X162874500Y-107678844D01*
X162874998Y-107681347D01*
X162902670Y-107820463D01*
X162905263Y-107833496D01*
X162905263Y-107833498D01*
X162965603Y-107979174D01*
X162965606Y-107979180D01*
X162977647Y-107997199D01*
X163007816Y-108042350D01*
X163024500Y-108097350D01*
X163024500Y-114933486D01*
X163005593Y-114991677D01*
X163004754Y-114992815D01*
X162956201Y-115057672D01*
X162905910Y-115192511D01*
X162905908Y-115192522D01*
X162899500Y-115252129D01*
X162899500Y-116747866D01*
X162899501Y-116747870D01*
X162905908Y-116807480D01*
X162905909Y-116807485D01*
X162956202Y-116942329D01*
X163042450Y-117057541D01*
X163042454Y-117057546D01*
X163042457Y-117057548D01*
X163042458Y-117057549D01*
X163157670Y-117143797D01*
X163292511Y-117194089D01*
X163292512Y-117194089D01*
X163292517Y-117194091D01*
X163352127Y-117200500D01*
X163502868Y-117200499D01*
X163561058Y-117219406D01*
X163597022Y-117268906D01*
X163599817Y-117316297D01*
X163599977Y-117316313D01*
X163599878Y-117317318D01*
X163599966Y-117318810D01*
X163599501Y-117321147D01*
X163599500Y-117321158D01*
X163599500Y-117478844D01*
X163630263Y-117633496D01*
X163630263Y-117633498D01*
X163690603Y-117779174D01*
X163690609Y-117779185D01*
X163743312Y-117858059D01*
X163778211Y-117910289D01*
X163889711Y-118021789D01*
X163967876Y-118074017D01*
X164020814Y-118109390D01*
X164020825Y-118109396D01*
X164074638Y-118131685D01*
X164166503Y-118169737D01*
X164321158Y-118200500D01*
X164321159Y-118200500D01*
X164478841Y-118200500D01*
X164478842Y-118200500D01*
X164633497Y-118169737D01*
X164779179Y-118109394D01*
X164910289Y-118021789D01*
X164983917Y-117948161D01*
X165038433Y-117920383D01*
X165098865Y-117929954D01*
X165123925Y-117948160D01*
X165544478Y-118368713D01*
X165544480Y-118368716D01*
X165656284Y-118480520D01*
X165656286Y-118480521D01*
X165656289Y-118480524D01*
X165656288Y-118480524D01*
X165743091Y-118530637D01*
X165743093Y-118530639D01*
X165743094Y-118530639D01*
X165772032Y-118547346D01*
X165793215Y-118559577D01*
X165945943Y-118600501D01*
X165945944Y-118600501D01*
X166110121Y-118600501D01*
X166110136Y-118600500D01*
X166286257Y-118600500D01*
X166344448Y-118619407D01*
X166380412Y-118668907D01*
X166380412Y-118730093D01*
X166356260Y-118769504D01*
X166294479Y-118831283D01*
X166294480Y-118831284D01*
X166294478Y-118831286D01*
X166294477Y-118831286D01*
X165952145Y-119173617D01*
X165897629Y-119201394D01*
X165871563Y-119202046D01*
X165847874Y-119199500D01*
X165302133Y-119199500D01*
X165302129Y-119199500D01*
X165302128Y-119199501D01*
X165294949Y-119200272D01*
X165242519Y-119205908D01*
X165242514Y-119205909D01*
X165107670Y-119256202D01*
X164992458Y-119342450D01*
X164992450Y-119342458D01*
X164906202Y-119457670D01*
X164855910Y-119592511D01*
X164855908Y-119592522D01*
X164849500Y-119652129D01*
X164849500Y-121147866D01*
X164849501Y-121147870D01*
X164855908Y-121207480D01*
X164855909Y-121207485D01*
X164906202Y-121342329D01*
X164909835Y-121347182D01*
X164992454Y-121457546D01*
X164992457Y-121457548D01*
X164992458Y-121457549D01*
X165107670Y-121543797D01*
X165242511Y-121594089D01*
X165242512Y-121594089D01*
X165242517Y-121594091D01*
X165302127Y-121600500D01*
X165847872Y-121600499D01*
X165907483Y-121594091D01*
X165974907Y-121568943D01*
X166042329Y-121543797D01*
X166042329Y-121543796D01*
X166042331Y-121543796D01*
X166157546Y-121457546D01*
X166243796Y-121342331D01*
X166253495Y-121316328D01*
X166294089Y-121207488D01*
X166294090Y-121207485D01*
X166294091Y-121207483D01*
X166300500Y-121147873D01*
X166300499Y-120564741D01*
X166319406Y-120506551D01*
X166329496Y-120494738D01*
X166994740Y-119829496D01*
X167049256Y-119801719D01*
X167064743Y-119800500D01*
X200600500Y-119800500D01*
X200658691Y-119819407D01*
X200694655Y-119868907D01*
X200699500Y-119899500D01*
X200699500Y-121147866D01*
X200699501Y-121147870D01*
X200705909Y-121207484D01*
X200709851Y-121218055D01*
X200712468Y-121279185D01*
X200699410Y-121307643D01*
X200690606Y-121320821D01*
X200690605Y-121320821D01*
X200630263Y-121466501D01*
X200630263Y-121466503D01*
X200599500Y-121621155D01*
X200599500Y-121778844D01*
X200630263Y-121933496D01*
X200630263Y-121933498D01*
X200690603Y-122079174D01*
X200690608Y-122079184D01*
X200701510Y-122095499D01*
X200718118Y-122154387D01*
X200696940Y-122211791D01*
X200646066Y-122245783D01*
X200619194Y-122249500D01*
X164405806Y-122249500D01*
X164347615Y-122230593D01*
X164311651Y-122181093D01*
X164311651Y-122119907D01*
X164323490Y-122095499D01*
X164334391Y-122079184D01*
X164334392Y-122079181D01*
X164334394Y-122079179D01*
X164394737Y-121933497D01*
X164425500Y-121778842D01*
X164425500Y-121621158D01*
X164394737Y-121466503D01*
X164334394Y-121320821D01*
X164332533Y-121316327D01*
X164334689Y-121315433D01*
X164325505Y-121264141D01*
X164330817Y-121243070D01*
X164344091Y-121207483D01*
X164350500Y-121147873D01*
X164350499Y-119652128D01*
X164344091Y-119592517D01*
X164344089Y-119592511D01*
X164293797Y-119457670D01*
X164207549Y-119342458D01*
X164207548Y-119342457D01*
X164207546Y-119342454D01*
X164207541Y-119342450D01*
X164092329Y-119256202D01*
X163957488Y-119205910D01*
X163957483Y-119205909D01*
X163957481Y-119205908D01*
X163957477Y-119205908D01*
X163926249Y-119202550D01*
X163897873Y-119199500D01*
X163897870Y-119199500D01*
X163352133Y-119199500D01*
X163352121Y-119199501D01*
X163328435Y-119202047D01*
X163268557Y-119189466D01*
X163247853Y-119173618D01*
X162678496Y-118604260D01*
X162650719Y-118549743D01*
X162649500Y-118534256D01*
X162649500Y-88040742D01*
X162668407Y-87982551D01*
X162678497Y-87970738D01*
X162819740Y-87829496D01*
X162874256Y-87801719D01*
X162889743Y-87800500D01*
X163650501Y-87800500D01*
X163708692Y-87819407D01*
G37*
%TD.AperFunction*%
%TA.AperFunction,Conductor*%
G36*
X174260142Y-101523217D02*
G01*
X174388338Y-101651413D01*
X174388340Y-101651416D01*
X174500144Y-101763220D01*
X174565336Y-101800858D01*
X174606276Y-101846327D01*
X174612672Y-101907177D01*
X174605365Y-101927819D01*
X174605558Y-101927899D01*
X174604071Y-101931487D01*
X174537100Y-102137603D01*
X174503200Y-102351640D01*
X174503200Y-102568359D01*
X174537100Y-102782396D01*
X174604070Y-102988508D01*
X174700729Y-103178214D01*
X174702455Y-103181600D01*
X174829836Y-103356925D01*
X174983075Y-103510164D01*
X175158400Y-103637545D01*
X175158403Y-103637547D01*
X175158405Y-103637548D01*
X175166732Y-103641791D01*
X175209996Y-103685056D01*
X175219567Y-103745488D01*
X175191789Y-103800004D01*
X175166732Y-103818209D01*
X175158405Y-103822451D01*
X175158403Y-103822452D01*
X174983076Y-103949835D01*
X174829835Y-104103076D01*
X174702453Y-104278402D01*
X174604070Y-104471491D01*
X174537100Y-104677603D01*
X174503200Y-104891640D01*
X174503200Y-105108359D01*
X174537100Y-105322396D01*
X174604070Y-105528508D01*
X174686702Y-105690684D01*
X174702455Y-105721600D01*
X174829836Y-105896925D01*
X174983075Y-106050164D01*
X175052357Y-106100500D01*
X175158403Y-106177547D01*
X175158405Y-106177548D01*
X175166732Y-106181791D01*
X175209996Y-106225056D01*
X175219567Y-106285488D01*
X175191789Y-106340004D01*
X175166732Y-106358209D01*
X175158405Y-106362451D01*
X175158403Y-106362452D01*
X174983076Y-106489835D01*
X174829835Y-106643076D01*
X174702453Y-106818402D01*
X174604070Y-107011491D01*
X174537100Y-107217603D01*
X174503200Y-107431640D01*
X174503200Y-107648359D01*
X174537100Y-107862396D01*
X174604070Y-108068508D01*
X174682248Y-108221943D01*
X174702455Y-108261600D01*
X174829836Y-108436925D01*
X174983075Y-108590164D01*
X175158400Y-108717545D01*
X175158403Y-108717547D01*
X175158405Y-108717548D01*
X175166732Y-108721791D01*
X175209996Y-108765056D01*
X175219567Y-108825488D01*
X175191789Y-108880004D01*
X175166732Y-108898209D01*
X175158405Y-108902451D01*
X175158403Y-108902452D01*
X174983076Y-109029835D01*
X174829835Y-109183076D01*
X174702453Y-109358402D01*
X174604070Y-109551491D01*
X174537100Y-109757603D01*
X174503200Y-109971640D01*
X174503200Y-110188359D01*
X174537100Y-110402396D01*
X174604070Y-110608508D01*
X174640751Y-110680500D01*
X174702455Y-110801600D01*
X174829836Y-110976925D01*
X174983075Y-111130164D01*
X175158400Y-111257545D01*
X175351492Y-111355930D01*
X175557599Y-111422898D01*
X175557600Y-111422898D01*
X175557603Y-111422899D01*
X175771641Y-111456800D01*
X175771644Y-111456800D01*
X175988359Y-111456800D01*
X176202396Y-111422899D01*
X176202397Y-111422898D01*
X176202401Y-111422898D01*
X176408508Y-111355930D01*
X176601600Y-111257545D01*
X176776925Y-111130164D01*
X176930164Y-110976925D01*
X177057545Y-110801600D01*
X177155930Y-110608508D01*
X177222898Y-110402401D01*
X177256800Y-110188356D01*
X177256800Y-109971644D01*
X177256800Y-109971640D01*
X177222899Y-109757603D01*
X177222898Y-109757599D01*
X177155930Y-109551492D01*
X177057545Y-109358400D01*
X176930164Y-109183075D01*
X176776925Y-109029836D01*
X176601600Y-108902455D01*
X176593269Y-108898210D01*
X176550005Y-108854947D01*
X176540431Y-108794515D01*
X176568208Y-108739998D01*
X176593268Y-108721790D01*
X176601600Y-108717545D01*
X176776925Y-108590164D01*
X176930164Y-108436925D01*
X177057545Y-108261600D01*
X177155930Y-108068508D01*
X177222898Y-107862401D01*
X177227476Y-107833496D01*
X177256800Y-107648359D01*
X177256800Y-107431640D01*
X177222899Y-107217603D01*
X177219100Y-107205910D01*
X177155930Y-107011492D01*
X177110202Y-106921745D01*
X177100631Y-106861313D01*
X177128409Y-106806796D01*
X177182925Y-106779019D01*
X177198412Y-106777800D01*
X188400500Y-106777800D01*
X188458691Y-106796707D01*
X188494655Y-106846207D01*
X188499500Y-106876800D01*
X188499500Y-106878844D01*
X188530263Y-107033496D01*
X188530263Y-107033498D01*
X188590603Y-107179174D01*
X188590609Y-107179185D01*
X188649029Y-107266615D01*
X188678211Y-107310289D01*
X188678212Y-107310290D01*
X188680913Y-107314332D01*
X188679536Y-107315251D01*
X188699329Y-107365832D01*
X188699500Y-107371652D01*
X188699500Y-108215863D01*
X188699499Y-108215881D01*
X188699499Y-108221943D01*
X188699499Y-108380057D01*
X188740423Y-108532784D01*
X188740425Y-108532788D01*
X188769360Y-108582905D01*
X188769361Y-108582905D01*
X188819480Y-108669716D01*
X188931284Y-108781520D01*
X188931286Y-108781521D01*
X189235778Y-109086013D01*
X189235780Y-109086016D01*
X189347584Y-109197820D01*
X189393796Y-109224500D01*
X189484515Y-109276877D01*
X189637243Y-109317800D01*
X189795357Y-109317800D01*
X189801588Y-109317800D01*
X189859779Y-109336707D01*
X189895743Y-109386207D01*
X189895743Y-109447393D01*
X189889798Y-109461745D01*
X189844070Y-109551491D01*
X189777100Y-109757603D01*
X189743200Y-109971640D01*
X189743200Y-110188359D01*
X189777100Y-110402396D01*
X189844070Y-110608508D01*
X189880751Y-110680500D01*
X189942455Y-110801600D01*
X190069836Y-110976925D01*
X190223075Y-111130164D01*
X190398400Y-111257545D01*
X190591492Y-111355930D01*
X190797599Y-111422898D01*
X190797600Y-111422898D01*
X190797603Y-111422899D01*
X191011641Y-111456800D01*
X191011644Y-111456800D01*
X191228359Y-111456800D01*
X191442396Y-111422899D01*
X191442397Y-111422898D01*
X191442401Y-111422898D01*
X191648508Y-111355930D01*
X191841600Y-111257545D01*
X192016925Y-111130164D01*
X192170164Y-110976925D01*
X192297545Y-110801600D01*
X192331706Y-110734555D01*
X192374971Y-110691290D01*
X192419916Y-110680500D01*
X197390257Y-110680500D01*
X197448448Y-110699407D01*
X197460261Y-110709496D01*
X200795504Y-114044739D01*
X200823281Y-114099256D01*
X200824500Y-114114743D01*
X200824500Y-114933486D01*
X200805593Y-114991677D01*
X200804754Y-114992815D01*
X200756201Y-115057672D01*
X200705910Y-115192511D01*
X200705908Y-115192522D01*
X200699500Y-115252129D01*
X200699501Y-116700500D01*
X200680594Y-116758691D01*
X200631094Y-116794655D01*
X200600501Y-116799500D01*
X184408269Y-116799500D01*
X184350078Y-116780593D01*
X184314114Y-116731093D01*
X184314114Y-116669907D01*
X184350078Y-116620407D01*
X184353251Y-116618195D01*
X184385289Y-116596789D01*
X184496789Y-116485289D01*
X184584394Y-116354179D01*
X184644737Y-116208497D01*
X184675500Y-116053842D01*
X184675500Y-115896158D01*
X184644737Y-115741503D01*
X184594751Y-115620825D01*
X184584396Y-115595825D01*
X184584390Y-115595814D01*
X184513491Y-115489707D01*
X184496789Y-115464711D01*
X184496787Y-115464709D01*
X184494087Y-115460668D01*
X184495459Y-115459751D01*
X184475670Y-115409146D01*
X184475500Y-115403347D01*
X184475500Y-113728712D01*
X193299500Y-113728712D01*
X193299500Y-113971288D01*
X193324579Y-114161789D01*
X193331161Y-114211781D01*
X193331161Y-114211786D01*
X193393944Y-114446092D01*
X193393948Y-114446105D01*
X193486772Y-114670204D01*
X193486774Y-114670208D01*
X193486776Y-114670212D01*
X193608064Y-114880289D01*
X193608066Y-114880292D01*
X193755729Y-115072731D01*
X193755731Y-115072733D01*
X193755735Y-115072738D01*
X193927262Y-115244265D01*
X193927266Y-115244268D01*
X193927268Y-115244270D01*
X194067050Y-115351528D01*
X194119711Y-115391936D01*
X194329788Y-115513224D01*
X194553900Y-115606054D01*
X194788211Y-115668838D01*
X195028712Y-115700500D01*
X195028713Y-115700500D01*
X195271287Y-115700500D01*
X195271288Y-115700500D01*
X195511789Y-115668838D01*
X195746100Y-115606054D01*
X195970212Y-115513224D01*
X196180289Y-115391936D01*
X196372738Y-115244265D01*
X196544265Y-115072738D01*
X196691936Y-114880289D01*
X196813224Y-114670212D01*
X196906054Y-114446100D01*
X196968838Y-114211789D01*
X197000500Y-113971288D01*
X197000500Y-113728712D01*
X196968838Y-113488211D01*
X196906054Y-113253900D01*
X196813224Y-113029788D01*
X196691936Y-112819711D01*
X196544265Y-112627262D01*
X196372738Y-112455735D01*
X196372733Y-112455731D01*
X196372731Y-112455729D01*
X196180292Y-112308066D01*
X196180289Y-112308064D01*
X195970212Y-112186776D01*
X195970208Y-112186774D01*
X195970204Y-112186772D01*
X195746105Y-112093948D01*
X195746104Y-112093947D01*
X195746100Y-112093946D01*
X195511789Y-112031162D01*
X195511786Y-112031161D01*
X195511784Y-112031161D01*
X195271289Y-111999500D01*
X195271288Y-111999500D01*
X195028712Y-111999500D01*
X195028710Y-111999500D01*
X194788218Y-112031161D01*
X194788213Y-112031161D01*
X194553907Y-112093944D01*
X194553894Y-112093948D01*
X194329795Y-112186772D01*
X194119707Y-112308066D01*
X193927268Y-112455729D01*
X193755729Y-112627268D01*
X193608066Y-112819707D01*
X193486772Y-113029795D01*
X193393948Y-113253894D01*
X193393944Y-113253907D01*
X193331161Y-113488213D01*
X193331161Y-113488218D01*
X193306083Y-113678712D01*
X193299500Y-113728712D01*
X184475500Y-113728712D01*
X184475500Y-109824666D01*
X184494407Y-109766475D01*
X184515171Y-109745413D01*
X184518701Y-109742769D01*
X184632546Y-109657546D01*
X184718796Y-109542331D01*
X184721601Y-109534812D01*
X184769089Y-109407488D01*
X184769090Y-109407485D01*
X184769091Y-109407483D01*
X184775500Y-109347873D01*
X184775499Y-107652128D01*
X184769091Y-107592517D01*
X184769089Y-107592511D01*
X184718797Y-107457670D01*
X184632549Y-107342458D01*
X184632548Y-107342457D01*
X184632546Y-107342454D01*
X184594980Y-107314332D01*
X184517329Y-107256202D01*
X184382488Y-107205910D01*
X184382483Y-107205909D01*
X184382481Y-107205908D01*
X184382477Y-107205908D01*
X184351249Y-107202550D01*
X184322873Y-107199500D01*
X184322870Y-107199500D01*
X183427133Y-107199500D01*
X183427129Y-107199500D01*
X183427128Y-107199501D01*
X183419949Y-107200272D01*
X183367519Y-107205908D01*
X183367514Y-107205909D01*
X183232670Y-107256202D01*
X183117458Y-107342450D01*
X183117450Y-107342458D01*
X183031202Y-107457670D01*
X182980910Y-107592511D01*
X182980908Y-107592522D01*
X182976533Y-107633209D01*
X182974906Y-107648356D01*
X182974500Y-107652129D01*
X182974500Y-109347866D01*
X182974501Y-109347870D01*
X182980908Y-109407480D01*
X182980909Y-109407485D01*
X183031202Y-109542329D01*
X183074749Y-109600500D01*
X183117454Y-109657546D01*
X183117457Y-109657548D01*
X183117458Y-109657549D01*
X183234829Y-109745413D01*
X183270082Y-109795421D01*
X183274500Y-109824666D01*
X183274500Y-115403347D01*
X183255882Y-115460647D01*
X183255913Y-115460668D01*
X183255840Y-115460776D01*
X183255593Y-115461538D01*
X183253655Y-115464046D01*
X183165609Y-115595814D01*
X183165603Y-115595825D01*
X183105263Y-115741501D01*
X183105263Y-115741503D01*
X183074500Y-115896155D01*
X183074500Y-116053844D01*
X183105263Y-116208496D01*
X183105263Y-116208498D01*
X183165603Y-116354174D01*
X183165609Y-116354185D01*
X183182310Y-116379179D01*
X183253211Y-116485289D01*
X183364711Y-116596789D01*
X183396733Y-116618185D01*
X183434612Y-116666235D01*
X183437014Y-116727373D01*
X183403021Y-116778247D01*
X183345617Y-116799424D01*
X183341731Y-116799500D01*
X167470433Y-116799500D01*
X167412242Y-116780593D01*
X167376278Y-116731093D01*
X167376278Y-116669907D01*
X167407639Y-116623963D01*
X167410282Y-116621793D01*
X167410289Y-116621789D01*
X167521789Y-116510289D01*
X167609394Y-116379179D01*
X167669737Y-116233497D01*
X167700500Y-116078842D01*
X167700500Y-115921158D01*
X167669737Y-115766503D01*
X167642398Y-115700500D01*
X167609396Y-115620825D01*
X167609390Y-115620814D01*
X167566116Y-115556051D01*
X167521789Y-115489711D01*
X167410289Y-115378211D01*
X167338662Y-115330351D01*
X167279185Y-115290609D01*
X167279174Y-115290603D01*
X167133497Y-115230263D01*
X166978844Y-115199500D01*
X166978842Y-115199500D01*
X166821158Y-115199500D01*
X166821155Y-115199500D01*
X166666503Y-115230263D01*
X166666501Y-115230263D01*
X166520825Y-115290603D01*
X166520813Y-115290609D01*
X166454501Y-115334919D01*
X166395613Y-115351528D01*
X166338209Y-115330351D01*
X166304216Y-115279477D01*
X166300798Y-115254771D01*
X166300641Y-115254780D01*
X166300540Y-115252902D01*
X166300499Y-115252604D01*
X166300499Y-115252133D01*
X166300499Y-115252128D01*
X166294091Y-115192517D01*
X166294089Y-115192511D01*
X166243798Y-115057672D01*
X166243796Y-115057669D01*
X166195245Y-114992813D01*
X166175510Y-114934900D01*
X166175500Y-114933486D01*
X166175500Y-113678710D01*
X169949500Y-113678710D01*
X169949500Y-113921289D01*
X169981161Y-114161781D01*
X169981161Y-114161786D01*
X170043944Y-114396092D01*
X170043948Y-114396105D01*
X170136772Y-114620204D01*
X170136774Y-114620208D01*
X170136776Y-114620212D01*
X170258064Y-114830289D01*
X170258066Y-114830292D01*
X170405729Y-115022731D01*
X170405731Y-115022733D01*
X170405735Y-115022738D01*
X170577262Y-115194265D01*
X170577266Y-115194268D01*
X170577268Y-115194270D01*
X170702812Y-115290603D01*
X170769711Y-115341936D01*
X170979788Y-115463224D01*
X171203900Y-115556054D01*
X171438211Y-115618838D01*
X171678712Y-115650500D01*
X171678713Y-115650500D01*
X171921287Y-115650500D01*
X171921288Y-115650500D01*
X172161789Y-115618838D01*
X172396100Y-115556054D01*
X172620212Y-115463224D01*
X172830289Y-115341936D01*
X173022738Y-115194265D01*
X173194265Y-115022738D01*
X173341936Y-114830289D01*
X173463224Y-114620212D01*
X173556054Y-114396100D01*
X173618838Y-114161789D01*
X173650500Y-113921288D01*
X173650500Y-113678712D01*
X173618838Y-113438211D01*
X173556054Y-113203900D01*
X173463224Y-112979788D01*
X173341936Y-112769711D01*
X173232636Y-112627268D01*
X173194270Y-112577268D01*
X173194268Y-112577266D01*
X173194265Y-112577262D01*
X173022738Y-112405735D01*
X173022733Y-112405731D01*
X173022731Y-112405729D01*
X172830292Y-112258066D01*
X172830289Y-112258064D01*
X172620212Y-112136776D01*
X172620208Y-112136774D01*
X172620204Y-112136772D01*
X172396105Y-112043948D01*
X172396104Y-112043947D01*
X172396100Y-112043946D01*
X172161789Y-111981162D01*
X172161786Y-111981161D01*
X172161784Y-111981161D01*
X171921289Y-111949500D01*
X171921288Y-111949500D01*
X171678712Y-111949500D01*
X171678710Y-111949500D01*
X171438218Y-111981161D01*
X171438213Y-111981161D01*
X171203907Y-112043944D01*
X171203894Y-112043948D01*
X170979795Y-112136772D01*
X170769707Y-112258066D01*
X170577268Y-112405729D01*
X170405729Y-112577268D01*
X170258066Y-112769707D01*
X170136772Y-112979795D01*
X170043948Y-113203894D01*
X170043944Y-113203907D01*
X169981161Y-113438213D01*
X169981161Y-113438218D01*
X169949500Y-113678710D01*
X166175500Y-113678710D01*
X166175500Y-109985392D01*
X166178873Y-109959769D01*
X166200500Y-109879057D01*
X166200500Y-105825875D01*
X166219407Y-105767684D01*
X166268907Y-105731720D01*
X166330093Y-105731720D01*
X166369501Y-105755869D01*
X166481344Y-105867712D01*
X166630666Y-105959814D01*
X166797203Y-106014999D01*
X166899991Y-106025500D01*
X167900008Y-106025499D01*
X167900016Y-106025499D01*
X168002788Y-106015000D01*
X168002788Y-106014999D01*
X168002797Y-106014999D01*
X168169334Y-105959814D01*
X168318656Y-105867712D01*
X168329994Y-105856374D01*
X168384510Y-105828594D01*
X168444942Y-105838164D01*
X168470000Y-105856368D01*
X168556344Y-105942712D01*
X168556346Y-105942713D01*
X168556347Y-105942714D01*
X168584068Y-105959812D01*
X168705666Y-106034814D01*
X168872203Y-106089999D01*
X168974991Y-106100500D01*
X169600008Y-106100499D01*
X169600016Y-106100499D01*
X169702788Y-106090000D01*
X169702788Y-106089999D01*
X169702797Y-106089999D01*
X169869334Y-106034814D01*
X170018656Y-105942712D01*
X170129998Y-105831369D01*
X170184513Y-105803594D01*
X170244945Y-105813165D01*
X170270000Y-105831368D01*
X170381344Y-105942712D01*
X170381346Y-105942713D01*
X170381347Y-105942714D01*
X170409068Y-105959812D01*
X170530666Y-106034814D01*
X170697203Y-106089999D01*
X170799991Y-106100500D01*
X171425008Y-106100499D01*
X171425016Y-106100499D01*
X171527788Y-106090000D01*
X171527788Y-106089999D01*
X171527797Y-106089999D01*
X171694334Y-106034814D01*
X171843656Y-105942712D01*
X171967712Y-105818656D01*
X172059814Y-105669334D01*
X172114999Y-105502797D01*
X172125500Y-105400009D01*
X172125499Y-104399992D01*
X172125499Y-104399983D01*
X172115000Y-104297211D01*
X172114999Y-104297209D01*
X172114999Y-104297203D01*
X172059814Y-104130666D01*
X171999879Y-104033496D01*
X171967714Y-103981347D01*
X171967713Y-103981346D01*
X171967712Y-103981344D01*
X171956369Y-103970001D01*
X171928594Y-103915487D01*
X171938165Y-103855055D01*
X171956368Y-103829999D01*
X171967712Y-103818656D01*
X172059814Y-103669334D01*
X172114999Y-103502797D01*
X172125500Y-103400009D01*
X172125499Y-102399992D01*
X172125499Y-102399983D01*
X172115000Y-102297211D01*
X172114999Y-102297209D01*
X172114999Y-102297203D01*
X172059814Y-102130666D01*
X171981723Y-102004060D01*
X171967714Y-101981347D01*
X171967713Y-101981346D01*
X171967712Y-101981344D01*
X171906369Y-101920001D01*
X171899252Y-101906033D01*
X171888166Y-101894947D01*
X171885712Y-101879458D01*
X171878594Y-101865487D01*
X171881046Y-101850000D01*
X171878594Y-101834515D01*
X171885711Y-101820544D01*
X171888165Y-101805055D01*
X171906370Y-101779998D01*
X171916580Y-101769788D01*
X171929996Y-101756371D01*
X171984510Y-101728594D01*
X172044942Y-101738164D01*
X172070000Y-101756369D01*
X172081342Y-101767710D01*
X172081345Y-101767713D01*
X172149906Y-101810001D01*
X172230666Y-101859814D01*
X172397203Y-101914999D01*
X172499991Y-101925500D01*
X173500008Y-101925499D01*
X173500016Y-101925499D01*
X173602788Y-101915000D01*
X173602788Y-101914999D01*
X173602797Y-101914999D01*
X173769334Y-101859814D01*
X173918656Y-101767712D01*
X174042712Y-101643656D01*
X174092414Y-101563076D01*
X174105877Y-101541249D01*
X174152518Y-101501647D01*
X174213528Y-101497024D01*
X174260142Y-101523217D01*
G37*
%TD.AperFunction*%
%TA.AperFunction,Conductor*%
G36*
X192611980Y-97662940D02*
G01*
X192623794Y-97673029D01*
X194269478Y-99318713D01*
X194269480Y-99318716D01*
X194381284Y-99430520D01*
X194465973Y-99479415D01*
X194518215Y-99509577D01*
X194670943Y-99550500D01*
X194829057Y-99550500D01*
X197164864Y-99550500D01*
X197164880Y-99550501D01*
X197170943Y-99550501D01*
X197329055Y-99550501D01*
X197329057Y-99550501D01*
X197481785Y-99509577D01*
X197534027Y-99479415D01*
X197534029Y-99479413D01*
X197534031Y-99479413D01*
X197559188Y-99464888D01*
X197618716Y-99430520D01*
X197730520Y-99318716D01*
X197730521Y-99318713D01*
X198519739Y-98529495D01*
X198574256Y-98501718D01*
X198589743Y-98500499D01*
X199225016Y-98500499D01*
X199327788Y-98490000D01*
X199327788Y-98489999D01*
X199327797Y-98489999D01*
X199494334Y-98434814D01*
X199643656Y-98342712D01*
X199767712Y-98218656D01*
X199811584Y-98147528D01*
X199826302Y-98135030D01*
X199837654Y-98119407D01*
X199849072Y-98115696D01*
X199858225Y-98107926D01*
X199895845Y-98100500D01*
X200004155Y-98100500D01*
X200062346Y-98119407D01*
X200088416Y-98147528D01*
X200132285Y-98218652D01*
X200132286Y-98218653D01*
X200132288Y-98218656D01*
X200256344Y-98342712D01*
X200256346Y-98342713D01*
X200256347Y-98342714D01*
X200301401Y-98370503D01*
X200405666Y-98434814D01*
X200572203Y-98489999D01*
X200674991Y-98500500D01*
X201725008Y-98500499D01*
X201725016Y-98500499D01*
X201827788Y-98490000D01*
X201827788Y-98489999D01*
X201827797Y-98489999D01*
X201919362Y-98459656D01*
X201980543Y-98459301D01*
X202030252Y-98494975D01*
X202049498Y-98553055D01*
X202049500Y-98553632D01*
X202049500Y-103614863D01*
X202049499Y-103614881D01*
X202049499Y-103620943D01*
X202049499Y-103779057D01*
X202076238Y-103878844D01*
X202090423Y-103931784D01*
X202090422Y-103931784D01*
X202092170Y-103934810D01*
X202092171Y-103934814D01*
X202169478Y-104068713D01*
X202169480Y-104068716D01*
X202281284Y-104180520D01*
X202281286Y-104180521D01*
X203570504Y-105469739D01*
X203598281Y-105524256D01*
X203599500Y-105539743D01*
X203599500Y-114700500D01*
X203580593Y-114758691D01*
X203531093Y-114794655D01*
X203500500Y-114799500D01*
X203102133Y-114799500D01*
X203102122Y-114799501D01*
X203060579Y-114803966D01*
X203039421Y-114803966D01*
X203007775Y-114800564D01*
X202997873Y-114799500D01*
X202997871Y-114799500D01*
X202452133Y-114799500D01*
X202452122Y-114799501D01*
X202410579Y-114803966D01*
X202389421Y-114803966D01*
X202347874Y-114799500D01*
X202347873Y-114799500D01*
X202124500Y-114799500D01*
X202066309Y-114780593D01*
X202030345Y-114731093D01*
X202025500Y-114700500D01*
X202025500Y-113912045D01*
X202025501Y-113912032D01*
X202025501Y-113745945D01*
X202025501Y-113745943D01*
X201984577Y-113593215D01*
X201905520Y-113456284D01*
X198160521Y-109711286D01*
X198160520Y-109711284D01*
X198048716Y-109599480D01*
X198048713Y-109599478D01*
X197949731Y-109542331D01*
X197949728Y-109542330D01*
X197949726Y-109542329D01*
X197911785Y-109520423D01*
X197759057Y-109479499D01*
X197600943Y-109479499D01*
X197594880Y-109479499D01*
X197594864Y-109479500D01*
X192419916Y-109479500D01*
X192397868Y-109472336D01*
X192374971Y-109468710D01*
X192369322Y-109463061D01*
X192361725Y-109460593D01*
X192331707Y-109425445D01*
X192311951Y-109386672D01*
X192302379Y-109326240D01*
X192330156Y-109271724D01*
X192350654Y-109255994D01*
X192405204Y-109224500D01*
X192451416Y-109197820D01*
X192563220Y-109086016D01*
X192563221Y-109086013D01*
X193549251Y-108099983D01*
X198174500Y-108099983D01*
X198174500Y-108900016D01*
X198184999Y-109002788D01*
X198185002Y-109002800D01*
X198240187Y-109169336D01*
X198332285Y-109318652D01*
X198332286Y-109318653D01*
X198332288Y-109318656D01*
X198456344Y-109442712D01*
X198456346Y-109442713D01*
X198456347Y-109442714D01*
X198489335Y-109463061D01*
X198605666Y-109534814D01*
X198772203Y-109589999D01*
X198874991Y-109600500D01*
X200275008Y-109600499D01*
X200275016Y-109600499D01*
X200377788Y-109590000D01*
X200377788Y-109589999D01*
X200377797Y-109589999D01*
X200544334Y-109534814D01*
X200693656Y-109442712D01*
X200817712Y-109318656D01*
X200909814Y-109169334D01*
X200964999Y-109002797D01*
X200975500Y-108900009D01*
X200975499Y-108099992D01*
X200975499Y-108099991D01*
X200975499Y-108099983D01*
X200965000Y-107997211D01*
X200964999Y-107997209D01*
X200964999Y-107997203D01*
X200909814Y-107830666D01*
X200817712Y-107681344D01*
X200693656Y-107557288D01*
X200693653Y-107557286D01*
X200693652Y-107557285D01*
X200544336Y-107465187D01*
X200544335Y-107465186D01*
X200544334Y-107465186D01*
X200377797Y-107410001D01*
X200377794Y-107410000D01*
X200275016Y-107399500D01*
X198874983Y-107399500D01*
X198772211Y-107409999D01*
X198772199Y-107410002D01*
X198605663Y-107465187D01*
X198456347Y-107557285D01*
X198332285Y-107681347D01*
X198240187Y-107830663D01*
X198185000Y-107997205D01*
X198174500Y-108099983D01*
X193549251Y-108099983D01*
X193585597Y-108063637D01*
X193593745Y-108055489D01*
X193593747Y-108055489D01*
X193619743Y-108029493D01*
X193619744Y-108029493D01*
X193655469Y-108011292D01*
X193674258Y-108001719D01*
X193674259Y-108001718D01*
X193674264Y-108001718D01*
X193689744Y-108000500D01*
X193778841Y-108000500D01*
X193778842Y-108000500D01*
X193933497Y-107969737D01*
X194079179Y-107909394D01*
X194210289Y-107821789D01*
X194210290Y-107821787D01*
X194214332Y-107819087D01*
X194215251Y-107820463D01*
X194265832Y-107800671D01*
X194271652Y-107800500D01*
X194564546Y-107800500D01*
X194622737Y-107819407D01*
X194634549Y-107829496D01*
X194667450Y-107862396D01*
X194673135Y-107868081D01*
X194814602Y-107951744D01*
X194972431Y-107997598D01*
X195009306Y-108000500D01*
X195009311Y-108000500D01*
X196390689Y-108000500D01*
X196390694Y-108000500D01*
X196427569Y-107997598D01*
X196585398Y-107951744D01*
X196726865Y-107868081D01*
X196843081Y-107751865D01*
X196926744Y-107610398D01*
X196972598Y-107452569D01*
X196975500Y-107415694D01*
X196975500Y-106984306D01*
X196972598Y-106947431D01*
X196926744Y-106789602D01*
X196903556Y-106750394D01*
X196890209Y-106690684D01*
X196903557Y-106649604D01*
X196907418Y-106643076D01*
X196926744Y-106610398D01*
X196972598Y-106452569D01*
X196975500Y-106415694D01*
X196975500Y-105984306D01*
X196972598Y-105947431D01*
X196926744Y-105789602D01*
X196903556Y-105750394D01*
X196890209Y-105690684D01*
X196903557Y-105649604D01*
X196926744Y-105610398D01*
X196972598Y-105452569D01*
X196975500Y-105415694D01*
X196975500Y-104984306D01*
X196972598Y-104947431D01*
X196926744Y-104789602D01*
X196843081Y-104648135D01*
X196726865Y-104531919D01*
X196585398Y-104448256D01*
X196427569Y-104402402D01*
X196427568Y-104402401D01*
X196427565Y-104402401D01*
X196404140Y-104400558D01*
X196390694Y-104399500D01*
X195009306Y-104399500D01*
X194996773Y-104400486D01*
X194972434Y-104402401D01*
X194972427Y-104402403D01*
X194814602Y-104448256D01*
X194673136Y-104531918D01*
X194556916Y-104648138D01*
X194473256Y-104789598D01*
X194470908Y-104795026D01*
X194450062Y-104825701D01*
X194444487Y-104831277D01*
X194444481Y-104831284D01*
X194444479Y-104831286D01*
X193727962Y-105547804D01*
X193673445Y-105575581D01*
X193657958Y-105576800D01*
X192516501Y-105576800D01*
X192458310Y-105557893D01*
X192422346Y-105508393D01*
X192422346Y-105447207D01*
X192437679Y-105400016D01*
X192462898Y-105322401D01*
X192496800Y-105108356D01*
X192496800Y-104891644D01*
X192496800Y-104891640D01*
X192462899Y-104677603D01*
X192453325Y-104648138D01*
X192422346Y-104552792D01*
X192422346Y-104491607D01*
X192458310Y-104442107D01*
X192516501Y-104423200D01*
X193161792Y-104423200D01*
X193216794Y-104439885D01*
X193320814Y-104509390D01*
X193320825Y-104509396D01*
X193374638Y-104531685D01*
X193466503Y-104569737D01*
X193621158Y-104600500D01*
X193621159Y-104600500D01*
X193778841Y-104600500D01*
X193778842Y-104600500D01*
X193933497Y-104569737D01*
X194079179Y-104509394D01*
X194210289Y-104421789D01*
X194321789Y-104310289D01*
X194409394Y-104179179D01*
X194469737Y-104033497D01*
X194500500Y-103878842D01*
X194500500Y-103721158D01*
X194469737Y-103566503D01*
X194409394Y-103420821D01*
X194409393Y-103420819D01*
X194409390Y-103420814D01*
X194366699Y-103356923D01*
X194321789Y-103289711D01*
X194210289Y-103178211D01*
X194151137Y-103138687D01*
X194079185Y-103090609D01*
X194079174Y-103090603D01*
X193933497Y-103030263D01*
X193778844Y-102999500D01*
X193778842Y-102999500D01*
X193621158Y-102999500D01*
X193621155Y-102999500D01*
X193466503Y-103030263D01*
X193466501Y-103030263D01*
X193320825Y-103090603D01*
X193320814Y-103090609D01*
X193189711Y-103178211D01*
X193189707Y-103178214D01*
X193174718Y-103193204D01*
X193120201Y-103220981D01*
X193104714Y-103222200D01*
X192438412Y-103222200D01*
X192380221Y-103203293D01*
X192344257Y-103153793D01*
X192344257Y-103092607D01*
X192350202Y-103078255D01*
X192369889Y-103039616D01*
X192395930Y-102988508D01*
X192462898Y-102782401D01*
X192464513Y-102772203D01*
X192496800Y-102568359D01*
X192496800Y-102351640D01*
X192462899Y-102137603D01*
X192444620Y-102081347D01*
X192439645Y-102066033D01*
X192439645Y-102004848D01*
X192463797Y-101965437D01*
X192899740Y-101529496D01*
X192954256Y-101501719D01*
X192969743Y-101500500D01*
X199978348Y-101500500D01*
X200032710Y-101516761D01*
X200038462Y-101520540D01*
X200039711Y-101521789D01*
X200170821Y-101609394D01*
X200178604Y-101612617D01*
X200186432Y-101617761D01*
X200199991Y-101634689D01*
X200216484Y-101648777D01*
X200218712Y-101658062D01*
X200224683Y-101665516D01*
X200225702Y-101687183D01*
X200230764Y-101708273D01*
X200227109Y-101717095D01*
X200227558Y-101726634D01*
X200215648Y-101744760D01*
X200207347Y-101764799D01*
X200199204Y-101769788D01*
X200193961Y-101777769D01*
X200173670Y-101785433D01*
X200155176Y-101796766D01*
X200138425Y-101798748D01*
X200136723Y-101799391D01*
X200135596Y-101799082D01*
X200132070Y-101799500D01*
X198874983Y-101799500D01*
X198772211Y-101809999D01*
X198772199Y-101810002D01*
X198605663Y-101865187D01*
X198456347Y-101957285D01*
X198332285Y-102081347D01*
X198240187Y-102230663D01*
X198185000Y-102397205D01*
X198174500Y-102499983D01*
X198174500Y-103300016D01*
X198184999Y-103402788D01*
X198185000Y-103402795D01*
X198185001Y-103402797D01*
X198239247Y-103566501D01*
X198240187Y-103569336D01*
X198332285Y-103718652D01*
X198332286Y-103718653D01*
X198332288Y-103718656D01*
X198456344Y-103842712D01*
X198605666Y-103934814D01*
X198772203Y-103989999D01*
X198874991Y-104000500D01*
X200275008Y-104000499D01*
X200275016Y-104000499D01*
X200377788Y-103990000D01*
X200377788Y-103989999D01*
X200377797Y-103989999D01*
X200544334Y-103934814D01*
X200693656Y-103842712D01*
X200817712Y-103718656D01*
X200909814Y-103569334D01*
X200964999Y-103402797D01*
X200975500Y-103300009D01*
X200975499Y-102499992D01*
X200975499Y-102499991D01*
X200975499Y-102499983D01*
X200965000Y-102397211D01*
X200964999Y-102397209D01*
X200964999Y-102397203D01*
X200909814Y-102230666D01*
X200817712Y-102081344D01*
X200693656Y-101957288D01*
X200693653Y-101957286D01*
X200693652Y-101957285D01*
X200574450Y-101883761D01*
X200534848Y-101837120D01*
X200530225Y-101776109D01*
X200562346Y-101724033D01*
X200618941Y-101700783D01*
X200626422Y-101700500D01*
X200628841Y-101700500D01*
X200628842Y-101700500D01*
X200783497Y-101669737D01*
X200929179Y-101609394D01*
X201060289Y-101521789D01*
X201171789Y-101410289D01*
X201259394Y-101279179D01*
X201319737Y-101133497D01*
X201350500Y-100978842D01*
X201350500Y-100821158D01*
X201319737Y-100666503D01*
X201271981Y-100551209D01*
X201259396Y-100520825D01*
X201259390Y-100520814D01*
X201211076Y-100448508D01*
X201171789Y-100389711D01*
X201060289Y-100278211D01*
X200979486Y-100224220D01*
X200929185Y-100190609D01*
X200929174Y-100190603D01*
X200783497Y-100130263D01*
X200628844Y-100099500D01*
X200628842Y-100099500D01*
X200471158Y-100099500D01*
X200471155Y-100099500D01*
X200316503Y-100130263D01*
X200316501Y-100130263D01*
X200170825Y-100190603D01*
X200170814Y-100190609D01*
X200079211Y-100251818D01*
X200039711Y-100278211D01*
X200039709Y-100278212D01*
X200035668Y-100280913D01*
X200034748Y-100279536D01*
X199984168Y-100299329D01*
X199978348Y-100299500D01*
X192600940Y-100299500D01*
X192594586Y-100301203D01*
X192533484Y-100298000D01*
X192485935Y-100259493D01*
X192470101Y-100200392D01*
X192471184Y-100190089D01*
X192496800Y-100028359D01*
X192496800Y-99811640D01*
X192462899Y-99597603D01*
X192462898Y-99597599D01*
X192395930Y-99391492D01*
X192297545Y-99198400D01*
X192170164Y-99023075D01*
X192016925Y-98869836D01*
X191841600Y-98742455D01*
X191833269Y-98738210D01*
X191790005Y-98694947D01*
X191780431Y-98634515D01*
X191808208Y-98579998D01*
X191833268Y-98561790D01*
X191841600Y-98557545D01*
X192016925Y-98430164D01*
X192170164Y-98276925D01*
X192297545Y-98101600D01*
X192395930Y-97908508D01*
X192459636Y-97712438D01*
X192495599Y-97662941D01*
X192553789Y-97644033D01*
X192611980Y-97662940D01*
G37*
%TD.AperFunction*%
%TA.AperFunction,Conductor*%
G36*
X190210281Y-98417370D02*
G01*
X190223075Y-98430164D01*
X190392681Y-98553390D01*
X190398403Y-98557547D01*
X190398405Y-98557548D01*
X190406732Y-98561791D01*
X190449996Y-98605056D01*
X190459567Y-98665488D01*
X190431789Y-98720004D01*
X190406732Y-98738209D01*
X190398405Y-98742451D01*
X190398403Y-98742452D01*
X190223072Y-98869838D01*
X190206517Y-98886393D01*
X190151999Y-98914170D01*
X190091568Y-98904596D01*
X190048304Y-98861331D01*
X190038734Y-98800901D01*
X190050500Y-98726614D01*
X190050500Y-98553388D01*
X190042497Y-98502862D01*
X190052068Y-98442430D01*
X190095332Y-98399165D01*
X190155764Y-98389593D01*
X190210281Y-98417370D01*
G37*
%TD.AperFunction*%
%TA.AperFunction,Conductor*%
G36*
X192442485Y-95456772D02*
G01*
X192455559Y-95458148D01*
X192469078Y-95470322D01*
X192485290Y-95478583D01*
X192501026Y-95499092D01*
X192502965Y-95502451D01*
X192502965Y-95502454D01*
X192560554Y-95602199D01*
X192569480Y-95617659D01*
X192681284Y-95729463D01*
X192681286Y-95729464D01*
X193469535Y-96517713D01*
X193469537Y-96517716D01*
X193581341Y-96629520D01*
X193581343Y-96629521D01*
X193662872Y-96676592D01*
X193662876Y-96676594D01*
X193662883Y-96676598D01*
X193718272Y-96708577D01*
X193871000Y-96749501D01*
X193871002Y-96749501D01*
X194035177Y-96749501D01*
X194035193Y-96749500D01*
X197474548Y-96749500D01*
X197532739Y-96768407D01*
X197568703Y-96817907D01*
X197568703Y-96879093D01*
X197558809Y-96900472D01*
X197540187Y-96930663D01*
X197485000Y-97097205D01*
X197474500Y-97199983D01*
X197474500Y-97800012D01*
X197476787Y-97822400D01*
X197463888Y-97882210D01*
X197448303Y-97902459D01*
X197030262Y-98320503D01*
X196975745Y-98348281D01*
X196960258Y-98349500D01*
X195039743Y-98349500D01*
X194981552Y-98330593D01*
X194969739Y-98320504D01*
X192319137Y-95669902D01*
X192291360Y-95615385D01*
X192300930Y-95554955D01*
X192300932Y-95554953D01*
X192327077Y-95503641D01*
X192336370Y-95494346D01*
X192341719Y-95482337D01*
X192357476Y-95473241D01*
X192370341Y-95460376D01*
X192383325Y-95458319D01*
X192394710Y-95451748D01*
X192412803Y-95453651D01*
X192430773Y-95450805D01*
X192442485Y-95456772D01*
G37*
%TD.AperFunction*%
%TA.AperFunction,Conductor*%
G36*
X189725500Y-95961415D02*
G01*
X189737314Y-95971504D01*
X190089356Y-96323546D01*
X190117133Y-96378063D01*
X190107562Y-96438495D01*
X190089359Y-96463550D01*
X190069842Y-96483068D01*
X190069840Y-96483070D01*
X190069837Y-96483073D01*
X190069836Y-96483075D01*
X190044670Y-96517713D01*
X189942453Y-96658402D01*
X189844070Y-96851491D01*
X189777100Y-97057603D01*
X189743200Y-97271640D01*
X189743200Y-97488359D01*
X189771612Y-97667744D01*
X189762041Y-97728176D01*
X189718776Y-97771441D01*
X189658344Y-97781012D01*
X189615640Y-97763324D01*
X189567263Y-97728176D01*
X189526788Y-97698769D01*
X189372445Y-97620128D01*
X189372444Y-97620127D01*
X189372441Y-97620126D01*
X189372438Y-97620124D01*
X189207706Y-97566599D01*
X189207702Y-97566598D01*
X189036614Y-97539501D01*
X189036611Y-97539501D01*
X188863389Y-97539501D01*
X188863386Y-97539501D01*
X188692297Y-97566598D01*
X188692293Y-97566599D01*
X188527561Y-97620124D01*
X188527552Y-97620128D01*
X188494444Y-97636998D01*
X188434012Y-97646569D01*
X188379496Y-97618791D01*
X188351719Y-97564274D01*
X188350500Y-97548788D01*
X188350500Y-96171213D01*
X188369407Y-96113022D01*
X188418907Y-96077058D01*
X188480093Y-96077058D01*
X188494443Y-96083002D01*
X188525365Y-96098758D01*
X188527553Y-96099873D01*
X188527561Y-96099877D01*
X188692293Y-96153402D01*
X188692297Y-96153403D01*
X188863386Y-96180501D01*
X188863389Y-96180501D01*
X189036614Y-96180501D01*
X189207702Y-96153403D01*
X189207706Y-96153402D01*
X189372438Y-96099877D01*
X189372440Y-96099875D01*
X189372445Y-96099874D01*
X189526788Y-96021233D01*
X189609119Y-95961416D01*
X189667310Y-95942508D01*
X189725500Y-95961415D01*
G37*
%TD.AperFunction*%
%TA.AperFunction,Conductor*%
G36*
X201548658Y-87948002D02*
G01*
X201551461Y-87950696D01*
X203770504Y-90169739D01*
X203798281Y-90224256D01*
X203799500Y-90239743D01*
X203799500Y-91500500D01*
X203780593Y-91558691D01*
X203731093Y-91594655D01*
X203700500Y-91599500D01*
X202674983Y-91599500D01*
X202572211Y-91609999D01*
X202572199Y-91610002D01*
X202405663Y-91665187D01*
X202256345Y-91757286D01*
X202193127Y-91820504D01*
X202186010Y-91824129D01*
X202181315Y-91830593D01*
X202159263Y-91837757D01*
X202138610Y-91848281D01*
X202123124Y-91849500D01*
X202026876Y-91849500D01*
X201968685Y-91830593D01*
X201956873Y-91820504D01*
X201893656Y-91757288D01*
X201893654Y-91757286D01*
X201744336Y-91665187D01*
X201744335Y-91665186D01*
X201744334Y-91665186D01*
X201577797Y-91610001D01*
X201577794Y-91610000D01*
X201475016Y-91599500D01*
X200424983Y-91599500D01*
X200322211Y-91609999D01*
X200322199Y-91610002D01*
X200155663Y-91665187D01*
X200006347Y-91757285D01*
X200006344Y-91757287D01*
X200006344Y-91757288D01*
X199993126Y-91770505D01*
X199986011Y-91774130D01*
X199981316Y-91780593D01*
X199959267Y-91787756D01*
X199938612Y-91798281D01*
X199923125Y-91799500D01*
X199776876Y-91799500D01*
X199718685Y-91780593D01*
X199706873Y-91770504D01*
X199643656Y-91707288D01*
X199643654Y-91707286D01*
X199494336Y-91615187D01*
X199494335Y-91615186D01*
X199494334Y-91615186D01*
X199327797Y-91560001D01*
X199327794Y-91560000D01*
X199225016Y-91549500D01*
X198174983Y-91549500D01*
X198072211Y-91559999D01*
X198072199Y-91560002D01*
X197905663Y-91615187D01*
X197756345Y-91707286D01*
X197693127Y-91770504D01*
X197638610Y-91798281D01*
X197623124Y-91799500D01*
X197255203Y-91799500D01*
X197197012Y-91780593D01*
X197161048Y-91731093D01*
X197161048Y-91669907D01*
X197175949Y-91641172D01*
X197193797Y-91617329D01*
X197244089Y-91482488D01*
X197244088Y-91482488D01*
X197244091Y-91482483D01*
X197250500Y-91422873D01*
X197250499Y-90077128D01*
X197244091Y-90017517D01*
X197244089Y-90017511D01*
X197193797Y-89882670D01*
X197107549Y-89767458D01*
X197107548Y-89767457D01*
X197107546Y-89767454D01*
X197107541Y-89767450D01*
X196992329Y-89681202D01*
X196857488Y-89630910D01*
X196857483Y-89630909D01*
X196857481Y-89630908D01*
X196857477Y-89630908D01*
X196826249Y-89627550D01*
X196797873Y-89624500D01*
X196797870Y-89624500D01*
X196102133Y-89624500D01*
X196102129Y-89624500D01*
X196102128Y-89624501D01*
X196094949Y-89625272D01*
X196042519Y-89630908D01*
X196042514Y-89630909D01*
X195907670Y-89681202D01*
X195792458Y-89767450D01*
X195792450Y-89767458D01*
X195706202Y-89882670D01*
X195655910Y-90017511D01*
X195655909Y-90017517D01*
X195649500Y-90077127D01*
X195649500Y-90600543D01*
X195649501Y-91050500D01*
X195644656Y-91065411D01*
X195644656Y-91081093D01*
X195635439Y-91093778D01*
X195630594Y-91108691D01*
X195617908Y-91117907D01*
X195608692Y-91130593D01*
X195593779Y-91135438D01*
X195581094Y-91144655D01*
X195550501Y-91149500D01*
X195449500Y-91149500D01*
X195391309Y-91130593D01*
X195355345Y-91081093D01*
X195350500Y-91050500D01*
X195350499Y-90077133D01*
X195350499Y-90077128D01*
X195344091Y-90017517D01*
X195344089Y-90017511D01*
X195293797Y-89882670D01*
X195207549Y-89767458D01*
X195207548Y-89767457D01*
X195207546Y-89767454D01*
X195207541Y-89767450D01*
X195190169Y-89754445D01*
X195154917Y-89704435D01*
X195150500Y-89675193D01*
X195150500Y-89339743D01*
X195169407Y-89281552D01*
X195179497Y-89269739D01*
X195619741Y-88829496D01*
X195674257Y-88801719D01*
X195689744Y-88800500D01*
X200028348Y-88800500D01*
X200085647Y-88819117D01*
X200085668Y-88819087D01*
X200085775Y-88819159D01*
X200086539Y-88819407D01*
X200089044Y-88821343D01*
X200089710Y-88821788D01*
X200089711Y-88821789D01*
X200131714Y-88849855D01*
X200220814Y-88909390D01*
X200220825Y-88909396D01*
X200274638Y-88931685D01*
X200366503Y-88969737D01*
X200521158Y-89000500D01*
X200521159Y-89000500D01*
X200678841Y-89000500D01*
X200678842Y-89000500D01*
X200833497Y-88969737D01*
X200979179Y-88909394D01*
X201110289Y-88821789D01*
X201221789Y-88710289D01*
X201309394Y-88579179D01*
X201369737Y-88433497D01*
X201400500Y-88278842D01*
X201400500Y-88121158D01*
X201384359Y-88040013D01*
X201391551Y-87979253D01*
X201433083Y-87934323D01*
X201493092Y-87922386D01*
X201548658Y-87948002D01*
G37*
%TD.AperFunction*%
%TA.AperFunction,Conductor*%
G36*
X178933241Y-78169407D02*
G01*
X178969205Y-78218907D01*
X178973482Y-78260082D01*
X178971332Y-78280093D01*
X178969500Y-78297130D01*
X178969500Y-79192866D01*
X178969501Y-79192870D01*
X178975908Y-79252480D01*
X178975909Y-79252485D01*
X179026202Y-79387329D01*
X179082464Y-79462485D01*
X179112454Y-79502546D01*
X179112457Y-79502548D01*
X179112458Y-79502549D01*
X179227670Y-79588797D01*
X179362511Y-79639089D01*
X179362512Y-79639089D01*
X179362517Y-79639091D01*
X179422127Y-79645500D01*
X180517872Y-79645499D01*
X180577483Y-79639091D01*
X180644907Y-79613943D01*
X180712329Y-79588797D01*
X180712329Y-79588796D01*
X180712331Y-79588796D01*
X180827546Y-79502546D01*
X180913796Y-79387331D01*
X180916837Y-79379179D01*
X180964089Y-79252488D01*
X180964090Y-79252485D01*
X180964091Y-79252483D01*
X180970500Y-79192873D01*
X180970499Y-78297128D01*
X180966516Y-78260079D01*
X180979095Y-78200203D01*
X181024468Y-78159155D01*
X181064949Y-78150500D01*
X186175050Y-78150500D01*
X186233241Y-78169407D01*
X186269205Y-78218907D01*
X186273482Y-78260082D01*
X186271332Y-78280093D01*
X186269500Y-78297130D01*
X186269500Y-79192866D01*
X186269501Y-79192870D01*
X186275908Y-79252480D01*
X186275909Y-79252485D01*
X186326202Y-79387329D01*
X186339109Y-79404570D01*
X186358846Y-79462485D01*
X186340772Y-79520939D01*
X186329860Y-79533902D01*
X185989504Y-79874259D01*
X185934987Y-79902037D01*
X185874555Y-79892466D01*
X185831290Y-79849201D01*
X185820500Y-79804256D01*
X185820500Y-79776008D01*
X185820499Y-79776004D01*
X185816931Y-79758066D01*
X185793580Y-79640672D01*
X185741257Y-79514352D01*
X185740777Y-79513193D01*
X185740771Y-79513182D01*
X185664114Y-79398458D01*
X185566541Y-79300885D01*
X185451817Y-79224228D01*
X185451806Y-79224222D01*
X185324328Y-79171420D01*
X185188995Y-79144500D01*
X185188993Y-79144500D01*
X185051007Y-79144500D01*
X185051004Y-79144500D01*
X184915672Y-79171420D01*
X184915670Y-79171420D01*
X184788193Y-79224222D01*
X184788182Y-79224228D01*
X184673458Y-79300885D01*
X184575885Y-79398458D01*
X184499228Y-79513182D01*
X184499222Y-79513193D01*
X184446420Y-79640670D01*
X184446420Y-79640672D01*
X184419500Y-79776004D01*
X184419500Y-79913995D01*
X184446420Y-80049327D01*
X184446420Y-80049329D01*
X184499222Y-80176806D01*
X184499228Y-80176817D01*
X184575885Y-80291541D01*
X184673458Y-80389114D01*
X184788182Y-80465771D01*
X184788193Y-80465777D01*
X184822019Y-80479788D01*
X184915672Y-80518580D01*
X184980216Y-80531418D01*
X185033599Y-80561315D01*
X185059215Y-80616880D01*
X185053660Y-80663111D01*
X185025909Y-80737515D01*
X185025909Y-80737517D01*
X185019500Y-80797127D01*
X185019500Y-81447220D01*
X185019501Y-82000500D01*
X185000594Y-82058691D01*
X184951094Y-82094655D01*
X184920501Y-82099500D01*
X184264743Y-82099500D01*
X184206552Y-82080593D01*
X184194739Y-82070504D01*
X183749495Y-81625260D01*
X183721718Y-81570743D01*
X183720499Y-81555256D01*
X183720499Y-80797133D01*
X183720499Y-80797128D01*
X183714091Y-80737517D01*
X183714090Y-80737514D01*
X183663797Y-80602670D01*
X183577549Y-80487458D01*
X183577548Y-80487457D01*
X183577546Y-80487454D01*
X183553568Y-80469504D01*
X183462329Y-80401202D01*
X183327488Y-80350910D01*
X183327483Y-80350909D01*
X183327481Y-80350908D01*
X183327477Y-80350908D01*
X183296249Y-80347550D01*
X183267873Y-80344500D01*
X183267870Y-80344500D01*
X182813945Y-80344500D01*
X182755754Y-80325593D01*
X182719790Y-80276093D01*
X182719790Y-80214907D01*
X182731631Y-80190497D01*
X182740770Y-80176819D01*
X182740773Y-80176814D01*
X182740775Y-80176811D01*
X182793580Y-80049328D01*
X182820500Y-79913993D01*
X182820500Y-79776007D01*
X182793580Y-79640672D01*
X182741257Y-79514352D01*
X182740777Y-79513193D01*
X182740771Y-79513182D01*
X182664114Y-79398458D01*
X182566541Y-79300885D01*
X182451817Y-79224228D01*
X182451806Y-79224222D01*
X182324328Y-79171420D01*
X182188995Y-79144500D01*
X182188993Y-79144500D01*
X182051007Y-79144500D01*
X182051004Y-79144500D01*
X181915672Y-79171420D01*
X181915670Y-79171420D01*
X181788193Y-79224222D01*
X181788182Y-79224228D01*
X181673458Y-79300885D01*
X181575885Y-79398458D01*
X181499228Y-79513182D01*
X181499222Y-79513193D01*
X181446420Y-79640670D01*
X181446420Y-79640672D01*
X181419500Y-79776004D01*
X181419500Y-79913995D01*
X181446420Y-80049327D01*
X181446420Y-80049329D01*
X181499222Y-80176806D01*
X181499226Y-80176814D01*
X181508371Y-80190500D01*
X181524978Y-80249389D01*
X181503799Y-80306792D01*
X181452925Y-80340784D01*
X181426054Y-80344500D01*
X180994666Y-80344500D01*
X180936475Y-80325593D01*
X180915413Y-80304829D01*
X180827549Y-80187458D01*
X180827548Y-80187457D01*
X180827546Y-80187454D01*
X180827541Y-80187450D01*
X180712329Y-80101202D01*
X180577488Y-80050910D01*
X180577483Y-80050909D01*
X180577481Y-80050908D01*
X180577477Y-80050908D01*
X180546249Y-80047550D01*
X180517873Y-80044500D01*
X180517870Y-80044500D01*
X179422133Y-80044500D01*
X179422129Y-80044500D01*
X179422128Y-80044501D01*
X179414949Y-80045272D01*
X179362519Y-80050908D01*
X179362514Y-80050909D01*
X179227670Y-80101202D01*
X179112458Y-80187450D01*
X179112450Y-80187458D01*
X179026202Y-80302670D01*
X178975910Y-80437511D01*
X178975908Y-80437522D01*
X178972470Y-80469504D01*
X178970541Y-80487450D01*
X178969500Y-80497129D01*
X178969500Y-81392866D01*
X178969500Y-81392869D01*
X178969501Y-81392872D01*
X178971044Y-81407229D01*
X178975908Y-81452480D01*
X178975909Y-81452485D01*
X179026202Y-81587329D01*
X179112450Y-81702541D01*
X179112454Y-81702546D01*
X179112457Y-81702548D01*
X179112458Y-81702549D01*
X179227670Y-81788797D01*
X179362511Y-81839089D01*
X179362512Y-81839089D01*
X179362517Y-81839091D01*
X179422127Y-81845500D01*
X180420500Y-81845499D01*
X180478691Y-81864406D01*
X180514655Y-81913906D01*
X180519500Y-81944499D01*
X180519500Y-82392866D01*
X180519501Y-82392870D01*
X180525908Y-82452480D01*
X180525909Y-82452485D01*
X180576202Y-82587329D01*
X180662450Y-82702541D01*
X180662454Y-82702546D01*
X180662457Y-82702548D01*
X180662458Y-82702549D01*
X180691042Y-82723947D01*
X180726295Y-82773955D01*
X180725421Y-82835135D01*
X180688754Y-82884116D01*
X180631713Y-82902200D01*
X177198412Y-82902200D01*
X177140221Y-82883293D01*
X177104257Y-82833793D01*
X177104257Y-82772607D01*
X177110202Y-82758255D01*
X177126895Y-82725493D01*
X177155930Y-82668508D01*
X177222898Y-82462401D01*
X177224469Y-82452483D01*
X177256800Y-82248359D01*
X177256800Y-82031640D01*
X177222899Y-81817603D01*
X177217075Y-81799679D01*
X177155930Y-81611492D01*
X177057545Y-81418400D01*
X176930164Y-81243075D01*
X176776925Y-81089836D01*
X176601600Y-80962455D01*
X176601599Y-80962454D01*
X176601597Y-80962453D01*
X176408508Y-80864070D01*
X176202396Y-80797100D01*
X175988359Y-80763200D01*
X175988356Y-80763200D01*
X175771644Y-80763200D01*
X175771641Y-80763200D01*
X175557603Y-80797100D01*
X175351491Y-80864070D01*
X175158402Y-80962453D01*
X174983076Y-81089835D01*
X174829835Y-81243076D01*
X174702453Y-81418402D01*
X174604070Y-81611491D01*
X174537100Y-81817603D01*
X174503200Y-82031640D01*
X174503200Y-82248359D01*
X174537100Y-82462396D01*
X174582017Y-82600636D01*
X174604070Y-82668508D01*
X174688970Y-82835135D01*
X174699375Y-82855555D01*
X174708946Y-82915987D01*
X174681169Y-82970504D01*
X174626652Y-82998281D01*
X174611165Y-82999500D01*
X173199500Y-82999500D01*
X173141309Y-82980593D01*
X173105345Y-82931093D01*
X173100500Y-82900500D01*
X173100500Y-82418406D01*
X173099649Y-82415231D01*
X173099647Y-82415226D01*
X173093656Y-82392866D01*
X173078629Y-82336785D01*
X173059577Y-82265681D01*
X172980520Y-82128749D01*
X172879447Y-82027676D01*
X172851672Y-81973162D01*
X172850453Y-81957675D01*
X172850453Y-81912199D01*
X172850453Y-81912198D01*
X172835640Y-81799682D01*
X172777651Y-81659685D01*
X172685404Y-81539467D01*
X172685399Y-81539463D01*
X172685398Y-81539462D01*
X172573318Y-81453460D01*
X172538662Y-81403035D01*
X172540264Y-81341871D01*
X172573318Y-81296376D01*
X172617862Y-81262196D01*
X172685404Y-81210369D01*
X172777651Y-81090151D01*
X172835640Y-80950154D01*
X172850453Y-80837638D01*
X172850453Y-80612198D01*
X172835640Y-80499682D01*
X172777651Y-80359685D01*
X172685404Y-80239467D01*
X172565186Y-80147220D01*
X172425189Y-80089231D01*
X172425187Y-80089230D01*
X172425185Y-80089230D01*
X172312673Y-80074418D01*
X171747171Y-80074418D01*
X171712575Y-80068176D01*
X171612441Y-80030828D01*
X171612436Y-80030827D01*
X171612434Y-80030826D01*
X171612430Y-80030826D01*
X171581202Y-80027468D01*
X171552826Y-80024418D01*
X171552823Y-80024418D01*
X170447086Y-80024418D01*
X170447082Y-80024418D01*
X170447081Y-80024419D01*
X170432178Y-80026021D01*
X170387467Y-80030827D01*
X170287330Y-80068176D01*
X170252734Y-80074418D01*
X170099500Y-80074418D01*
X170041309Y-80055511D01*
X170005345Y-80006011D01*
X170000500Y-79975418D01*
X170000500Y-79571652D01*
X170019117Y-79514352D01*
X170019087Y-79514332D01*
X170019159Y-79514224D01*
X170019407Y-79513461D01*
X170021343Y-79510955D01*
X170021786Y-79510291D01*
X170021789Y-79510289D01*
X170109394Y-79379179D01*
X170169737Y-79233497D01*
X170200500Y-79078842D01*
X170200500Y-78921158D01*
X170169737Y-78766503D01*
X170109394Y-78620821D01*
X170109393Y-78620819D01*
X170109390Y-78620814D01*
X170074017Y-78567876D01*
X170021789Y-78489711D01*
X169910289Y-78378211D01*
X169840853Y-78331815D01*
X169802974Y-78283765D01*
X169800572Y-78222627D01*
X169834565Y-78171753D01*
X169891969Y-78150576D01*
X169895855Y-78150500D01*
X178875050Y-78150500D01*
X178933241Y-78169407D01*
G37*
%TD.AperFunction*%
%TD*%
M02*
