%TF.GenerationSoftware,KiCad,Pcbnew,9.0.5*%
%TF.CreationDate,2025-10-27T23:23:53+01:00*%
%TF.ProjectId,mouse,6d6f7573-652e-46b6-9963-61645f706362,rev?*%
%TF.SameCoordinates,Original*%
%TF.FileFunction,Copper,L2,Bot*%
%TF.FilePolarity,Positive*%
%FSLAX46Y46*%
G04 Gerber Fmt 4.6, Leading zero omitted, Abs format (unit mm)*
G04 Created by KiCad (PCBNEW 9.0.5) date 2025-10-27 23:23:53*
%MOMM*%
%LPD*%
G01*
G04 APERTURE LIST*
%TA.AperFunction,ComponentPad*%
%ADD10C,1.200000*%
%TD*%
%TA.AperFunction,ComponentPad*%
%ADD11R,1.200000X1.200000*%
%TD*%
%TA.AperFunction,ComponentPad*%
%ADD12R,1.700000X1.700000*%
%TD*%
%TA.AperFunction,ComponentPad*%
%ADD13C,1.700000*%
%TD*%
%TA.AperFunction,ComponentPad*%
%ADD14C,1.752600*%
%TD*%
%TA.AperFunction,ViaPad*%
%ADD15C,0.600000*%
%TD*%
%TA.AperFunction,Conductor*%
%ADD16C,0.200000*%
%TD*%
G04 APERTURE END LIST*
D10*
%TO.P,OpticalSensor1,1,NC*%
%TO.N,unconnected-(OpticalSensor1-NC-Pad1)*%
X188950000Y-100420001D03*
%TO.P,OpticalSensor1,2,NC*%
%TO.N,unconnected-(OpticalSensor1-NC-Pad2)*%
X188950000Y-98640001D03*
D11*
%TO.P,OpticalSensor1,3,GND*%
%TO.N,GND*%
X188950000Y-96860001D03*
D10*
%TO.P,OpticalSensor1,4,VDD*%
%TO.N,1.9v*%
X188950000Y-95080001D03*
%TO.P,OpticalSensor1,5,VDDREG*%
%TO.N,Net-(OpticalSensor1-VDDREG)*%
X188950000Y-93300001D03*
%TO.P,OpticalSensor1,6,NC*%
%TO.N,unconnected-(OpticalSensor1-NC-Pad6)*%
X188950000Y-91520001D03*
%TO.P,OpticalSensor1,7,VDDIO*%
%TO.N,+3.3V*%
X188950000Y-89740002D03*
D11*
%TO.P,OpticalSensor1,8,GNDIO*%
%TO.N,GND*%
X188950000Y-87960002D03*
D10*
%TO.P,OpticalSensor1,9,MOTION*%
%TO.N,MOTION*%
X178250000Y-87070001D03*
%TO.P,OpticalSensor1,10,SCLK*%
%TO.N,SCK*%
X178250000Y-88850001D03*
%TO.P,OpticalSensor1,11,MOSI*%
%TO.N,MISO*%
X178250000Y-90630001D03*
%TO.P,OpticalSensor1,12,MISO*%
%TO.N,MOSI*%
X178250000Y-92410001D03*
%TO.P,OpticalSensor1,13,NCS*%
%TO.N,CS 1*%
X178250000Y-94190001D03*
%TO.P,OpticalSensor1,14,NRESET*%
%TO.N,NRESET*%
X178250000Y-95970001D03*
%TO.P,OpticalSensor1,15,LED_P*%
%TO.N,Net-(OpticalSensor1-LED_P)*%
X178250000Y-97750000D03*
%TO.P,OpticalSensor1,16,NC*%
%TO.N,unconnected-(OpticalSensor1-NC-Pad16)*%
X178249999Y-99530001D03*
%TD*%
D12*
%TO.P,J1,1,Pin_1*%
%TO.N,+3.3V*%
X165100000Y-87200000D03*
D13*
%TO.P,J1,2,Pin_2*%
%TO.N,SDA*%
X165100000Y-89740000D03*
%TO.P,J1,3,Pin_3*%
%TO.N,SCL*%
X165100000Y-92280000D03*
%TO.P,J1,4,Pin_4*%
%TO.N,INT*%
X165100000Y-94820000D03*
%TO.P,J1,5,Pin_5*%
%TO.N,GND*%
X165100000Y-97360000D03*
%TD*%
D14*
%TO.P,U2,1,TX0/P0.06*%
%TO.N,unconnected-(U2-TX0{slash}P0.06-Pad1)*%
X175880000Y-82140000D03*
%TO.P,U2,2,RX1/P0.08*%
%TO.N,unconnected-(U2-RX1{slash}P0.08-Pad2)*%
X175880000Y-84680000D03*
%TO.P,U2,3,GND*%
%TO.N,GND*%
X175880000Y-87220000D03*
%TO.P,U2,4,GND*%
X175880000Y-89760000D03*
%TO.P,U2,5,P0.17*%
%TO.N,SCK*%
X175880000Y-92300000D03*
%TO.P,U2,6,P0.20*%
%TO.N,MISO*%
X175880000Y-94840000D03*
%TO.P,U2,7,P0.22*%
%TO.N,MOSI*%
X175880000Y-97380000D03*
%TO.P,U2,8,P0.24*%
%TO.N,CS 1*%
X175880000Y-99920000D03*
%TO.P,U2,9,P1.00*%
%TO.N,SDA*%
X175880000Y-102460000D03*
%TO.P,U2,10,P0.11*%
%TO.N,SCL*%
X175880000Y-105000000D03*
%TO.P,U2,11,P1.04*%
%TO.N,CS 2*%
X175880000Y-107540000D03*
%TO.P,U2,12,P1.06*%
%TO.N,MOTION*%
X175880000Y-110080000D03*
%TO.P,U2,13,NFC1/P0.09*%
%TO.N,CS 3*%
X191120000Y-110080000D03*
%TO.P,U2,14,NFC2/P0.10*%
%TO.N,NRESET*%
X191120000Y-107540000D03*
%TO.P,U2,15,P1.11*%
%TO.N,INT*%
X191120000Y-105000000D03*
%TO.P,U2,16,P1.13*%
%TO.N,EN_LDO*%
X191120000Y-102460000D03*
%TO.P,U2,17,P1.15*%
%TO.N,Left_control*%
X191120000Y-99920000D03*
%TO.P,U2,18,AIN0/P0.02*%
%TO.N,Left_click*%
X191120000Y-97380000D03*
%TO.P,U2,19,AIN5/P0.29*%
%TO.N,Right_click*%
X191120000Y-94840000D03*
%TO.P,U2,20,AIN7/P0.31*%
%TO.N,Alert*%
X191120000Y-92300000D03*
%TO.P,U2,21,VCC*%
%TO.N,+3.3V*%
X191120000Y-89760000D03*
%TO.P,U2,22,RST*%
%TO.N,Net-(U2-RST)*%
X191120000Y-87220000D03*
%TO.P,U2,23,GND*%
%TO.N,GND*%
X191120000Y-84680000D03*
%TO.P,U2,24,BATIN/P0.04*%
%TO.N,Interruptor*%
X191120000Y-82140000D03*
%TO.P,U2,31,P1.01*%
%TO.N,unconnected-(U2-P1.01-Pad31)*%
X178420000Y-105000000D03*
%TO.P,U2,32,P1.02*%
%TO.N,unconnected-(U2-P1.02-Pad32)*%
X180960000Y-105000000D03*
%TO.P,U2,33,P1.07*%
%TO.N,unconnected-(U2-P1.07-Pad33)*%
X183500000Y-105000000D03*
%TD*%
D15*
%TO.N,GND*%
X178050000Y-82200000D03*
X196200000Y-99900000D03*
X191250000Y-114950000D03*
X204000000Y-121850000D03*
X198850000Y-120450000D03*
X202550000Y-105850000D03*
X202050000Y-89350000D03*
%TO.N,EN_LDO*%
X200600000Y-88200000D03*
X200550000Y-100900000D03*
%TO.N,GND*%
X205700000Y-105500000D03*
X163200000Y-101200000D03*
X174500000Y-120400000D03*
X196800000Y-97900000D03*
%TO.N,Right_click*%
X193250000Y-83700000D03*
%TO.N,1.9v*%
X195000000Y-83000000D03*
X193651000Y-95000000D03*
X170800000Y-83600000D03*
X169000000Y-95200000D03*
%TO.N,+3.3V*%
X201400000Y-121700000D03*
X163625000Y-121700000D03*
X193700000Y-107200000D03*
X193700000Y-103800000D03*
X198650000Y-87300000D03*
%TO.N,Left_control*%
X197000000Y-83250000D03*
X172500000Y-83600000D03*
%TO.N,Left_click*%
X169400000Y-79000000D03*
%TO.N,SCK*%
X169500000Y-118600000D03*
X167300000Y-100700000D03*
X166900000Y-116000000D03*
%TO.N,SDA*%
X170200000Y-98350000D03*
X189300000Y-106800000D03*
%TO.N,MOSI*%
X167800000Y-99882068D03*
X172750000Y-97750000D03*
%TO.N,SCL*%
X169600000Y-99240000D03*
%TO.N,MISO*%
X166600000Y-117400000D03*
X167800000Y-98975735D03*
X164400000Y-117400000D03*
%TO.N,CS 2*%
X163675000Y-107600000D03*
%TO.N,Battery*%
X183875000Y-115975000D03*
X199500000Y-83700000D03*
%TD*%
D16*
%TO.N,EN_LDO*%
X200550000Y-88250000D02*
X200600000Y-88200000D01*
X200550000Y-100900000D02*
X200550000Y-88250000D01*
%TO.N,+3.3V*%
X198650000Y-95000000D02*
X193700000Y-99950000D01*
X198650000Y-87300000D02*
X198650000Y-95000000D01*
X193700000Y-99950000D02*
X193700000Y-103800000D01*
%TO.N,Right_click*%
X193250000Y-92710000D02*
X191120000Y-94840000D01*
X193250000Y-83700000D02*
X193250000Y-92710000D01*
%TO.N,1.9v*%
X171401000Y-82999000D02*
X170800000Y-83600000D01*
X195000000Y-83000000D02*
X193100057Y-83000000D01*
X193100057Y-83000000D02*
X192700057Y-83400000D01*
X172748943Y-82999000D02*
X171401000Y-82999000D01*
X191607654Y-96017300D02*
X189887299Y-96017300D01*
X192624954Y-95000000D02*
X191607654Y-96017300D01*
X193651000Y-89599000D02*
X193651000Y-95000000D01*
X169000000Y-88300000D02*
X170800000Y-86500000D01*
X189887299Y-96017300D02*
X188950000Y-95080001D01*
X169000000Y-95200000D02*
X169000000Y-88300000D01*
X192700057Y-83400000D02*
X173149943Y-83400000D01*
X170800000Y-86500000D02*
X170800000Y-83600000D01*
X173149943Y-83400000D02*
X172748943Y-82999000D01*
X195000000Y-83000000D02*
X195000000Y-88250000D01*
X195000000Y-88250000D02*
X193651000Y-89599000D01*
X193651000Y-95000000D02*
X192624954Y-95000000D01*
%TO.N,+3.3V*%
X193700000Y-103800000D02*
X193700000Y-107200000D01*
X163625000Y-121700000D02*
X201400000Y-121700000D01*
%TO.N,Left_control*%
X191120000Y-100380000D02*
X191120000Y-99920000D01*
X197000000Y-83250000D02*
X196750000Y-83500000D01*
X196750000Y-83500000D02*
X196750000Y-94290000D01*
X196750000Y-94290000D02*
X191120000Y-99920000D01*
%TO.N,Left_click*%
X169400000Y-79000000D02*
X194400000Y-79000000D01*
X192120943Y-97380000D02*
X191120000Y-97380000D01*
X195800000Y-93700943D02*
X192120943Y-97380000D01*
X194400000Y-79000000D02*
X195800000Y-80400000D01*
X195800000Y-80400000D02*
X195800000Y-93700943D01*
%TO.N,SCK*%
X167200000Y-100600000D02*
X167200000Y-98700000D01*
X167200000Y-98700000D02*
X173600000Y-92300000D01*
X167300000Y-100700000D02*
X167200000Y-100600000D01*
X173600000Y-92300000D02*
X175880000Y-92300000D01*
X169500000Y-118600000D02*
X166900000Y-116000000D01*
%TO.N,SDA*%
X187799000Y-106800000D02*
X187199000Y-106200000D01*
X177955046Y-106200000D02*
X177057300Y-105302254D01*
X187199000Y-106200000D02*
X177955046Y-106200000D01*
X171770000Y-98350000D02*
X175880000Y-102460000D01*
X170200000Y-98350000D02*
X171770000Y-98350000D01*
X189300000Y-106800000D02*
X187799000Y-106800000D01*
X177057300Y-103637300D02*
X175880000Y-102460000D01*
X177057300Y-105302254D02*
X177057300Y-103637300D01*
%TO.N,MOSI*%
X169950000Y-97750000D02*
X172750000Y-97750000D01*
X167800000Y-99882068D02*
X167817932Y-99882068D01*
X167817932Y-99882068D02*
X169950000Y-97750000D01*
%TO.N,SCL*%
X170120000Y-99240000D02*
X175880000Y-105000000D01*
X169600000Y-99240000D02*
X170120000Y-99240000D01*
%TO.N,MISO*%
X172060000Y-94840000D02*
X175880000Y-94840000D01*
X164400000Y-117400000D02*
X166600000Y-117400000D01*
X167924265Y-98975735D02*
X172060000Y-94840000D01*
X167800000Y-98975735D02*
X167924265Y-98975735D01*
%TO.N,MOTION*%
X166700000Y-98500000D02*
X166700000Y-106200000D01*
X177057300Y-108902700D02*
X175880000Y-110080000D01*
X178250000Y-87070001D02*
X176820001Y-88500000D01*
X174450000Y-89525046D02*
X174450000Y-90750000D01*
X175475046Y-88500000D02*
X174450000Y-89525046D01*
X166700000Y-106200000D02*
X166537300Y-106362700D01*
X176820001Y-88500000D02*
X175475046Y-88500000D01*
X174450000Y-90750000D02*
X166700000Y-98500000D01*
X177057300Y-107052346D02*
X177057300Y-108902700D01*
X176367654Y-106362700D02*
X177057300Y-107052346D01*
X166537300Y-106362700D02*
X176367654Y-106362700D01*
%TO.N,NRESET*%
X177349000Y-96871001D02*
X177349000Y-101171198D01*
X178250000Y-95970001D02*
X177349000Y-96871001D01*
X177349000Y-101599000D02*
X177349000Y-101171198D01*
X179572700Y-103822700D02*
X177349000Y-101599000D01*
X191120000Y-107540000D02*
X187402700Y-103822700D01*
X187402700Y-103822700D02*
X179572700Y-103822700D01*
%TO.N,INT*%
X166299000Y-103901000D02*
X163024000Y-107176000D01*
X166299000Y-98333900D02*
X166299000Y-103901000D01*
X192297300Y-106177300D02*
X191120000Y-105000000D01*
X191607654Y-108717300D02*
X192297300Y-108027654D01*
X163900000Y-111300000D02*
X188049646Y-111300000D01*
X163024000Y-110424000D02*
X163900000Y-111300000D01*
X167520000Y-94820000D02*
X167800000Y-95100000D01*
X190632346Y-108717300D02*
X191607654Y-108717300D01*
X188049646Y-111300000D02*
X190632346Y-108717300D01*
X167800000Y-96832900D02*
X166299000Y-98333900D01*
X192297300Y-108027654D02*
X192297300Y-106177300D01*
X163024000Y-107176000D02*
X163024000Y-110424000D01*
X165100000Y-94820000D02*
X167520000Y-94820000D01*
X167800000Y-95100000D02*
X167800000Y-96832900D01*
%TO.N,CS 1*%
X174702700Y-98742700D02*
X174702700Y-96892346D01*
X176289001Y-96151000D02*
X178250000Y-94190001D01*
X174702700Y-96892346D02*
X175444046Y-96151000D01*
X175444046Y-96151000D02*
X176289001Y-96151000D01*
X175880000Y-99920000D02*
X174702700Y-98742700D01*
%TO.N,CS 2*%
X163675000Y-107600000D02*
X163735000Y-107540000D01*
X163735000Y-107540000D02*
X175880000Y-107540000D01*
%TO.N,Battery*%
X199500000Y-104200000D02*
X199500000Y-83700000D01*
X187725000Y-115975000D02*
X199500000Y-104200000D01*
X183875000Y-115975000D02*
X187725000Y-115975000D01*
%TD*%
%TA.AperFunction,Conductor*%
%TO.N,GND*%
G36*
X168962336Y-78169407D02*
G01*
X168998300Y-78218907D01*
X168998300Y-78280093D01*
X168962336Y-78329593D01*
X168959147Y-78331815D01*
X168889711Y-78378211D01*
X168889707Y-78378214D01*
X168778214Y-78489707D01*
X168778211Y-78489711D01*
X168690609Y-78620814D01*
X168690603Y-78620825D01*
X168630263Y-78766501D01*
X168630263Y-78766503D01*
X168599500Y-78921155D01*
X168599500Y-79078844D01*
X168630263Y-79233496D01*
X168630263Y-79233498D01*
X168690603Y-79379174D01*
X168690609Y-79379185D01*
X168737593Y-79449500D01*
X168778211Y-79510289D01*
X168889711Y-79621789D01*
X168960228Y-79668907D01*
X169020814Y-79709390D01*
X169020825Y-79709396D01*
X169043563Y-79718814D01*
X169166503Y-79769737D01*
X169321158Y-79800500D01*
X169321159Y-79800500D01*
X169478841Y-79800500D01*
X169478842Y-79800500D01*
X169633497Y-79769737D01*
X169779179Y-79709394D01*
X169910289Y-79621789D01*
X169910290Y-79621787D01*
X169914332Y-79619087D01*
X169915251Y-79620463D01*
X169965832Y-79600671D01*
X169971652Y-79600500D01*
X181333778Y-79600500D01*
X181391969Y-79619407D01*
X181427933Y-79668907D01*
X181430876Y-79718814D01*
X181419500Y-79776003D01*
X181419500Y-79913995D01*
X181446420Y-80049327D01*
X181446420Y-80049329D01*
X181499222Y-80176806D01*
X181499228Y-80176817D01*
X181575885Y-80291541D01*
X181673458Y-80389114D01*
X181788182Y-80465771D01*
X181788193Y-80465777D01*
X181820262Y-80479060D01*
X181915672Y-80518580D01*
X182051007Y-80545500D01*
X182051008Y-80545500D01*
X182188992Y-80545500D01*
X182188993Y-80545500D01*
X182324328Y-80518580D01*
X182451811Y-80465775D01*
X182566542Y-80389114D01*
X182664114Y-80291542D01*
X182740775Y-80176811D01*
X182793580Y-80049328D01*
X182820500Y-79913993D01*
X182820500Y-79776007D01*
X182809124Y-79718814D01*
X182816316Y-79658052D01*
X182857849Y-79613123D01*
X182906222Y-79600500D01*
X184333778Y-79600500D01*
X184391969Y-79619407D01*
X184427933Y-79668907D01*
X184430876Y-79718814D01*
X184419500Y-79776003D01*
X184419500Y-79913995D01*
X184446420Y-80049327D01*
X184446420Y-80049329D01*
X184499222Y-80176806D01*
X184499228Y-80176817D01*
X184575885Y-80291541D01*
X184673458Y-80389114D01*
X184788182Y-80465771D01*
X184788193Y-80465777D01*
X184820262Y-80479060D01*
X184915672Y-80518580D01*
X185051007Y-80545500D01*
X185051008Y-80545500D01*
X185188992Y-80545500D01*
X185188993Y-80545500D01*
X185324328Y-80518580D01*
X185451811Y-80465775D01*
X185566542Y-80389114D01*
X185664114Y-80291542D01*
X185740775Y-80176811D01*
X185793580Y-80049328D01*
X185820500Y-79913993D01*
X185820500Y-79776007D01*
X185809124Y-79718814D01*
X185816316Y-79658052D01*
X185857849Y-79613123D01*
X185906222Y-79600500D01*
X194110257Y-79600500D01*
X194168448Y-79619407D01*
X194180261Y-79629496D01*
X195170504Y-80619739D01*
X195198281Y-80674256D01*
X195199500Y-80689743D01*
X195199500Y-82102868D01*
X195180593Y-82161059D01*
X195131093Y-82197023D01*
X195083702Y-82199817D01*
X195083687Y-82199977D01*
X195082680Y-82199877D01*
X195081187Y-82199966D01*
X195078846Y-82199500D01*
X195078842Y-82199500D01*
X194921158Y-82199500D01*
X194921155Y-82199500D01*
X194766503Y-82230263D01*
X194766501Y-82230263D01*
X194620825Y-82290603D01*
X194620814Y-82290609D01*
X194519073Y-82358591D01*
X194489711Y-82378211D01*
X194489709Y-82378212D01*
X194485668Y-82380913D01*
X194484748Y-82379536D01*
X194434168Y-82399329D01*
X194428348Y-82399500D01*
X193020999Y-82399500D01*
X192980075Y-82410465D01*
X192980074Y-82410464D01*
X192868276Y-82440421D01*
X192868275Y-82440421D01*
X192799267Y-82480263D01*
X192733074Y-82518480D01*
X192731338Y-82519482D01*
X192619536Y-82631284D01*
X192619533Y-82631288D01*
X192597807Y-82653013D01*
X192543290Y-82680790D01*
X192482858Y-82671217D01*
X192439594Y-82627951D01*
X192430024Y-82567519D01*
X192433651Y-82552415D01*
X192462898Y-82462402D01*
X192496800Y-82248359D01*
X192496800Y-82031640D01*
X192462899Y-81817603D01*
X192412271Y-81661786D01*
X192395930Y-81611492D01*
X192297545Y-81418400D01*
X192170164Y-81243075D01*
X192016925Y-81089836D01*
X191841600Y-80962455D01*
X191841599Y-80962454D01*
X191841597Y-80962453D01*
X191648508Y-80864070D01*
X191442396Y-80797100D01*
X191228359Y-80763200D01*
X191228356Y-80763200D01*
X191011644Y-80763200D01*
X191011641Y-80763200D01*
X190797603Y-80797100D01*
X190591491Y-80864070D01*
X190398402Y-80962453D01*
X190223076Y-81089835D01*
X190069835Y-81243076D01*
X189942453Y-81418402D01*
X189844070Y-81611491D01*
X189777100Y-81817603D01*
X189743200Y-82031640D01*
X189743200Y-82248359D01*
X189777100Y-82462396D01*
X189798896Y-82529476D01*
X189839035Y-82653013D01*
X189844525Y-82669907D01*
X189844525Y-82731093D01*
X189808561Y-82780593D01*
X189750370Y-82799500D01*
X177249630Y-82799500D01*
X177191439Y-82780593D01*
X177155475Y-82731093D01*
X177155475Y-82669907D01*
X177155930Y-82668508D01*
X177222898Y-82462401D01*
X177222899Y-82462396D01*
X177256800Y-82248359D01*
X177256800Y-82031640D01*
X177222899Y-81817603D01*
X177172271Y-81661786D01*
X177155930Y-81611492D01*
X177057545Y-81418400D01*
X176930164Y-81243075D01*
X176776925Y-81089836D01*
X176601600Y-80962455D01*
X176601599Y-80962454D01*
X176601597Y-80962453D01*
X176408508Y-80864070D01*
X176202396Y-80797100D01*
X175988359Y-80763200D01*
X175988356Y-80763200D01*
X175771644Y-80763200D01*
X175771641Y-80763200D01*
X175557603Y-80797100D01*
X175351491Y-80864070D01*
X175158402Y-80962453D01*
X174983076Y-81089835D01*
X174829835Y-81243076D01*
X174702453Y-81418402D01*
X174604070Y-81611491D01*
X174537100Y-81817603D01*
X174503200Y-82031640D01*
X174503200Y-82248359D01*
X174537100Y-82462396D01*
X174558896Y-82529476D01*
X174599035Y-82653013D01*
X174604525Y-82669907D01*
X174604525Y-82731093D01*
X174568561Y-82780593D01*
X174510370Y-82799500D01*
X173439687Y-82799500D01*
X173381496Y-82780593D01*
X173369683Y-82770504D01*
X173229463Y-82630284D01*
X173229463Y-82630283D01*
X173117661Y-82518482D01*
X173117659Y-82518480D01*
X173030847Y-82468360D01*
X173030846Y-82468359D01*
X172982460Y-82440423D01*
X172980728Y-82439423D01*
X172828000Y-82398499D01*
X172669886Y-82398499D01*
X172663823Y-82398499D01*
X172663807Y-82398500D01*
X171321942Y-82398500D01*
X171281018Y-82409465D01*
X171281017Y-82409464D01*
X171169219Y-82439421D01*
X171169218Y-82439421D01*
X171032281Y-82518482D01*
X170920487Y-82630275D01*
X170920481Y-82630283D01*
X170920480Y-82630284D01*
X170920478Y-82630286D01*
X170833343Y-82717422D01*
X170779602Y-82771163D01*
X170725920Y-82798514D01*
X170725928Y-82798551D01*
X170725797Y-82798576D01*
X170725085Y-82798940D01*
X170721947Y-82799342D01*
X170566503Y-82830263D01*
X170566501Y-82830263D01*
X170420825Y-82890603D01*
X170420814Y-82890609D01*
X170289711Y-82978211D01*
X170289707Y-82978214D01*
X170178214Y-83089707D01*
X170178211Y-83089711D01*
X170090609Y-83220814D01*
X170090603Y-83220825D01*
X170030263Y-83366501D01*
X170030263Y-83366503D01*
X169999500Y-83521155D01*
X169999500Y-83678844D01*
X170030263Y-83833496D01*
X170030263Y-83833498D01*
X170090603Y-83979174D01*
X170090609Y-83979185D01*
X170134251Y-84044498D01*
X170178211Y-84110289D01*
X170178212Y-84110290D01*
X170180913Y-84114332D01*
X170179536Y-84115251D01*
X170199329Y-84165832D01*
X170199500Y-84171652D01*
X170199500Y-86210256D01*
X170180593Y-86268447D01*
X170170504Y-86280260D01*
X168631284Y-87819480D01*
X168631283Y-87819479D01*
X168519480Y-87931283D01*
X168513526Y-87941597D01*
X168493006Y-87977139D01*
X168479077Y-88001265D01*
X168440424Y-88068211D01*
X168440423Y-88068215D01*
X168399499Y-88220943D01*
X168399499Y-88220945D01*
X168399499Y-88387031D01*
X168399500Y-88387044D01*
X168399500Y-94611257D01*
X168380593Y-94669448D01*
X168331093Y-94705412D01*
X168269907Y-94705412D01*
X168230497Y-94681261D01*
X168014445Y-94465210D01*
X168000520Y-94451285D01*
X168000520Y-94451284D01*
X167888716Y-94339480D01*
X167801904Y-94289360D01*
X167801903Y-94289359D01*
X167751788Y-94260425D01*
X167751785Y-94260423D01*
X167599057Y-94219499D01*
X167440943Y-94219499D01*
X167434880Y-94219499D01*
X167434864Y-94219500D01*
X166370399Y-94219500D01*
X166312208Y-94200593D01*
X166282189Y-94165445D01*
X166255051Y-94112184D01*
X166255049Y-94112180D01*
X166130108Y-93940213D01*
X166130106Y-93940211D01*
X166130104Y-93940208D01*
X165979792Y-93789896D01*
X165979788Y-93789893D01*
X165979786Y-93789891D01*
X165807819Y-93664950D01*
X165807815Y-93664948D01*
X165776904Y-93649198D01*
X165755336Y-93638209D01*
X165712073Y-93594946D01*
X165702501Y-93534514D01*
X165730278Y-93479997D01*
X165755335Y-93461791D01*
X165807816Y-93435051D01*
X165979792Y-93310104D01*
X166130104Y-93159792D01*
X166255051Y-92987816D01*
X166351557Y-92798412D01*
X166417246Y-92596243D01*
X166417247Y-92596238D01*
X166450500Y-92386290D01*
X166450500Y-92173709D01*
X166417247Y-91963761D01*
X166417246Y-91963757D01*
X166351557Y-91761588D01*
X166255051Y-91572184D01*
X166255049Y-91572180D01*
X166130108Y-91400213D01*
X166130106Y-91400211D01*
X166130104Y-91400208D01*
X165979792Y-91249896D01*
X165979788Y-91249893D01*
X165979786Y-91249891D01*
X165807819Y-91124950D01*
X165807815Y-91124948D01*
X165776904Y-91109198D01*
X165755336Y-91098209D01*
X165712073Y-91054946D01*
X165702501Y-90994514D01*
X165730278Y-90939997D01*
X165755335Y-90921791D01*
X165807816Y-90895051D01*
X165979792Y-90770104D01*
X166130104Y-90619792D01*
X166248429Y-90456930D01*
X166255049Y-90447819D01*
X166255051Y-90447816D01*
X166351557Y-90258412D01*
X166417246Y-90056243D01*
X166417749Y-90053068D01*
X166450500Y-89846290D01*
X166450500Y-89633709D01*
X166417247Y-89423761D01*
X166417246Y-89423757D01*
X166351557Y-89221588D01*
X166255051Y-89032184D01*
X166255049Y-89032180D01*
X166130108Y-88860213D01*
X166130106Y-88860211D01*
X166130104Y-88860208D01*
X165983938Y-88714042D01*
X165956163Y-88659528D01*
X165965734Y-88599096D01*
X166008999Y-88555831D01*
X166043364Y-88545608D01*
X166057483Y-88544091D01*
X166160983Y-88505488D01*
X166192329Y-88493797D01*
X166192329Y-88493796D01*
X166192331Y-88493796D01*
X166307546Y-88407546D01*
X166393796Y-88292331D01*
X166398827Y-88278844D01*
X166444089Y-88157488D01*
X166444090Y-88157485D01*
X166444091Y-88157483D01*
X166450500Y-88097873D01*
X166450499Y-86302128D01*
X166444091Y-86242517D01*
X166444089Y-86242511D01*
X166393797Y-86107670D01*
X166307549Y-85992458D01*
X166307548Y-85992457D01*
X166307546Y-85992454D01*
X166276885Y-85969501D01*
X166192329Y-85906202D01*
X166057488Y-85855910D01*
X166057483Y-85855909D01*
X166057481Y-85855908D01*
X166057477Y-85855908D01*
X166026249Y-85852550D01*
X165997873Y-85849500D01*
X165997870Y-85849500D01*
X164202133Y-85849500D01*
X164202129Y-85849500D01*
X164202128Y-85849501D01*
X164194949Y-85850272D01*
X164142519Y-85855908D01*
X164142514Y-85855909D01*
X164007670Y-85906202D01*
X163892458Y-85992450D01*
X163892450Y-85992458D01*
X163806202Y-86107670D01*
X163755910Y-86242511D01*
X163755908Y-86242522D01*
X163749500Y-86302129D01*
X163749500Y-88097866D01*
X163749501Y-88097870D01*
X163755908Y-88157480D01*
X163755909Y-88157485D01*
X163806202Y-88292329D01*
X163884969Y-88397548D01*
X163892454Y-88407546D01*
X163892457Y-88407548D01*
X163892458Y-88407549D01*
X164007670Y-88493797D01*
X164142511Y-88544089D01*
X164142512Y-88544089D01*
X164142517Y-88544091D01*
X164156637Y-88545609D01*
X164212473Y-88570629D01*
X164242939Y-88623689D01*
X164236399Y-88684524D01*
X164216058Y-88714045D01*
X164069897Y-88860206D01*
X164069892Y-88860212D01*
X163944950Y-89032180D01*
X163944948Y-89032184D01*
X163848443Y-89221587D01*
X163782752Y-89423761D01*
X163749500Y-89633709D01*
X163749500Y-89846290D01*
X163782752Y-90056238D01*
X163848443Y-90258412D01*
X163944948Y-90447815D01*
X163944950Y-90447819D01*
X164069891Y-90619786D01*
X164069893Y-90619788D01*
X164069896Y-90619792D01*
X164220208Y-90770104D01*
X164220211Y-90770106D01*
X164220213Y-90770108D01*
X164392180Y-90895049D01*
X164392184Y-90895051D01*
X164444662Y-90921790D01*
X164487927Y-90965055D01*
X164497498Y-91025487D01*
X164469720Y-91080004D01*
X164444662Y-91098210D01*
X164392184Y-91124948D01*
X164392180Y-91124950D01*
X164220213Y-91249891D01*
X164069891Y-91400213D01*
X163944950Y-91572180D01*
X163944948Y-91572184D01*
X163848443Y-91761587D01*
X163782752Y-91963761D01*
X163749500Y-92173709D01*
X163749500Y-92386290D01*
X163782752Y-92596238D01*
X163848443Y-92798412D01*
X163944948Y-92987815D01*
X163944950Y-92987819D01*
X164069891Y-93159786D01*
X164069893Y-93159788D01*
X164069896Y-93159792D01*
X164220208Y-93310104D01*
X164220211Y-93310106D01*
X164220213Y-93310108D01*
X164392180Y-93435049D01*
X164392184Y-93435051D01*
X164444662Y-93461790D01*
X164487927Y-93505055D01*
X164497498Y-93565487D01*
X164469720Y-93620004D01*
X164444662Y-93638210D01*
X164392184Y-93664948D01*
X164392180Y-93664950D01*
X164220213Y-93789891D01*
X164069891Y-93940213D01*
X163944950Y-94112180D01*
X163944948Y-94112184D01*
X163848443Y-94301587D01*
X163782752Y-94503761D01*
X163749500Y-94713709D01*
X163749500Y-94926290D01*
X163782752Y-95136238D01*
X163848443Y-95338412D01*
X163944948Y-95527815D01*
X163944950Y-95527819D01*
X164069891Y-95699786D01*
X164069893Y-95699788D01*
X164069896Y-95699792D01*
X164220208Y-95850104D01*
X164220211Y-95850106D01*
X164220213Y-95850108D01*
X164392180Y-95975049D01*
X164392184Y-95975051D01*
X164581588Y-96071557D01*
X164783757Y-96137246D01*
X164783758Y-96137246D01*
X164783761Y-96137247D01*
X164993710Y-96170500D01*
X164993713Y-96170500D01*
X165206290Y-96170500D01*
X165416238Y-96137247D01*
X165416239Y-96137246D01*
X165416243Y-96137246D01*
X165618412Y-96071557D01*
X165807816Y-95975051D01*
X165979792Y-95850104D01*
X166130104Y-95699792D01*
X166255051Y-95527816D01*
X166282189Y-95474555D01*
X166325454Y-95431290D01*
X166370399Y-95420500D01*
X167100500Y-95420500D01*
X167158691Y-95439407D01*
X167194655Y-95488907D01*
X167199500Y-95519500D01*
X167199500Y-96543156D01*
X167180593Y-96601347D01*
X167170504Y-96613160D01*
X165930286Y-97853378D01*
X165930284Y-97853380D01*
X165930283Y-97853379D01*
X165818479Y-97965184D01*
X165774203Y-98041873D01*
X165739425Y-98102109D01*
X165739423Y-98102113D01*
X165739423Y-98102115D01*
X165698499Y-98254843D01*
X165698499Y-98254845D01*
X165698499Y-98420931D01*
X165698500Y-98420944D01*
X165698500Y-103611256D01*
X165679593Y-103669447D01*
X165669504Y-103681260D01*
X162655284Y-106695480D01*
X162655283Y-106695479D01*
X162543479Y-106807284D01*
X162494642Y-106891873D01*
X162464425Y-106944209D01*
X162464423Y-106944213D01*
X162464423Y-106944215D01*
X162423499Y-107096943D01*
X162423499Y-107096945D01*
X162423499Y-107263031D01*
X162423500Y-107263044D01*
X162423500Y-110338863D01*
X162423499Y-110338881D01*
X162423499Y-110344943D01*
X162423499Y-110503057D01*
X162457807Y-110631093D01*
X162464424Y-110655787D01*
X162478692Y-110680499D01*
X162478693Y-110680502D01*
X162543478Y-110792713D01*
X162543480Y-110792716D01*
X162655284Y-110904520D01*
X162655286Y-110904521D01*
X163419478Y-111668713D01*
X163419480Y-111668716D01*
X163531284Y-111780520D01*
X163531286Y-111780521D01*
X163531289Y-111780524D01*
X163531288Y-111780524D01*
X163618091Y-111830637D01*
X163618093Y-111830639D01*
X163618094Y-111830639D01*
X163640916Y-111843815D01*
X163668215Y-111859577D01*
X163820943Y-111900500D01*
X163979057Y-111900500D01*
X171052503Y-111900500D01*
X171110694Y-111919407D01*
X171146658Y-111968907D01*
X171146658Y-112030093D01*
X171110694Y-112079593D01*
X171090388Y-112090964D01*
X170979795Y-112136772D01*
X170769707Y-112258066D01*
X170577268Y-112405729D01*
X170405729Y-112577268D01*
X170258066Y-112769707D01*
X170136772Y-112979795D01*
X170043948Y-113203894D01*
X170043944Y-113203907D01*
X169981161Y-113438213D01*
X169981161Y-113438218D01*
X169949500Y-113678710D01*
X169949500Y-113921289D01*
X169981161Y-114161781D01*
X169981161Y-114161786D01*
X170043944Y-114396092D01*
X170043948Y-114396105D01*
X170136772Y-114620204D01*
X170136774Y-114620208D01*
X170136776Y-114620212D01*
X170165639Y-114670204D01*
X170258066Y-114830292D01*
X170405729Y-115022731D01*
X170405731Y-115022733D01*
X170405735Y-115022738D01*
X170577262Y-115194265D01*
X170577266Y-115194268D01*
X170577268Y-115194270D01*
X170702812Y-115290603D01*
X170769711Y-115341936D01*
X170979788Y-115463224D01*
X171203900Y-115556054D01*
X171438211Y-115618838D01*
X171678712Y-115650500D01*
X171678713Y-115650500D01*
X171921287Y-115650500D01*
X171921288Y-115650500D01*
X172161789Y-115618838D01*
X172396100Y-115556054D01*
X172620212Y-115463224D01*
X172830289Y-115341936D01*
X173022738Y-115194265D01*
X173194265Y-115022738D01*
X173341936Y-114830289D01*
X173463224Y-114620212D01*
X173556054Y-114396100D01*
X173618838Y-114161789D01*
X173650500Y-113921288D01*
X173650500Y-113678712D01*
X173618838Y-113438211D01*
X173556054Y-113203900D01*
X173463224Y-112979788D01*
X173341936Y-112769711D01*
X173232636Y-112627268D01*
X173194270Y-112577268D01*
X173194268Y-112577266D01*
X173194265Y-112577262D01*
X173022738Y-112405735D01*
X173022733Y-112405731D01*
X173022731Y-112405729D01*
X172830292Y-112258066D01*
X172830289Y-112258064D01*
X172620212Y-112136776D01*
X172620208Y-112136774D01*
X172620204Y-112136772D01*
X172509612Y-112090964D01*
X172463086Y-112051228D01*
X172448802Y-111991733D01*
X172472217Y-111935205D01*
X172524385Y-111903235D01*
X172547497Y-111900500D01*
X187964510Y-111900500D01*
X187964526Y-111900501D01*
X187970589Y-111900501D01*
X188128702Y-111900501D01*
X188128703Y-111900501D01*
X188281431Y-111859577D01*
X188331550Y-111830639D01*
X188418362Y-111780520D01*
X188530166Y-111668716D01*
X188530167Y-111668713D01*
X189667619Y-110531260D01*
X189722134Y-110503485D01*
X189782566Y-110513056D01*
X189825831Y-110556321D01*
X189831775Y-110570672D01*
X189844068Y-110608504D01*
X189937926Y-110792713D01*
X189942455Y-110801600D01*
X190069836Y-110976925D01*
X190223075Y-111130164D01*
X190398400Y-111257545D01*
X190591492Y-111355930D01*
X190797599Y-111422898D01*
X190797600Y-111422898D01*
X190797603Y-111422899D01*
X191011641Y-111456800D01*
X191154956Y-111456800D01*
X191213147Y-111475707D01*
X191249111Y-111525207D01*
X191249111Y-111586393D01*
X191224960Y-111625804D01*
X187505261Y-115345504D01*
X187450744Y-115373281D01*
X187435257Y-115374500D01*
X184446652Y-115374500D01*
X184389352Y-115355882D01*
X184389332Y-115355913D01*
X184389224Y-115355840D01*
X184388461Y-115355593D01*
X184385955Y-115353656D01*
X184254185Y-115265609D01*
X184254174Y-115265603D01*
X184108497Y-115205263D01*
X183953844Y-115174500D01*
X183953842Y-115174500D01*
X183796158Y-115174500D01*
X183796155Y-115174500D01*
X183641503Y-115205263D01*
X183641501Y-115205263D01*
X183495825Y-115265603D01*
X183495814Y-115265609D01*
X183364711Y-115353211D01*
X183364707Y-115353214D01*
X183253214Y-115464707D01*
X183253211Y-115464711D01*
X183165609Y-115595814D01*
X183165603Y-115595825D01*
X183105263Y-115741501D01*
X183105263Y-115741503D01*
X183074500Y-115896155D01*
X183074500Y-116053844D01*
X183105263Y-116208496D01*
X183105263Y-116208498D01*
X183165603Y-116354174D01*
X183165609Y-116354185D01*
X183182310Y-116379179D01*
X183253211Y-116485289D01*
X183364711Y-116596789D01*
X183416157Y-116631164D01*
X183495814Y-116684390D01*
X183495825Y-116684396D01*
X183510818Y-116690606D01*
X183641503Y-116744737D01*
X183796158Y-116775500D01*
X183796159Y-116775500D01*
X183953841Y-116775500D01*
X183953842Y-116775500D01*
X184108497Y-116744737D01*
X184254179Y-116684394D01*
X184385289Y-116596789D01*
X184385290Y-116596787D01*
X184389332Y-116594087D01*
X184390251Y-116595463D01*
X184440832Y-116575671D01*
X184446652Y-116575500D01*
X187639864Y-116575500D01*
X187639880Y-116575501D01*
X187645943Y-116575501D01*
X187804055Y-116575501D01*
X187804057Y-116575501D01*
X187956785Y-116534577D01*
X187956787Y-116534575D01*
X187956789Y-116534575D01*
X187988588Y-116516215D01*
X188007535Y-116505276D01*
X188093716Y-116455520D01*
X188205520Y-116343716D01*
X188205521Y-116343713D01*
X190820522Y-113728712D01*
X193299500Y-113728712D01*
X193299500Y-113971288D01*
X193324579Y-114161789D01*
X193331161Y-114211781D01*
X193331161Y-114211786D01*
X193393944Y-114446092D01*
X193393948Y-114446105D01*
X193486772Y-114670204D01*
X193486774Y-114670208D01*
X193486776Y-114670212D01*
X193608064Y-114880289D01*
X193608066Y-114880292D01*
X193755729Y-115072731D01*
X193755731Y-115072733D01*
X193755735Y-115072738D01*
X193927262Y-115244265D01*
X193927266Y-115244268D01*
X193927268Y-115244270D01*
X194072724Y-115355882D01*
X194119711Y-115391936D01*
X194329788Y-115513224D01*
X194553900Y-115606054D01*
X194788211Y-115668838D01*
X195028712Y-115700500D01*
X195028713Y-115700500D01*
X195271287Y-115700500D01*
X195271288Y-115700500D01*
X195511789Y-115668838D01*
X195746100Y-115606054D01*
X195970212Y-115513224D01*
X196180289Y-115391936D01*
X196372738Y-115244265D01*
X196544265Y-115072738D01*
X196691936Y-114880289D01*
X196813224Y-114670212D01*
X196906054Y-114446100D01*
X196968838Y-114211789D01*
X197000500Y-113971288D01*
X197000500Y-113728712D01*
X196968838Y-113488211D01*
X196906054Y-113253900D01*
X196813224Y-113029788D01*
X196691936Y-112819711D01*
X196544265Y-112627262D01*
X196372738Y-112455735D01*
X196372733Y-112455731D01*
X196372731Y-112455729D01*
X196180292Y-112308066D01*
X196180289Y-112308064D01*
X195970212Y-112186776D01*
X195970208Y-112186774D01*
X195970204Y-112186772D01*
X195746105Y-112093948D01*
X195746104Y-112093947D01*
X195746100Y-112093946D01*
X195511789Y-112031162D01*
X195511786Y-112031161D01*
X195511784Y-112031161D01*
X195271289Y-111999500D01*
X195271288Y-111999500D01*
X195028712Y-111999500D01*
X195028710Y-111999500D01*
X194788218Y-112031161D01*
X194788213Y-112031161D01*
X194553907Y-112093944D01*
X194553894Y-112093948D01*
X194329795Y-112186772D01*
X194119707Y-112308066D01*
X193927268Y-112455729D01*
X193755729Y-112627268D01*
X193608066Y-112819707D01*
X193486772Y-113029795D01*
X193393948Y-113253894D01*
X193393944Y-113253907D01*
X193331161Y-113488213D01*
X193331161Y-113488218D01*
X193306083Y-113678712D01*
X193299500Y-113728712D01*
X190820522Y-113728712D01*
X199980520Y-104568716D01*
X200059577Y-104431784D01*
X200100501Y-104279057D01*
X200100501Y-104120942D01*
X200100501Y-104114880D01*
X200100500Y-104114862D01*
X200100500Y-101728429D01*
X200119407Y-101670238D01*
X200168907Y-101634274D01*
X200230093Y-101634274D01*
X200237365Y-101636957D01*
X200316503Y-101669737D01*
X200471158Y-101700500D01*
X200471159Y-101700500D01*
X200628841Y-101700500D01*
X200628842Y-101700500D01*
X200783497Y-101669737D01*
X200929179Y-101609394D01*
X201060289Y-101521789D01*
X201171789Y-101410289D01*
X201259394Y-101279179D01*
X201319737Y-101133497D01*
X201350500Y-100978842D01*
X201350500Y-100821158D01*
X201319737Y-100666503D01*
X201271981Y-100551209D01*
X201259396Y-100520825D01*
X201259390Y-100520814D01*
X201173556Y-100392356D01*
X201171789Y-100389711D01*
X201171787Y-100389709D01*
X201169087Y-100385668D01*
X201170459Y-100384751D01*
X201150670Y-100334146D01*
X201150500Y-100328347D01*
X201150500Y-88822586D01*
X201169407Y-88764395D01*
X201179496Y-88752582D01*
X201195079Y-88736999D01*
X201221789Y-88710289D01*
X201309394Y-88579179D01*
X201369737Y-88433497D01*
X201400500Y-88278842D01*
X201400500Y-88121158D01*
X201369737Y-87966503D01*
X201309394Y-87820821D01*
X201309393Y-87820819D01*
X201309390Y-87820814D01*
X201261076Y-87748508D01*
X201221789Y-87689711D01*
X201110289Y-87578211D01*
X201056688Y-87542396D01*
X200979185Y-87490609D01*
X200979174Y-87490603D01*
X200833497Y-87430263D01*
X200678844Y-87399500D01*
X200678842Y-87399500D01*
X200521158Y-87399500D01*
X200521155Y-87399500D01*
X200366503Y-87430263D01*
X200366501Y-87430263D01*
X200237385Y-87483744D01*
X200176388Y-87488544D01*
X200124219Y-87456575D01*
X200100805Y-87400047D01*
X200100500Y-87392280D01*
X200100500Y-84271652D01*
X200119117Y-84214352D01*
X200119087Y-84214332D01*
X200119159Y-84214224D01*
X200119407Y-84213461D01*
X200121343Y-84210955D01*
X200121786Y-84210291D01*
X200121789Y-84210289D01*
X200209394Y-84079179D01*
X200269737Y-83933497D01*
X200300500Y-83778842D01*
X200300500Y-83621158D01*
X200269737Y-83466503D01*
X200228315Y-83366501D01*
X200209396Y-83320825D01*
X200209390Y-83320814D01*
X200174017Y-83267876D01*
X200121789Y-83189711D01*
X200010289Y-83078211D01*
X199917934Y-83016501D01*
X199879185Y-82990609D01*
X199879174Y-82990603D01*
X199733497Y-82930263D01*
X199578844Y-82899500D01*
X199578842Y-82899500D01*
X199421158Y-82899500D01*
X199421155Y-82899500D01*
X199266503Y-82930263D01*
X199266501Y-82930263D01*
X199120825Y-82990603D01*
X199120814Y-82990609D01*
X198989711Y-83078211D01*
X198989707Y-83078214D01*
X198878214Y-83189707D01*
X198878211Y-83189711D01*
X198790609Y-83320814D01*
X198790603Y-83320825D01*
X198730263Y-83466501D01*
X198730263Y-83466503D01*
X198699500Y-83621155D01*
X198699500Y-83778844D01*
X198730263Y-83933496D01*
X198730263Y-83933498D01*
X198790603Y-84079174D01*
X198790609Y-84079185D01*
X198838920Y-84151486D01*
X198878211Y-84210289D01*
X198878212Y-84210290D01*
X198880913Y-84214332D01*
X198879536Y-84215251D01*
X198899329Y-84265832D01*
X198899500Y-84271652D01*
X198899500Y-86412813D01*
X198880593Y-86471004D01*
X198831093Y-86506968D01*
X198781187Y-86509911D01*
X198728847Y-86499500D01*
X198728842Y-86499500D01*
X198571158Y-86499500D01*
X198571155Y-86499500D01*
X198416503Y-86530263D01*
X198416501Y-86530263D01*
X198270825Y-86590603D01*
X198270814Y-86590609D01*
X198139711Y-86678211D01*
X198139707Y-86678214D01*
X198028214Y-86789707D01*
X198028211Y-86789711D01*
X197940609Y-86920814D01*
X197940603Y-86920825D01*
X197880263Y-87066501D01*
X197880263Y-87066503D01*
X197849500Y-87221155D01*
X197849500Y-87221158D01*
X197849500Y-87378842D01*
X197876199Y-87513068D01*
X197880263Y-87533496D01*
X197880263Y-87533498D01*
X197940603Y-87679174D01*
X197940609Y-87679185D01*
X197986929Y-87748506D01*
X198028211Y-87810289D01*
X198028212Y-87810290D01*
X198030913Y-87814332D01*
X198029536Y-87815251D01*
X198049329Y-87865832D01*
X198049500Y-87871652D01*
X198049500Y-94710256D01*
X198030593Y-94768447D01*
X198020504Y-94780260D01*
X193331284Y-99469480D01*
X193331283Y-99469479D01*
X193219482Y-99581281D01*
X193219480Y-99581283D01*
X193219480Y-99581284D01*
X193210059Y-99597603D01*
X193170399Y-99666297D01*
X193170398Y-99666298D01*
X193140424Y-99718212D01*
X193140423Y-99718214D01*
X193140423Y-99718215D01*
X193099499Y-99870943D01*
X193099499Y-99870945D01*
X193099499Y-100037031D01*
X193099500Y-100037044D01*
X193099500Y-103228347D01*
X193080882Y-103285647D01*
X193080913Y-103285668D01*
X193080840Y-103285776D01*
X193080593Y-103286538D01*
X193078655Y-103289046D01*
X192990609Y-103420814D01*
X192990603Y-103420825D01*
X192930263Y-103566501D01*
X192930263Y-103566503D01*
X192899500Y-103721155D01*
X192899500Y-103878844D01*
X192930263Y-104033496D01*
X192930263Y-104033498D01*
X192990603Y-104179174D01*
X192990609Y-104179185D01*
X193049029Y-104266615D01*
X193078211Y-104310289D01*
X193078212Y-104310290D01*
X193080913Y-104314332D01*
X193079536Y-104315251D01*
X193099329Y-104365832D01*
X193099500Y-104371652D01*
X193099500Y-106628347D01*
X193099373Y-106628736D01*
X193099497Y-106629128D01*
X193097054Y-106635872D01*
X193080877Y-106685661D01*
X193080905Y-106685680D01*
X193080840Y-106685776D01*
X193080593Y-106686538D01*
X193080131Y-106687168D01*
X193078370Y-106689551D01*
X193078211Y-106689711D01*
X193077817Y-106690300D01*
X193076431Y-106692177D01*
X193075842Y-106692597D01*
X193075145Y-106693448D01*
X193074915Y-106693259D01*
X193053335Y-106708679D01*
X193031051Y-106726242D01*
X193028625Y-106726336D01*
X193026649Y-106727749D01*
X192998272Y-106727524D01*
X192969913Y-106728635D01*
X192967893Y-106727285D01*
X192965465Y-106727266D01*
X192942637Y-106710403D01*
X192919044Y-106694634D01*
X192918203Y-106692355D01*
X192916251Y-106690913D01*
X192907693Y-106663852D01*
X192897876Y-106637227D01*
X192897800Y-106633356D01*
X192897800Y-106264345D01*
X192897801Y-106264332D01*
X192897801Y-106098242D01*
X192897800Y-106098240D01*
X192856878Y-105945519D01*
X192856878Y-105945518D01*
X192852594Y-105938098D01*
X192777820Y-105808584D01*
X192632436Y-105663200D01*
X192463795Y-105494558D01*
X192436018Y-105440042D01*
X192439644Y-105393966D01*
X192462898Y-105322401D01*
X192487177Y-105169112D01*
X192496800Y-105108359D01*
X192496800Y-104891640D01*
X192462899Y-104677603D01*
X192439645Y-104606034D01*
X192395930Y-104471492D01*
X192297545Y-104278400D01*
X192170164Y-104103075D01*
X192016925Y-103949836D01*
X191841600Y-103822455D01*
X191833269Y-103818210D01*
X191790005Y-103774947D01*
X191780431Y-103714515D01*
X191808208Y-103659998D01*
X191833268Y-103641790D01*
X191841600Y-103637545D01*
X192016925Y-103510164D01*
X192170164Y-103356925D01*
X192297545Y-103181600D01*
X192395930Y-102988508D01*
X192462898Y-102782401D01*
X192476728Y-102695083D01*
X192496800Y-102568359D01*
X192496800Y-102351640D01*
X192462899Y-102137603D01*
X192462898Y-102137599D01*
X192395930Y-101931492D01*
X192297545Y-101738400D01*
X192170164Y-101563075D01*
X192016925Y-101409836D01*
X191841600Y-101282455D01*
X191833269Y-101278210D01*
X191790005Y-101234947D01*
X191780431Y-101174515D01*
X191808208Y-101119998D01*
X191833268Y-101101790D01*
X191841600Y-101097545D01*
X192016925Y-100970164D01*
X192170164Y-100816925D01*
X192297545Y-100641600D01*
X192395930Y-100448508D01*
X192462898Y-100242401D01*
X192482987Y-100115566D01*
X192496800Y-100028359D01*
X192496800Y-99811640D01*
X192462899Y-99597603D01*
X192439645Y-99526034D01*
X192439645Y-99464848D01*
X192463794Y-99425439D01*
X197118713Y-94770521D01*
X197118716Y-94770520D01*
X197230520Y-94658716D01*
X197309577Y-94521784D01*
X197349042Y-94374499D01*
X197349043Y-94374499D01*
X197349043Y-94374493D01*
X197350500Y-94369058D01*
X197350500Y-94210943D01*
X197350500Y-84031473D01*
X197369407Y-83973282D01*
X197394498Y-83949158D01*
X197510289Y-83871789D01*
X197621789Y-83760289D01*
X197709394Y-83629179D01*
X197769737Y-83483497D01*
X197800500Y-83328842D01*
X197800500Y-83171158D01*
X197769737Y-83016503D01*
X197747668Y-82963224D01*
X197709396Y-82870825D01*
X197709390Y-82870814D01*
X197661633Y-82799342D01*
X197621789Y-82739711D01*
X197510289Y-82628211D01*
X197438659Y-82580349D01*
X197379185Y-82540609D01*
X197379174Y-82540603D01*
X197233497Y-82480263D01*
X197078844Y-82449500D01*
X197078842Y-82449500D01*
X196921158Y-82449500D01*
X196921155Y-82449500D01*
X196766503Y-82480263D01*
X196766501Y-82480263D01*
X196620825Y-82540603D01*
X196620816Y-82540608D01*
X196554501Y-82584919D01*
X196495613Y-82601527D01*
X196438210Y-82580349D01*
X196404217Y-82529476D01*
X196400500Y-82502603D01*
X196400500Y-81178710D01*
X201549500Y-81178710D01*
X201549500Y-81421289D01*
X201581161Y-81661781D01*
X201581161Y-81661786D01*
X201643944Y-81896092D01*
X201643948Y-81896105D01*
X201736772Y-82120204D01*
X201736774Y-82120208D01*
X201736776Y-82120212D01*
X201835153Y-82290606D01*
X201858066Y-82330292D01*
X202005729Y-82522731D01*
X202005731Y-82522733D01*
X202005735Y-82522738D01*
X202177262Y-82694265D01*
X202177266Y-82694268D01*
X202177268Y-82694270D01*
X202289767Y-82780593D01*
X202369711Y-82841936D01*
X202579788Y-82963224D01*
X202803900Y-83056054D01*
X203038211Y-83118838D01*
X203278712Y-83150500D01*
X203278713Y-83150500D01*
X203521287Y-83150500D01*
X203521288Y-83150500D01*
X203761789Y-83118838D01*
X203996100Y-83056054D01*
X204220212Y-82963224D01*
X204430289Y-82841936D01*
X204622738Y-82694265D01*
X204794265Y-82522738D01*
X204941936Y-82330289D01*
X205063224Y-82120212D01*
X205156054Y-81896100D01*
X205218838Y-81661789D01*
X205250500Y-81421288D01*
X205250500Y-81178712D01*
X205218838Y-80938211D01*
X205156054Y-80703900D01*
X205063224Y-80479788D01*
X204941936Y-80269711D01*
X204870656Y-80176817D01*
X204794270Y-80077268D01*
X204794268Y-80077266D01*
X204794265Y-80077262D01*
X204622738Y-79905735D01*
X204622733Y-79905731D01*
X204622731Y-79905729D01*
X204430292Y-79758066D01*
X204430289Y-79758064D01*
X204220212Y-79636776D01*
X204220208Y-79636774D01*
X204220204Y-79636772D01*
X203996105Y-79543948D01*
X203996104Y-79543947D01*
X203996100Y-79543946D01*
X203761789Y-79481162D01*
X203761786Y-79481161D01*
X203761784Y-79481161D01*
X203521289Y-79449500D01*
X203521288Y-79449500D01*
X203278712Y-79449500D01*
X203278710Y-79449500D01*
X203038218Y-79481161D01*
X203038213Y-79481161D01*
X202803907Y-79543944D01*
X202803894Y-79543948D01*
X202579795Y-79636772D01*
X202369707Y-79758066D01*
X202177268Y-79905729D01*
X202005729Y-80077268D01*
X201858066Y-80269707D01*
X201736772Y-80479795D01*
X201643948Y-80703894D01*
X201643944Y-80703907D01*
X201581161Y-80938213D01*
X201581161Y-80938218D01*
X201549500Y-81178710D01*
X196400500Y-81178710D01*
X196400500Y-80487044D01*
X196400501Y-80487031D01*
X196400501Y-80320945D01*
X196400501Y-80320943D01*
X196359577Y-80168215D01*
X196307065Y-80077262D01*
X196280520Y-80031284D01*
X196168716Y-79919480D01*
X196168713Y-79919478D01*
X194880521Y-78631286D01*
X194880520Y-78631284D01*
X194768716Y-78519480D01*
X194681904Y-78469360D01*
X194681903Y-78469359D01*
X194631788Y-78440425D01*
X194631785Y-78440423D01*
X194479057Y-78399499D01*
X194320943Y-78399499D01*
X194314880Y-78399499D01*
X194314864Y-78399500D01*
X169971652Y-78399500D01*
X169916386Y-78382638D01*
X169911281Y-78379203D01*
X169910289Y-78378211D01*
X169840780Y-78331767D01*
X169840589Y-78331638D01*
X169821820Y-78307671D01*
X169802974Y-78283765D01*
X169802967Y-78283598D01*
X169802864Y-78283466D01*
X169801766Y-78253018D01*
X169800572Y-78222627D01*
X169800665Y-78222487D01*
X169800659Y-78222320D01*
X169817600Y-78197141D01*
X169834565Y-78171753D01*
X169834723Y-78171694D01*
X169834816Y-78171557D01*
X169863288Y-78161156D01*
X169891969Y-78150576D01*
X169892270Y-78150570D01*
X169892287Y-78150564D01*
X169892305Y-78150569D01*
X169895855Y-78150500D01*
X206450500Y-78150500D01*
X206508691Y-78169407D01*
X206544655Y-78218907D01*
X206549500Y-78249500D01*
X206549500Y-122150500D01*
X206530593Y-122208691D01*
X206481093Y-122244655D01*
X206450500Y-122249500D01*
X202180806Y-122249500D01*
X202122615Y-122230593D01*
X202086651Y-122181093D01*
X202086651Y-122119907D01*
X202098490Y-122095499D01*
X202109391Y-122079184D01*
X202109392Y-122079181D01*
X202109394Y-122079179D01*
X202169737Y-121933497D01*
X202200500Y-121778842D01*
X202200500Y-121621158D01*
X202169737Y-121466503D01*
X202109394Y-121320821D01*
X202109393Y-121320819D01*
X202109390Y-121320814D01*
X202074017Y-121267876D01*
X202021789Y-121189711D01*
X201910289Y-121078211D01*
X201858059Y-121043312D01*
X201779185Y-120990609D01*
X201779174Y-120990603D01*
X201633497Y-120930263D01*
X201478844Y-120899500D01*
X201478842Y-120899500D01*
X201321158Y-120899500D01*
X201321155Y-120899500D01*
X201166503Y-120930263D01*
X201166501Y-120930263D01*
X201020825Y-120990603D01*
X201020814Y-120990609D01*
X200919073Y-121058591D01*
X200889711Y-121078211D01*
X200889709Y-121078212D01*
X200885668Y-121080913D01*
X200884748Y-121079536D01*
X200834168Y-121099329D01*
X200828348Y-121099500D01*
X164196652Y-121099500D01*
X164139352Y-121080882D01*
X164139332Y-121080913D01*
X164139224Y-121080840D01*
X164138461Y-121080593D01*
X164135955Y-121078656D01*
X164004185Y-120990609D01*
X164004174Y-120990603D01*
X163858497Y-120930263D01*
X163703844Y-120899500D01*
X163703842Y-120899500D01*
X163546158Y-120899500D01*
X163546155Y-120899500D01*
X163391503Y-120930263D01*
X163391501Y-120930263D01*
X163245825Y-120990603D01*
X163245814Y-120990609D01*
X163114711Y-121078211D01*
X163114707Y-121078214D01*
X163003214Y-121189707D01*
X163003211Y-121189711D01*
X162915609Y-121320814D01*
X162915603Y-121320825D01*
X162855263Y-121466501D01*
X162855263Y-121466503D01*
X162824500Y-121621155D01*
X162824500Y-121778844D01*
X162855263Y-121933496D01*
X162855263Y-121933498D01*
X162915603Y-122079174D01*
X162915608Y-122079184D01*
X162926510Y-122095499D01*
X162943118Y-122154387D01*
X162921940Y-122211791D01*
X162871066Y-122245783D01*
X162844194Y-122249500D01*
X160549500Y-122249500D01*
X160491309Y-122230593D01*
X160455345Y-122181093D01*
X160450500Y-122150500D01*
X160450500Y-117321155D01*
X163599500Y-117321155D01*
X163599500Y-117478844D01*
X163630263Y-117633496D01*
X163630263Y-117633498D01*
X163690603Y-117779174D01*
X163690609Y-117779185D01*
X163724739Y-117830263D01*
X163778211Y-117910289D01*
X163889711Y-118021789D01*
X163967876Y-118074017D01*
X164020814Y-118109390D01*
X164020825Y-118109396D01*
X164074638Y-118131685D01*
X164166503Y-118169737D01*
X164321158Y-118200500D01*
X164321159Y-118200500D01*
X164478841Y-118200500D01*
X164478842Y-118200500D01*
X164633497Y-118169737D01*
X164779179Y-118109394D01*
X164910289Y-118021789D01*
X164910290Y-118021787D01*
X164914332Y-118019087D01*
X164915251Y-118020463D01*
X164965832Y-118000671D01*
X164971652Y-118000500D01*
X166028348Y-118000500D01*
X166085647Y-118019117D01*
X166085668Y-118019087D01*
X166085775Y-118019159D01*
X166086539Y-118019407D01*
X166089044Y-118021343D01*
X166220814Y-118109390D01*
X166220825Y-118109396D01*
X166274638Y-118131685D01*
X166366503Y-118169737D01*
X166521158Y-118200500D01*
X166521159Y-118200500D01*
X166678841Y-118200500D01*
X166678842Y-118200500D01*
X166833497Y-118169737D01*
X166979179Y-118109394D01*
X167110289Y-118021789D01*
X167221789Y-117910289D01*
X167309394Y-117779179D01*
X167369737Y-117633497D01*
X167385786Y-117552812D01*
X167415683Y-117499429D01*
X167471248Y-117473813D01*
X167531258Y-117485750D01*
X167552888Y-117502123D01*
X168671163Y-118620398D01*
X168698514Y-118674079D01*
X168698551Y-118674072D01*
X168698576Y-118674202D01*
X168698940Y-118674915D01*
X168699342Y-118678052D01*
X168730263Y-118833496D01*
X168730263Y-118833498D01*
X168790603Y-118979174D01*
X168790609Y-118979185D01*
X168843312Y-119058059D01*
X168878211Y-119110289D01*
X168989711Y-119221789D01*
X169067876Y-119274017D01*
X169120814Y-119309390D01*
X169120825Y-119309396D01*
X169174638Y-119331685D01*
X169266503Y-119369737D01*
X169421158Y-119400500D01*
X169421159Y-119400500D01*
X169578841Y-119400500D01*
X169578842Y-119400500D01*
X169733497Y-119369737D01*
X169879179Y-119309394D01*
X170010289Y-119221789D01*
X170121789Y-119110289D01*
X170209394Y-118979179D01*
X170269737Y-118833497D01*
X170300500Y-118678842D01*
X170300500Y-118521158D01*
X170269737Y-118366503D01*
X170209394Y-118220821D01*
X170209393Y-118220819D01*
X170209390Y-118220814D01*
X170174017Y-118167876D01*
X170121789Y-118089711D01*
X170010289Y-117978211D01*
X169958059Y-117943312D01*
X169879185Y-117890609D01*
X169879174Y-117890603D01*
X169733497Y-117830263D01*
X169574072Y-117798551D01*
X169574395Y-117796926D01*
X169524639Y-117775160D01*
X169520398Y-117771163D01*
X167728836Y-115979601D01*
X167701485Y-115925920D01*
X167701449Y-115925928D01*
X167701423Y-115925799D01*
X167701059Y-115925084D01*
X167700655Y-115921940D01*
X167700500Y-115921160D01*
X167700500Y-115921158D01*
X167669737Y-115766503D01*
X167642398Y-115700500D01*
X167609396Y-115620825D01*
X167609390Y-115620814D01*
X167566116Y-115556051D01*
X167521789Y-115489711D01*
X167410289Y-115378211D01*
X167355995Y-115341933D01*
X167279185Y-115290609D01*
X167279174Y-115290603D01*
X167133497Y-115230263D01*
X166978844Y-115199500D01*
X166978842Y-115199500D01*
X166821158Y-115199500D01*
X166821155Y-115199500D01*
X166666503Y-115230263D01*
X166666501Y-115230263D01*
X166520825Y-115290603D01*
X166520814Y-115290609D01*
X166389711Y-115378211D01*
X166389707Y-115378214D01*
X166278214Y-115489707D01*
X166278211Y-115489711D01*
X166190609Y-115620814D01*
X166190603Y-115620825D01*
X166130263Y-115766501D01*
X166130263Y-115766503D01*
X166099500Y-115921155D01*
X166099500Y-116078844D01*
X166130263Y-116233496D01*
X166130263Y-116233498D01*
X166190603Y-116379174D01*
X166190609Y-116379185D01*
X166241615Y-116455520D01*
X166278211Y-116510289D01*
X166278214Y-116510292D01*
X166284137Y-116516215D01*
X166311914Y-116570732D01*
X166302343Y-116631164D01*
X166259078Y-116674429D01*
X166252019Y-116677683D01*
X166220822Y-116690605D01*
X166220814Y-116690609D01*
X166139808Y-116744737D01*
X166089711Y-116778211D01*
X166089709Y-116778212D01*
X166085668Y-116780913D01*
X166084748Y-116779536D01*
X166034168Y-116799329D01*
X166028348Y-116799500D01*
X164971652Y-116799500D01*
X164914352Y-116780882D01*
X164914332Y-116780913D01*
X164914224Y-116780840D01*
X164913461Y-116780593D01*
X164910955Y-116778656D01*
X164779185Y-116690609D01*
X164779174Y-116690603D01*
X164633497Y-116630263D01*
X164478844Y-116599500D01*
X164478842Y-116599500D01*
X164321158Y-116599500D01*
X164321155Y-116599500D01*
X164166503Y-116630263D01*
X164166501Y-116630263D01*
X164020825Y-116690603D01*
X164020814Y-116690609D01*
X163889711Y-116778211D01*
X163889707Y-116778214D01*
X163778214Y-116889707D01*
X163778211Y-116889711D01*
X163690609Y-117020814D01*
X163690603Y-117020825D01*
X163630263Y-117166501D01*
X163630263Y-117166503D01*
X163599500Y-117321155D01*
X160450500Y-117321155D01*
X160450500Y-81178710D01*
X161749500Y-81178710D01*
X161749500Y-81421289D01*
X161781161Y-81661781D01*
X161781161Y-81661786D01*
X161843944Y-81896092D01*
X161843948Y-81896105D01*
X161936772Y-82120204D01*
X161936774Y-82120208D01*
X161936776Y-82120212D01*
X162035153Y-82290606D01*
X162058066Y-82330292D01*
X162205729Y-82522731D01*
X162205731Y-82522733D01*
X162205735Y-82522738D01*
X162377262Y-82694265D01*
X162377266Y-82694268D01*
X162377268Y-82694270D01*
X162489767Y-82780593D01*
X162569711Y-82841936D01*
X162779788Y-82963224D01*
X163003900Y-83056054D01*
X163238211Y-83118838D01*
X163478712Y-83150500D01*
X163478713Y-83150500D01*
X163721287Y-83150500D01*
X163721288Y-83150500D01*
X163961789Y-83118838D01*
X164196100Y-83056054D01*
X164420212Y-82963224D01*
X164630289Y-82841936D01*
X164822738Y-82694265D01*
X164994265Y-82522738D01*
X165141936Y-82330289D01*
X165263224Y-82120212D01*
X165356054Y-81896100D01*
X165418838Y-81661789D01*
X165450500Y-81421288D01*
X165450500Y-81178712D01*
X165418838Y-80938211D01*
X165356054Y-80703900D01*
X165263224Y-80479788D01*
X165141936Y-80269711D01*
X165070656Y-80176817D01*
X164994270Y-80077268D01*
X164994268Y-80077266D01*
X164994265Y-80077262D01*
X164822738Y-79905735D01*
X164822733Y-79905731D01*
X164822731Y-79905729D01*
X164630292Y-79758066D01*
X164630289Y-79758064D01*
X164420212Y-79636776D01*
X164420208Y-79636774D01*
X164420204Y-79636772D01*
X164196105Y-79543948D01*
X164196104Y-79543947D01*
X164196100Y-79543946D01*
X163961789Y-79481162D01*
X163961786Y-79481161D01*
X163961784Y-79481161D01*
X163721289Y-79449500D01*
X163721288Y-79449500D01*
X163478712Y-79449500D01*
X163478710Y-79449500D01*
X163238218Y-79481161D01*
X163238213Y-79481161D01*
X163003907Y-79543944D01*
X163003894Y-79543948D01*
X162779795Y-79636772D01*
X162569707Y-79758066D01*
X162377268Y-79905729D01*
X162205729Y-80077268D01*
X162058066Y-80269707D01*
X161936772Y-80479795D01*
X161843948Y-80703894D01*
X161843944Y-80703907D01*
X161781161Y-80938213D01*
X161781161Y-80938218D01*
X161749500Y-81178710D01*
X160450500Y-81178710D01*
X160450500Y-78249500D01*
X160469407Y-78191309D01*
X160518907Y-78155345D01*
X160549500Y-78150500D01*
X168904145Y-78150500D01*
X168962336Y-78169407D01*
G37*
%TD.AperFunction*%
%TA.AperFunction,Conductor*%
G36*
X198845445Y-95750533D02*
G01*
X198888710Y-95793798D01*
X198899500Y-95838743D01*
X198899500Y-103910256D01*
X198880593Y-103968447D01*
X198870504Y-103980260D01*
X192665804Y-110184960D01*
X192611287Y-110212737D01*
X192550855Y-110203166D01*
X192507590Y-110159901D01*
X192496800Y-110114956D01*
X192496800Y-109971640D01*
X192462899Y-109757603D01*
X192406959Y-109585437D01*
X192395930Y-109551492D01*
X192297545Y-109358400D01*
X192170164Y-109183075D01*
X192150639Y-109163550D01*
X192122864Y-109109036D01*
X192132435Y-109048604D01*
X192150638Y-109023549D01*
X192777820Y-108396370D01*
X192856877Y-108259438D01*
X192897801Y-108106711D01*
X192897801Y-107948596D01*
X192897801Y-107942534D01*
X192897800Y-107942516D01*
X192897800Y-107766643D01*
X192916707Y-107708452D01*
X192966207Y-107672488D01*
X193027393Y-107672488D01*
X193074722Y-107706875D01*
X193075134Y-107706538D01*
X193076426Y-107708112D01*
X193076893Y-107708452D01*
X193077954Y-107709975D01*
X193078208Y-107710285D01*
X193078211Y-107710289D01*
X193189711Y-107821789D01*
X193250484Y-107862396D01*
X193320814Y-107909390D01*
X193320825Y-107909396D01*
X193374638Y-107931685D01*
X193466503Y-107969737D01*
X193621158Y-108000500D01*
X193621159Y-108000500D01*
X193778841Y-108000500D01*
X193778842Y-108000500D01*
X193933497Y-107969737D01*
X194079179Y-107909394D01*
X194210289Y-107821789D01*
X194321789Y-107710289D01*
X194409394Y-107579179D01*
X194469737Y-107433497D01*
X194500500Y-107278842D01*
X194500500Y-107121158D01*
X194469737Y-106966503D01*
X194449622Y-106917942D01*
X194409396Y-106820825D01*
X194409390Y-106820814D01*
X194334463Y-106708679D01*
X194321789Y-106689711D01*
X194321787Y-106689709D01*
X194319087Y-106685668D01*
X194320459Y-106684751D01*
X194300670Y-106634146D01*
X194300500Y-106628347D01*
X194300500Y-104371652D01*
X194319117Y-104314352D01*
X194319087Y-104314332D01*
X194319159Y-104314224D01*
X194319407Y-104313461D01*
X194321343Y-104310955D01*
X194321786Y-104310291D01*
X194321789Y-104310289D01*
X194409394Y-104179179D01*
X194469737Y-104033497D01*
X194500500Y-103878842D01*
X194500500Y-103721158D01*
X194469737Y-103566503D01*
X194424288Y-103456779D01*
X194409396Y-103420825D01*
X194409390Y-103420814D01*
X194322674Y-103291036D01*
X194321789Y-103289711D01*
X194321787Y-103289709D01*
X194319087Y-103285668D01*
X194320459Y-103284751D01*
X194300670Y-103234146D01*
X194300500Y-103228347D01*
X194300500Y-100239743D01*
X194319407Y-100181552D01*
X194329496Y-100169739D01*
X198730496Y-95768739D01*
X198785013Y-95740962D01*
X198845445Y-95750533D01*
G37*
%TD.AperFunction*%
%TA.AperFunction,Conductor*%
G36*
X188494443Y-96083002D02*
G01*
X188525365Y-96098758D01*
X188527553Y-96099873D01*
X188527561Y-96099877D01*
X188692293Y-96153402D01*
X188692297Y-96153403D01*
X188863386Y-96180501D01*
X188863389Y-96180501D01*
X189036613Y-96180501D01*
X189078980Y-96173790D01*
X189128929Y-96165879D01*
X189189360Y-96175450D01*
X189214420Y-96193656D01*
X189406777Y-96386013D01*
X189406779Y-96386016D01*
X189518583Y-96497820D01*
X189563288Y-96523630D01*
X189655514Y-96576877D01*
X189808242Y-96617801D01*
X189808248Y-96617801D01*
X189814516Y-96618626D01*
X189869742Y-96644965D01*
X189898939Y-96698734D01*
X189890956Y-96759397D01*
X189889808Y-96761725D01*
X189844070Y-96851491D01*
X189777100Y-97057603D01*
X189743200Y-97271640D01*
X189743200Y-97488359D01*
X189771612Y-97667744D01*
X189762041Y-97728176D01*
X189718776Y-97771441D01*
X189658344Y-97781012D01*
X189615640Y-97763324D01*
X189567263Y-97728176D01*
X189526788Y-97698769D01*
X189372445Y-97620128D01*
X189372444Y-97620127D01*
X189372441Y-97620126D01*
X189372438Y-97620124D01*
X189207706Y-97566599D01*
X189207702Y-97566598D01*
X189036614Y-97539501D01*
X189036611Y-97539501D01*
X188863389Y-97539501D01*
X188863386Y-97539501D01*
X188692297Y-97566598D01*
X188692293Y-97566599D01*
X188527561Y-97620124D01*
X188527552Y-97620128D01*
X188494444Y-97636998D01*
X188434012Y-97646569D01*
X188379496Y-97618791D01*
X188351719Y-97564274D01*
X188350500Y-97548788D01*
X188350500Y-96171213D01*
X188369407Y-96113022D01*
X188418907Y-96077058D01*
X188480093Y-96077058D01*
X188494443Y-96083002D01*
G37*
%TD.AperFunction*%
%TA.AperFunction,Conductor*%
G36*
X171714295Y-83823142D02*
G01*
X171741463Y-83860536D01*
X171746124Y-83871788D01*
X171790603Y-83979174D01*
X171790609Y-83979185D01*
X171834251Y-84044498D01*
X171878211Y-84110289D01*
X171989711Y-84221789D01*
X172055626Y-84265832D01*
X172120814Y-84309390D01*
X172120825Y-84309396D01*
X172174638Y-84331685D01*
X172266503Y-84369737D01*
X172421158Y-84400500D01*
X172421159Y-84400500D01*
X172578841Y-84400500D01*
X172578842Y-84400500D01*
X172733497Y-84369737D01*
X172879179Y-84309394D01*
X173010289Y-84221789D01*
X173121789Y-84110289D01*
X173165749Y-84044497D01*
X173213799Y-84006619D01*
X173248064Y-84000500D01*
X174519451Y-84000500D01*
X174577642Y-84019407D01*
X174613606Y-84068907D01*
X174613606Y-84130093D01*
X174607659Y-84144447D01*
X174604072Y-84151486D01*
X174604071Y-84151487D01*
X174537100Y-84357603D01*
X174503200Y-84571640D01*
X174503200Y-84788359D01*
X174537100Y-85002396D01*
X174604070Y-85208508D01*
X174696799Y-85390501D01*
X174702455Y-85401600D01*
X174829836Y-85576925D01*
X174983075Y-85730164D01*
X175158400Y-85857545D01*
X175351492Y-85955930D01*
X175557599Y-86022898D01*
X175557600Y-86022898D01*
X175557603Y-86022899D01*
X175771641Y-86056800D01*
X175771644Y-86056800D01*
X175988359Y-86056800D01*
X176202396Y-86022899D01*
X176202397Y-86022898D01*
X176202401Y-86022898D01*
X176408508Y-85955930D01*
X176601600Y-85857545D01*
X176776925Y-85730164D01*
X176930164Y-85576925D01*
X177057545Y-85401600D01*
X177155930Y-85208508D01*
X177222898Y-85002401D01*
X177224060Y-84995063D01*
X177256800Y-84788359D01*
X177256800Y-84571640D01*
X177222899Y-84357603D01*
X177181951Y-84231578D01*
X177155930Y-84151492D01*
X177155928Y-84151489D01*
X177155928Y-84151487D01*
X177155927Y-84151486D01*
X177152341Y-84144447D01*
X177142767Y-84084016D01*
X177170544Y-84029498D01*
X177225059Y-84001719D01*
X177240549Y-84000500D01*
X192441866Y-84000500D01*
X192500057Y-84019407D01*
X192533330Y-84061613D01*
X192540606Y-84079180D01*
X192540609Y-84079185D01*
X192588920Y-84151486D01*
X192628211Y-84210289D01*
X192628212Y-84210290D01*
X192630913Y-84214332D01*
X192629536Y-84215251D01*
X192649329Y-84265832D01*
X192649500Y-84271652D01*
X192649500Y-86846838D01*
X192630593Y-86905029D01*
X192581093Y-86940993D01*
X192519907Y-86940993D01*
X192470407Y-86905029D01*
X192456345Y-86877431D01*
X192427842Y-86789707D01*
X192395930Y-86691492D01*
X192297545Y-86498400D01*
X192170164Y-86323075D01*
X192016925Y-86169836D01*
X191841600Y-86042455D01*
X191841599Y-86042454D01*
X191841597Y-86042453D01*
X191648508Y-85944070D01*
X191442396Y-85877100D01*
X191228359Y-85843200D01*
X191228356Y-85843200D01*
X191011644Y-85843200D01*
X191011641Y-85843200D01*
X190797603Y-85877100D01*
X190591491Y-85944070D01*
X190398402Y-86042453D01*
X190223076Y-86169835D01*
X190069835Y-86323076D01*
X189942453Y-86498402D01*
X189844070Y-86691491D01*
X189777100Y-86897603D01*
X189743200Y-87111640D01*
X189743200Y-87328359D01*
X189777100Y-87542396D01*
X189844070Y-87748508D01*
X189937198Y-87931284D01*
X189942455Y-87941600D01*
X190069836Y-88116925D01*
X190223075Y-88270164D01*
X190372958Y-88379060D01*
X190398403Y-88397547D01*
X190398405Y-88397548D01*
X190406732Y-88401791D01*
X190449996Y-88445056D01*
X190459567Y-88505488D01*
X190431789Y-88560004D01*
X190406732Y-88578209D01*
X190398405Y-88582451D01*
X190398403Y-88582452D01*
X190223076Y-88709835D01*
X190069831Y-88863080D01*
X189951593Y-89025820D01*
X189902093Y-89061784D01*
X189840908Y-89061783D01*
X189791408Y-89025819D01*
X189791405Y-89025815D01*
X189789415Y-89023076D01*
X189789414Y-89023074D01*
X189666928Y-88900588D01*
X189526788Y-88798770D01*
X189526787Y-88798769D01*
X189526785Y-88798768D01*
X189372441Y-88720127D01*
X189372438Y-88720125D01*
X189207706Y-88666600D01*
X189207702Y-88666599D01*
X189036614Y-88639502D01*
X189036611Y-88639502D01*
X188863389Y-88639502D01*
X188863386Y-88639502D01*
X188692297Y-88666599D01*
X188692293Y-88666600D01*
X188527561Y-88720125D01*
X188527552Y-88720129D01*
X188494444Y-88736999D01*
X188434012Y-88746570D01*
X188379496Y-88718792D01*
X188351719Y-88664275D01*
X188350500Y-88648789D01*
X188350500Y-85874630D01*
X188350499Y-85874612D01*
X188350499Y-85825841D01*
X188314784Y-85600346D01*
X188307174Y-85576925D01*
X188244230Y-85383203D01*
X188140578Y-85179774D01*
X188006379Y-84995064D01*
X187844937Y-84833622D01*
X187660227Y-84699422D01*
X187660226Y-84699421D01*
X187660224Y-84699420D01*
X187456799Y-84595770D01*
X187239654Y-84525215D01*
X187014160Y-84489501D01*
X187014157Y-84489501D01*
X186959309Y-84489501D01*
X180341008Y-84489501D01*
X180341005Y-84489500D01*
X180300000Y-84489500D01*
X180185843Y-84489500D01*
X180185840Y-84489500D01*
X179960344Y-84525214D01*
X179743203Y-84595768D01*
X179539774Y-84699420D01*
X179447417Y-84766521D01*
X179355062Y-84833621D01*
X179193620Y-84995063D01*
X179188289Y-85002401D01*
X179059419Y-85179775D01*
X178955769Y-85383201D01*
X178885214Y-85600346D01*
X178849500Y-85825841D01*
X178849500Y-85978788D01*
X178830593Y-86036979D01*
X178781093Y-86072943D01*
X178719907Y-86072943D01*
X178705556Y-86066998D01*
X178672447Y-86050128D01*
X178672438Y-86050124D01*
X178507706Y-85996599D01*
X178507702Y-85996598D01*
X178336614Y-85969501D01*
X178336611Y-85969501D01*
X178163389Y-85969501D01*
X178163386Y-85969501D01*
X177992297Y-85996598D01*
X177992293Y-85996599D01*
X177827561Y-86050124D01*
X177827558Y-86050126D01*
X177673214Y-86128767D01*
X177533073Y-86230586D01*
X177410585Y-86353074D01*
X177308766Y-86493215D01*
X177230125Y-86647559D01*
X177230123Y-86647562D01*
X177176598Y-86812294D01*
X177176597Y-86812298D01*
X177149500Y-86983386D01*
X177149500Y-87156615D01*
X177164121Y-87248929D01*
X177154550Y-87309361D01*
X177136344Y-87334419D01*
X176600262Y-87870503D01*
X176545745Y-87898281D01*
X176530258Y-87899500D01*
X175560182Y-87899500D01*
X175560166Y-87899499D01*
X175554103Y-87899499D01*
X175395989Y-87899499D01*
X175243261Y-87940423D01*
X175243259Y-87940423D01*
X175243255Y-87940425D01*
X175198090Y-87966502D01*
X175106330Y-88019479D01*
X174994525Y-88131283D01*
X174994526Y-88131284D01*
X174994524Y-88131286D01*
X174081286Y-89044524D01*
X174081284Y-89044526D01*
X174081283Y-89044525D01*
X173969482Y-89156327D01*
X173931805Y-89221587D01*
X173931804Y-89221588D01*
X173890424Y-89293257D01*
X173890423Y-89293261D01*
X173849499Y-89445989D01*
X173849499Y-89445991D01*
X173849499Y-89612077D01*
X173849500Y-89612090D01*
X173849500Y-90460256D01*
X173830593Y-90518447D01*
X173820504Y-90530260D01*
X169769504Y-94581260D01*
X169714987Y-94609037D01*
X169654555Y-94599466D01*
X169611290Y-94556201D01*
X169600500Y-94511256D01*
X169600500Y-88589742D01*
X169619407Y-88531551D01*
X169629490Y-88519744D01*
X171168713Y-86980521D01*
X171168716Y-86980520D01*
X171280520Y-86868716D01*
X171359577Y-86731784D01*
X171389534Y-86619981D01*
X171400500Y-86579058D01*
X171400500Y-86420943D01*
X171400500Y-84171652D01*
X171419117Y-84114352D01*
X171419087Y-84114332D01*
X171419159Y-84114224D01*
X171419407Y-84113461D01*
X171421343Y-84110955D01*
X171421786Y-84110291D01*
X171421789Y-84110289D01*
X171509394Y-83979179D01*
X171558536Y-83860537D01*
X171598272Y-83814012D01*
X171657767Y-83799728D01*
X171714295Y-83823142D01*
G37*
%TD.AperFunction*%
%TA.AperFunction,Conductor*%
G36*
X177162219Y-89087859D02*
G01*
X177181104Y-89121575D01*
X177230123Y-89272439D01*
X177230125Y-89272442D01*
X177303999Y-89417431D01*
X177308768Y-89426789D01*
X177410586Y-89566929D01*
X177513656Y-89669999D01*
X177541432Y-89724514D01*
X177531861Y-89784946D01*
X177513657Y-89810001D01*
X177455303Y-89868356D01*
X177410585Y-89913074D01*
X177308766Y-90053215D01*
X177230125Y-90207559D01*
X177230123Y-90207562D01*
X177176598Y-90372294D01*
X177176597Y-90372298D01*
X177149500Y-90543386D01*
X177149500Y-90716615D01*
X177176597Y-90887703D01*
X177176598Y-90887707D01*
X177230123Y-91052439D01*
X177230125Y-91052442D01*
X177268635Y-91128024D01*
X177308768Y-91206789D01*
X177410586Y-91346929D01*
X177513656Y-91449999D01*
X177541432Y-91504514D01*
X177531861Y-91564946D01*
X177513657Y-91590001D01*
X177410586Y-91693073D01*
X177410581Y-91693078D01*
X177331222Y-91802306D01*
X177281722Y-91838270D01*
X177220537Y-91838269D01*
X177171037Y-91802305D01*
X177156976Y-91774710D01*
X177155930Y-91771493D01*
X177155930Y-91771492D01*
X177057545Y-91578400D01*
X176930164Y-91403075D01*
X176776925Y-91249836D01*
X176601600Y-91122455D01*
X176601599Y-91122454D01*
X176601597Y-91122453D01*
X176408508Y-91024070D01*
X176202396Y-90957100D01*
X175988359Y-90923200D01*
X175988356Y-90923200D01*
X175771644Y-90923200D01*
X175771641Y-90923200D01*
X175557603Y-90957100D01*
X175351491Y-91024070D01*
X175158401Y-91122454D01*
X175138946Y-91136588D01*
X175128885Y-91139856D01*
X175121026Y-91146933D01*
X175100440Y-91149096D01*
X175080754Y-91155492D01*
X175070695Y-91152223D01*
X175060176Y-91153329D01*
X175042250Y-91142979D01*
X175022564Y-91136582D01*
X175016347Y-91128024D01*
X175007188Y-91122736D01*
X174998769Y-91103827D01*
X174986603Y-91087080D01*
X174986603Y-91076503D01*
X174982301Y-91066840D01*
X174986604Y-91046595D01*
X174986606Y-91025895D01*
X174995020Y-91006996D01*
X175003935Y-90991557D01*
X175009577Y-90981785D01*
X175050500Y-90829057D01*
X175050500Y-90670943D01*
X175050500Y-89814789D01*
X175069407Y-89756598D01*
X175079496Y-89744785D01*
X175694785Y-89129496D01*
X175749302Y-89101719D01*
X175764789Y-89100500D01*
X176734865Y-89100500D01*
X176734881Y-89100501D01*
X176740944Y-89100501D01*
X176899057Y-89100501D01*
X176899058Y-89100501D01*
X177051786Y-89059577D01*
X177051786Y-89059576D01*
X177058055Y-89057897D01*
X177058606Y-89059956D01*
X177110044Y-89055899D01*
X177162219Y-89087859D01*
G37*
%TD.AperFunction*%
%TD*%
M02*
