M48
; DRILL file {KiCad 9.0.5} date 2025-10-27T23:23:53+0100
; FORMAT={-:-/ absolute / inch / decimal}
; #@! TF.CreationDate,2025-10-27T23:23:53+01:00
; #@! TF.GenerationSoftware,Kicad,Pcbnew,9.0.5
; #@! TF.FileFunction,Plated,1,2,PTH
FMAT,2
INCH
; #@! TA.AperFunction,Plated,PTH,ViaDrill
T1C0.0118
; #@! TA.AperFunction,Plated,PTH,ComponentDrill
T2C0.0276
; #@! TA.AperFunction,Plated,PTH,ComponentDrill
T3C0.0394
; #@! TA.AperFunction,Plated,PTH,ComponentDrill
T4C0.0430
%
G90
G05
T1
X6.4252Y-3.9843
X6.4419Y-4.7913
X6.4439Y-4.2362
X6.4724Y-4.622
X6.5591Y-4.622
X6.5709Y-4.5669
X6.5866Y-3.9646
X6.6063Y-3.8967
X6.6063Y-3.9324
X6.6535Y-3.748
X6.6693Y-3.1102
X6.6732Y-4.6693
X6.6772Y-3.9071
X6.7008Y-3.872
X6.7244Y-3.2913
X6.7913Y-3.2913
X6.8012Y-3.8484
X6.8701Y-4.7402
X7.0098Y-3.2362
X7.2392Y-4.5659
X7.4528Y-4.2047
X7.5295Y-4.5256
X7.6083Y-3.2953
X7.6241Y-3.7402
X7.626Y-4.0866
X7.626Y-4.2205
X7.6772Y-3.2677
X7.7244Y-3.9331
X7.748Y-3.8543
X7.7559Y-3.2776
X7.8209Y-3.437
X7.8287Y-4.7421
X7.8543Y-3.2953
X7.8957Y-3.9724
X7.8976Y-3.4724
X7.9291Y-4.7913
X7.9547Y-3.5177
X7.9744Y-4.1673
X8.0315Y-4.7972
X8.0984Y-4.1535
T2
X7.0177Y-3.9185
X7.0177Y-3.428
X7.0177Y-3.498
X7.0177Y-3.5681
X7.0177Y-3.6382
X7.0177Y-3.7083
X7.0177Y-3.7783
X7.0177Y-3.8484
X7.439Y-3.463
X7.439Y-3.5331
X7.439Y-3.6031
X7.439Y-3.6732
X7.439Y-3.7433
X7.439Y-3.8134
X7.439Y-3.8835
X7.439Y-3.9535
T3
X6.5Y-3.4331
X6.5Y-3.5331
X6.5Y-3.6331
X6.5Y-3.7331
X6.5Y-3.8331
T4
X6.9244Y-3.2339
X6.9244Y-3.3339
X6.9244Y-3.4339
X6.9244Y-3.5339
X6.9244Y-3.6339
X6.9244Y-3.7339
X6.9244Y-3.8339
X6.9244Y-3.9339
X6.9244Y-4.0339
X6.9244Y-4.1339
X6.9244Y-4.2339
X6.9244Y-4.3339
X7.0244Y-4.1339
X7.1244Y-4.1339
X7.2244Y-4.1339
X7.5244Y-3.2339
X7.5244Y-3.3339
X7.5244Y-3.4339
X7.5244Y-3.5339
X7.5244Y-3.6339
X7.5244Y-3.7339
X7.5244Y-3.8339
X7.5244Y-3.9339
X7.5244Y-4.0339
X7.5244Y-4.1339
X7.5244Y-4.2339
X7.5244Y-4.3339
M30
