%TF.GenerationSoftware,KiCad,Pcbnew,9.0.5*%
%TF.CreationDate,2025-10-27T23:23:53+01:00*%
%TF.ProjectId,mouse,6d6f7573-652e-46b6-9963-61645f706362,rev?*%
%TF.SameCoordinates,Original*%
%TF.FileFunction,Soldermask,Top*%
%TF.FilePolarity,Negative*%
%FSLAX46Y46*%
G04 Gerber Fmt 4.6, Leading zero omitted, Abs format (unit mm)*
G04 Created by KiCad (PCBNEW 9.0.5) date 2025-10-27 23:23:53*
%MOMM*%
%LPD*%
G01*
G04 APERTURE LIST*
G04 Aperture macros list*
%AMRoundRect*
0 Rectangle with rounded corners*
0 $1 Rounding radius*
0 $2 $3 $4 $5 $6 $7 $8 $9 X,Y pos of 4 corners*
0 Add a 4 corners polygon primitive as box body*
4,1,4,$2,$3,$4,$5,$6,$7,$8,$9,$2,$3,0*
0 Add four circle primitives for the rounded corners*
1,1,$1+$1,$2,$3*
1,1,$1+$1,$4,$5*
1,1,$1+$1,$6,$7*
1,1,$1+$1,$8,$9*
0 Add four rect primitives between the rounded corners*
20,1,$1+$1,$2,$3,$4,$5,0*
20,1,$1+$1,$4,$5,$6,$7,0*
20,1,$1+$1,$6,$7,$8,$9,0*
20,1,$1+$1,$8,$9,$2,$3,0*%
G04 Aperture macros list end*
%ADD10RoundRect,0.287778X-0.714222X0.489222X-0.714222X-0.489222X0.714222X-0.489222X0.714222X0.489222X0*%
%ADD11R,0.450000X1.400000*%
%ADD12C,1.200000*%
%ADD13R,1.200000X1.200000*%
%ADD14RoundRect,0.250000X-0.450000X0.262500X-0.450000X-0.262500X0.450000X-0.262500X0.450000X0.262500X0*%
%ADD15R,1.700000X1.700000*%
%ADD16C,1.700000*%
%ADD17RoundRect,0.250000X0.475000X-0.250000X0.475000X0.250000X-0.475000X0.250000X-0.475000X-0.250000X0*%
%ADD18RoundRect,0.250000X-0.475000X0.250000X-0.475000X-0.250000X0.475000X-0.250000X0.475000X0.250000X0*%
%ADD19RoundRect,0.250000X-0.262500X-0.450000X0.262500X-0.450000X0.262500X0.450000X-0.262500X0.450000X0*%
%ADD20RoundRect,0.250000X0.262500X0.450000X-0.262500X0.450000X-0.262500X-0.450000X0.262500X-0.450000X0*%
%ADD21R,0.700000X1.500000*%
%ADD22R,1.000000X0.800000*%
%ADD23R,0.800000X1.600000*%
%ADD24R,2.100000X3.000000*%
%ADD25RoundRect,0.250000X-0.250000X-0.475000X0.250000X-0.475000X0.250000X0.475000X-0.250000X0.475000X0*%
%ADD26RoundRect,0.150000X0.625000X-0.150000X0.625000X0.150000X-0.625000X0.150000X-0.625000X-0.150000X0*%
%ADD27RoundRect,0.250000X0.650000X-0.350000X0.650000X0.350000X-0.650000X0.350000X-0.650000X-0.350000X0*%
%ADD28RoundRect,0.075000X-0.247500X-0.075000X0.247500X-0.075000X0.247500X0.075000X-0.247500X0.075000X0*%
%ADD29R,1.010000X1.700000*%
%ADD30R,0.600000X1.250000*%
%ADD31C,1.752600*%
G04 APERTURE END LIST*
D10*
%TO.C,SW1*%
X204400000Y-95000000D03*
X204400000Y-99150000D03*
%TD*%
D11*
%TO.C,3DHALL1*%
X165575000Y-116000000D03*
X164925000Y-116000000D03*
X164275000Y-116000000D03*
X163625000Y-116000000D03*
X163625000Y-120400000D03*
X164275000Y-120400000D03*
X164925000Y-120400000D03*
X165575000Y-120400000D03*
%TD*%
D12*
%TO.C,OpticalSensor1*%
X188950000Y-100420001D03*
X188950000Y-98640001D03*
D13*
X188950000Y-96860001D03*
D12*
X188950000Y-95080001D03*
X188950000Y-93300001D03*
X188950000Y-91520001D03*
X188950000Y-89740002D03*
D13*
X188950000Y-87960002D03*
D12*
X178250000Y-87070001D03*
X178250000Y-88850001D03*
X178250000Y-90630001D03*
X178250000Y-92410001D03*
X178250000Y-94190001D03*
X178250000Y-95970001D03*
X178250000Y-97750000D03*
X178249999Y-99530001D03*
%TD*%
D14*
%TO.C,RLED5*%
X167400000Y-103187500D03*
X167400000Y-105012500D03*
%TD*%
D15*
%TO.C,J1*%
X165100000Y-87200000D03*
D16*
X165100000Y-89740000D03*
X165100000Y-92280000D03*
X165100000Y-94820000D03*
X165100000Y-97360000D03*
%TD*%
D17*
%TO.C,C4*%
X196400000Y-87150000D03*
X196400000Y-85250000D03*
%TD*%
D18*
%TO.C,C2*%
X201200000Y-97500000D03*
X201200000Y-99400000D03*
%TD*%
D11*
%TO.C,3DHALL2*%
X203375000Y-116000000D03*
X202725000Y-116000000D03*
X202075000Y-116000000D03*
X201425000Y-116000000D03*
X201425000Y-120400000D03*
X202075000Y-120400000D03*
X202725000Y-120400000D03*
X203375000Y-120400000D03*
%TD*%
D17*
%TO.C,C6*%
X203200000Y-92600000D03*
X203200000Y-90700000D03*
%TD*%
D14*
%TO.C,RLED1*%
X173000000Y-99087500D03*
X173000000Y-100912500D03*
%TD*%
D19*
%TO.C,RLED3*%
X169287500Y-102900000D03*
X171112500Y-102900000D03*
%TD*%
D20*
%TO.C,RLED2*%
X171112500Y-100800000D03*
X169287500Y-100800000D03*
%TD*%
D21*
%TO.C,Switch1*%
X185870000Y-81595000D03*
X182870000Y-81595000D03*
X181370000Y-81595000D03*
D22*
X187270000Y-80945000D03*
X187270000Y-78745000D03*
X179970000Y-80945000D03*
X179970000Y-78745000D03*
%TD*%
D17*
%TO.C,C7*%
X198700000Y-92550000D03*
X198700000Y-90650000D03*
%TD*%
D23*
%TO.C,J3*%
X182625000Y-108500000D03*
X183875000Y-108500000D03*
D24*
X180075000Y-111400000D03*
X186425000Y-111400000D03*
%TD*%
D20*
%TO.C,R1*%
X172912500Y-96500000D03*
X171087500Y-96500000D03*
%TD*%
D18*
%TO.C,C8*%
X194750000Y-95050000D03*
X194750000Y-96950000D03*
%TD*%
D17*
%TO.C,C3*%
X194200000Y-87200000D03*
X194200000Y-85300000D03*
%TD*%
D25*
%TO.C,C9*%
X198550000Y-94600000D03*
X200450000Y-94600000D03*
%TD*%
D26*
%TO.C,J2*%
X195700000Y-107200000D03*
X195700000Y-106200000D03*
X195700000Y-105200000D03*
X195700000Y-104200000D03*
D27*
X199575000Y-108500000D03*
X199575000Y-102900000D03*
%TD*%
D28*
%TO.C,HALL2*%
X169972453Y-80724918D03*
X169972453Y-81374918D03*
X169972453Y-82024918D03*
X172027453Y-82024918D03*
X172027453Y-81374918D03*
X172027453Y-80724918D03*
D29*
X170999953Y-81374918D03*
%TD*%
D30*
%TO.C,LDO1.9*%
X196450000Y-90750000D03*
X195500000Y-90750000D03*
X194550000Y-90750000D03*
X194550000Y-93250000D03*
X196450000Y-93250000D03*
%TD*%
D31*
%TO.C,U2*%
X175880000Y-82140000D03*
X175880000Y-84680000D03*
X175880000Y-87220000D03*
X175880000Y-89760000D03*
X175880000Y-92300000D03*
X175880000Y-94840000D03*
X175880000Y-97380000D03*
X175880000Y-99920000D03*
X175880000Y-102460000D03*
X175880000Y-105000000D03*
X175880000Y-107540000D03*
X175880000Y-110080000D03*
X191120000Y-110080000D03*
X191120000Y-107540000D03*
X191120000Y-105000000D03*
X191120000Y-102460000D03*
X191120000Y-99920000D03*
X191120000Y-97380000D03*
X191120000Y-94840000D03*
X191120000Y-92300000D03*
X191120000Y-89760000D03*
X191120000Y-87220000D03*
X191120000Y-84680000D03*
X191120000Y-82140000D03*
X178420000Y-105000000D03*
X180960000Y-105000000D03*
X183500000Y-105000000D03*
%TD*%
D18*
%TO.C,C1*%
X198700000Y-97500000D03*
X198700000Y-99400000D03*
%TD*%
D20*
%TO.C,RLED4*%
X171112500Y-104900000D03*
X169287500Y-104900000D03*
%TD*%
D28*
%TO.C,HALL1*%
X194972500Y-80750000D03*
X194972500Y-81400000D03*
X194972500Y-82050000D03*
X197027500Y-82050000D03*
X197027500Y-81400000D03*
X197027500Y-80750000D03*
D29*
X196000000Y-81400000D03*
%TD*%
D17*
%TO.C,C5*%
X200950000Y-92600000D03*
X200950000Y-90700000D03*
%TD*%
M02*
