%TF.GenerationSoftware,KiCad,Pcbnew,9.0.5*%
%TF.CreationDate,2025-10-27T23:23:53+01:00*%
%TF.ProjectId,mouse,6d6f7573-652e-46b6-9963-61645f706362,rev?*%
%TF.SameCoordinates,Original*%
%TF.FileFunction,Legend,Top*%
%TF.FilePolarity,Positive*%
%FSLAX46Y46*%
G04 Gerber Fmt 4.6, Leading zero omitted, Abs format (unit mm)*
G04 Created by KiCad (PCBNEW 9.0.5) date 2025-10-27 23:23:53*
%MOMM*%
%LPD*%
G01*
G04 APERTURE LIST*
G04 Aperture macros list*
%AMRoundRect*
0 Rectangle with rounded corners*
0 $1 Rounding radius*
0 $2 $3 $4 $5 $6 $7 $8 $9 X,Y pos of 4 corners*
0 Add a 4 corners polygon primitive as box body*
4,1,4,$2,$3,$4,$5,$6,$7,$8,$9,$2,$3,0*
0 Add four circle primitives for the rounded corners*
1,1,$1+$1,$2,$3*
1,1,$1+$1,$4,$5*
1,1,$1+$1,$6,$7*
1,1,$1+$1,$8,$9*
0 Add four rect primitives between the rounded corners*
20,1,$1+$1,$2,$3,$4,$5,0*
20,1,$1+$1,$4,$5,$6,$7,0*
20,1,$1+$1,$6,$7,$8,$9,0*
20,1,$1+$1,$8,$9,$2,$3,0*%
G04 Aperture macros list end*
%ADD10C,0.300000*%
%ADD11C,0.254000*%
%ADD12C,0.150000*%
%ADD13C,0.127000*%
%ADD14C,0.200000*%
%ADD15C,0.000000*%
%ADD16C,0.120000*%
%ADD17C,0.063060*%
%ADD18C,0.100000*%
%ADD19C,0.381000*%
%ADD20C,1.752600*%
%ADD21RoundRect,0.287778X-0.714222X0.489222X-0.714222X-0.489222X0.714222X-0.489222X0.714222X0.489222X0*%
%ADD22R,0.450000X1.400000*%
%ADD23C,1.200000*%
%ADD24R,1.200000X1.200000*%
%ADD25RoundRect,0.250000X-0.450000X0.262500X-0.450000X-0.262500X0.450000X-0.262500X0.450000X0.262500X0*%
%ADD26R,1.700000X1.700000*%
%ADD27C,1.700000*%
%ADD28RoundRect,0.250000X0.475000X-0.250000X0.475000X0.250000X-0.475000X0.250000X-0.475000X-0.250000X0*%
%ADD29RoundRect,0.250000X-0.475000X0.250000X-0.475000X-0.250000X0.475000X-0.250000X0.475000X0.250000X0*%
%ADD30C,3.200000*%
%ADD31RoundRect,0.250000X-0.262500X-0.450000X0.262500X-0.450000X0.262500X0.450000X-0.262500X0.450000X0*%
%ADD32RoundRect,0.250000X0.262500X0.450000X-0.262500X0.450000X-0.262500X-0.450000X0.262500X-0.450000X0*%
%ADD33C,0.900000*%
%ADD34R,0.700000X1.500000*%
%ADD35R,1.000000X0.800000*%
%ADD36R,0.800000X1.600000*%
%ADD37R,2.100000X3.000000*%
%ADD38RoundRect,0.250000X-0.250000X-0.475000X0.250000X-0.475000X0.250000X0.475000X-0.250000X0.475000X0*%
%ADD39RoundRect,0.150000X0.625000X-0.150000X0.625000X0.150000X-0.625000X0.150000X-0.625000X-0.150000X0*%
%ADD40RoundRect,0.250000X0.650000X-0.350000X0.650000X0.350000X-0.650000X0.350000X-0.650000X-0.350000X0*%
%ADD41RoundRect,0.075000X-0.247500X-0.075000X0.247500X-0.075000X0.247500X0.075000X-0.247500X0.075000X0*%
%ADD42R,1.010000X1.700000*%
%ADD43R,0.600000X1.250000*%
G04 APERTURE END LIST*
D10*
X178718285Y-109250328D02*
X178718285Y-110250328D01*
X178718285Y-109393185D02*
X178789714Y-109321757D01*
X178789714Y-109321757D02*
X178932571Y-109250328D01*
X178932571Y-109250328D02*
X179146857Y-109250328D01*
X179146857Y-109250328D02*
X179289714Y-109321757D01*
X179289714Y-109321757D02*
X179361143Y-109464614D01*
X179361143Y-109464614D02*
X179361143Y-110250328D01*
X180075428Y-110250328D02*
X180075428Y-109250328D01*
X180075428Y-108750328D02*
X180004000Y-108821757D01*
X180004000Y-108821757D02*
X180075428Y-108893185D01*
X180075428Y-108893185D02*
X180146857Y-108821757D01*
X180146857Y-108821757D02*
X180075428Y-108750328D01*
X180075428Y-108750328D02*
X180075428Y-108893185D01*
X181432572Y-110178900D02*
X181289714Y-110250328D01*
X181289714Y-110250328D02*
X181004000Y-110250328D01*
X181004000Y-110250328D02*
X180861143Y-110178900D01*
X180861143Y-110178900D02*
X180789714Y-110107471D01*
X180789714Y-110107471D02*
X180718286Y-109964614D01*
X180718286Y-109964614D02*
X180718286Y-109536042D01*
X180718286Y-109536042D02*
X180789714Y-109393185D01*
X180789714Y-109393185D02*
X180861143Y-109321757D01*
X180861143Y-109321757D02*
X181004000Y-109250328D01*
X181004000Y-109250328D02*
X181289714Y-109250328D01*
X181289714Y-109250328D02*
X181432572Y-109321757D01*
X182646857Y-110178900D02*
X182504000Y-110250328D01*
X182504000Y-110250328D02*
X182218286Y-110250328D01*
X182218286Y-110250328D02*
X182075428Y-110178900D01*
X182075428Y-110178900D02*
X182004000Y-110036042D01*
X182004000Y-110036042D02*
X182004000Y-109464614D01*
X182004000Y-109464614D02*
X182075428Y-109321757D01*
X182075428Y-109321757D02*
X182218286Y-109250328D01*
X182218286Y-109250328D02*
X182504000Y-109250328D01*
X182504000Y-109250328D02*
X182646857Y-109321757D01*
X182646857Y-109321757D02*
X182718286Y-109464614D01*
X182718286Y-109464614D02*
X182718286Y-109607471D01*
X182718286Y-109607471D02*
X182004000Y-109750328D01*
X183361142Y-110107471D02*
X183432571Y-110178900D01*
X183432571Y-110178900D02*
X183361142Y-110250328D01*
X183361142Y-110250328D02*
X183289714Y-110178900D01*
X183289714Y-110178900D02*
X183361142Y-110107471D01*
X183361142Y-110107471D02*
X183361142Y-110250328D01*
X183361142Y-109678900D02*
X183289714Y-108821757D01*
X183289714Y-108821757D02*
X183361142Y-108750328D01*
X183361142Y-108750328D02*
X183432571Y-108821757D01*
X183432571Y-108821757D02*
X183361142Y-109678900D01*
X183361142Y-109678900D02*
X183361142Y-108750328D01*
X184075428Y-109250328D02*
X184075428Y-110250328D01*
X184075428Y-109393185D02*
X184146857Y-109321757D01*
X184146857Y-109321757D02*
X184289714Y-109250328D01*
X184289714Y-109250328D02*
X184504000Y-109250328D01*
X184504000Y-109250328D02*
X184646857Y-109321757D01*
X184646857Y-109321757D02*
X184718286Y-109464614D01*
X184718286Y-109464614D02*
X184718286Y-110250328D01*
X186075429Y-110250328D02*
X186075429Y-109464614D01*
X186075429Y-109464614D02*
X186004000Y-109321757D01*
X186004000Y-109321757D02*
X185861143Y-109250328D01*
X185861143Y-109250328D02*
X185575429Y-109250328D01*
X185575429Y-109250328D02*
X185432571Y-109321757D01*
X186075429Y-110178900D02*
X185932571Y-110250328D01*
X185932571Y-110250328D02*
X185575429Y-110250328D01*
X185575429Y-110250328D02*
X185432571Y-110178900D01*
X185432571Y-110178900D02*
X185361143Y-110036042D01*
X185361143Y-110036042D02*
X185361143Y-109893185D01*
X185361143Y-109893185D02*
X185432571Y-109750328D01*
X185432571Y-109750328D02*
X185575429Y-109678900D01*
X185575429Y-109678900D02*
X185932571Y-109678900D01*
X185932571Y-109678900D02*
X186075429Y-109607471D01*
X186789714Y-109250328D02*
X186789714Y-110250328D01*
X186789714Y-109393185D02*
X186861143Y-109321757D01*
X186861143Y-109321757D02*
X187004000Y-109250328D01*
X187004000Y-109250328D02*
X187218286Y-109250328D01*
X187218286Y-109250328D02*
X187361143Y-109321757D01*
X187361143Y-109321757D02*
X187432572Y-109464614D01*
X187432572Y-109464614D02*
X187432572Y-110250328D01*
X188361143Y-110250328D02*
X188218286Y-110178900D01*
X188218286Y-110178900D02*
X188146857Y-110107471D01*
X188146857Y-110107471D02*
X188075429Y-109964614D01*
X188075429Y-109964614D02*
X188075429Y-109536042D01*
X188075429Y-109536042D02*
X188146857Y-109393185D01*
X188146857Y-109393185D02*
X188218286Y-109321757D01*
X188218286Y-109321757D02*
X188361143Y-109250328D01*
X188361143Y-109250328D02*
X188575429Y-109250328D01*
X188575429Y-109250328D02*
X188718286Y-109321757D01*
X188718286Y-109321757D02*
X188789715Y-109393185D01*
X188789715Y-109393185D02*
X188861143Y-109536042D01*
X188861143Y-109536042D02*
X188861143Y-109964614D01*
X188861143Y-109964614D02*
X188789715Y-110107471D01*
X188789715Y-110107471D02*
X188718286Y-110178900D01*
X188718286Y-110178900D02*
X188575429Y-110250328D01*
X188575429Y-110250328D02*
X188361143Y-110250328D01*
D11*
X161504318Y-122100713D02*
X161504318Y-121314522D01*
X161504318Y-121314522D02*
X161988127Y-121737856D01*
X161988127Y-121737856D02*
X161988127Y-121556427D01*
X161988127Y-121556427D02*
X162048603Y-121435475D01*
X162048603Y-121435475D02*
X162109080Y-121374999D01*
X162109080Y-121374999D02*
X162230032Y-121314522D01*
X162230032Y-121314522D02*
X162532413Y-121314522D01*
X162532413Y-121314522D02*
X162653365Y-121374999D01*
X162653365Y-121374999D02*
X162713842Y-121435475D01*
X162713842Y-121435475D02*
X162774318Y-121556427D01*
X162774318Y-121556427D02*
X162774318Y-121919284D01*
X162774318Y-121919284D02*
X162713842Y-122040237D01*
X162713842Y-122040237D02*
X162653365Y-122100713D01*
X162774318Y-120770237D02*
X161504318Y-120770237D01*
X161504318Y-120770237D02*
X161504318Y-120467856D01*
X161504318Y-120467856D02*
X161564794Y-120286427D01*
X161564794Y-120286427D02*
X161685746Y-120165475D01*
X161685746Y-120165475D02*
X161806699Y-120104998D01*
X161806699Y-120104998D02*
X162048603Y-120044522D01*
X162048603Y-120044522D02*
X162230032Y-120044522D01*
X162230032Y-120044522D02*
X162471937Y-120104998D01*
X162471937Y-120104998D02*
X162592889Y-120165475D01*
X162592889Y-120165475D02*
X162713842Y-120286427D01*
X162713842Y-120286427D02*
X162774318Y-120467856D01*
X162774318Y-120467856D02*
X162774318Y-120770237D01*
X162774318Y-119500237D02*
X161504318Y-119500237D01*
X162109080Y-119500237D02*
X162109080Y-118774522D01*
X162774318Y-118774522D02*
X161504318Y-118774522D01*
X162411461Y-118230237D02*
X162411461Y-117625475D01*
X162774318Y-118351189D02*
X161504318Y-117927856D01*
X161504318Y-117927856D02*
X162774318Y-117504522D01*
X162774318Y-116476428D02*
X162774318Y-117081190D01*
X162774318Y-117081190D02*
X161504318Y-117081190D01*
X162774318Y-115448333D02*
X162774318Y-116053095D01*
X162774318Y-116053095D02*
X161504318Y-116053095D01*
X162774318Y-114359761D02*
X162774318Y-115085476D01*
X162774318Y-114722619D02*
X161504318Y-114722619D01*
X161504318Y-114722619D02*
X161685746Y-114843571D01*
X161685746Y-114843571D02*
X161806699Y-114964523D01*
X161806699Y-114964523D02*
X161867175Y-115085476D01*
D12*
X166354819Y-105623809D02*
X165878628Y-105957142D01*
X166354819Y-106195237D02*
X165354819Y-106195237D01*
X165354819Y-106195237D02*
X165354819Y-105814285D01*
X165354819Y-105814285D02*
X165402438Y-105719047D01*
X165402438Y-105719047D02*
X165450057Y-105671428D01*
X165450057Y-105671428D02*
X165545295Y-105623809D01*
X165545295Y-105623809D02*
X165688152Y-105623809D01*
X165688152Y-105623809D02*
X165783390Y-105671428D01*
X165783390Y-105671428D02*
X165831009Y-105719047D01*
X165831009Y-105719047D02*
X165878628Y-105814285D01*
X165878628Y-105814285D02*
X165878628Y-106195237D01*
X166354819Y-104719047D02*
X166354819Y-105195237D01*
X166354819Y-105195237D02*
X165354819Y-105195237D01*
X165831009Y-104385713D02*
X165831009Y-104052380D01*
X166354819Y-103909523D02*
X166354819Y-104385713D01*
X166354819Y-104385713D02*
X165354819Y-104385713D01*
X165354819Y-104385713D02*
X165354819Y-103909523D01*
X166354819Y-103480951D02*
X165354819Y-103480951D01*
X165354819Y-103480951D02*
X165354819Y-103242856D01*
X165354819Y-103242856D02*
X165402438Y-103099999D01*
X165402438Y-103099999D02*
X165497676Y-103004761D01*
X165497676Y-103004761D02*
X165592914Y-102957142D01*
X165592914Y-102957142D02*
X165783390Y-102909523D01*
X165783390Y-102909523D02*
X165926247Y-102909523D01*
X165926247Y-102909523D02*
X166116723Y-102957142D01*
X166116723Y-102957142D02*
X166211961Y-103004761D01*
X166211961Y-103004761D02*
X166307200Y-103099999D01*
X166307200Y-103099999D02*
X166354819Y-103242856D01*
X166354819Y-103242856D02*
X166354819Y-103480951D01*
X165354819Y-102004761D02*
X165354819Y-102480951D01*
X165354819Y-102480951D02*
X165831009Y-102528570D01*
X165831009Y-102528570D02*
X165783390Y-102480951D01*
X165783390Y-102480951D02*
X165735771Y-102385713D01*
X165735771Y-102385713D02*
X165735771Y-102147618D01*
X165735771Y-102147618D02*
X165783390Y-102052380D01*
X165783390Y-102052380D02*
X165831009Y-102004761D01*
X165831009Y-102004761D02*
X165926247Y-101957142D01*
X165926247Y-101957142D02*
X166164342Y-101957142D01*
X166164342Y-101957142D02*
X166259580Y-102004761D01*
X166259580Y-102004761D02*
X166307200Y-102052380D01*
X166307200Y-102052380D02*
X166354819Y-102147618D01*
X166354819Y-102147618D02*
X166354819Y-102385713D01*
X166354819Y-102385713D02*
X166307200Y-102480951D01*
X166307200Y-102480951D02*
X166259580Y-102528570D01*
D11*
X204671858Y-122100713D02*
X204671858Y-121314522D01*
X204671858Y-121314522D02*
X205155667Y-121737856D01*
X205155667Y-121737856D02*
X205155667Y-121556427D01*
X205155667Y-121556427D02*
X205216143Y-121435475D01*
X205216143Y-121435475D02*
X205276620Y-121374999D01*
X205276620Y-121374999D02*
X205397572Y-121314522D01*
X205397572Y-121314522D02*
X205699953Y-121314522D01*
X205699953Y-121314522D02*
X205820905Y-121374999D01*
X205820905Y-121374999D02*
X205881382Y-121435475D01*
X205881382Y-121435475D02*
X205941858Y-121556427D01*
X205941858Y-121556427D02*
X205941858Y-121919284D01*
X205941858Y-121919284D02*
X205881382Y-122040237D01*
X205881382Y-122040237D02*
X205820905Y-122100713D01*
X205941858Y-120770237D02*
X204671858Y-120770237D01*
X204671858Y-120770237D02*
X204671858Y-120467856D01*
X204671858Y-120467856D02*
X204732334Y-120286427D01*
X204732334Y-120286427D02*
X204853286Y-120165475D01*
X204853286Y-120165475D02*
X204974239Y-120104998D01*
X204974239Y-120104998D02*
X205216143Y-120044522D01*
X205216143Y-120044522D02*
X205397572Y-120044522D01*
X205397572Y-120044522D02*
X205639477Y-120104998D01*
X205639477Y-120104998D02*
X205760429Y-120165475D01*
X205760429Y-120165475D02*
X205881382Y-120286427D01*
X205881382Y-120286427D02*
X205941858Y-120467856D01*
X205941858Y-120467856D02*
X205941858Y-120770237D01*
X205941858Y-119500237D02*
X204671858Y-119500237D01*
X205276620Y-119500237D02*
X205276620Y-118774522D01*
X205941858Y-118774522D02*
X204671858Y-118774522D01*
X205579001Y-118230237D02*
X205579001Y-117625475D01*
X205941858Y-118351189D02*
X204671858Y-117927856D01*
X204671858Y-117927856D02*
X205941858Y-117504522D01*
X205941858Y-116476428D02*
X205941858Y-117081190D01*
X205941858Y-117081190D02*
X204671858Y-117081190D01*
X205941858Y-115448333D02*
X205941858Y-116053095D01*
X205941858Y-116053095D02*
X204671858Y-116053095D01*
X204792810Y-115085476D02*
X204732334Y-115025000D01*
X204732334Y-115025000D02*
X204671858Y-114904047D01*
X204671858Y-114904047D02*
X204671858Y-114601666D01*
X204671858Y-114601666D02*
X204732334Y-114480714D01*
X204732334Y-114480714D02*
X204792810Y-114420238D01*
X204792810Y-114420238D02*
X204913762Y-114359761D01*
X204913762Y-114359761D02*
X205034715Y-114359761D01*
X205034715Y-114359761D02*
X205216143Y-114420238D01*
X205216143Y-114420238D02*
X205941858Y-115145952D01*
X205941858Y-115145952D02*
X205941858Y-114359761D01*
D12*
X172054819Y-100223809D02*
X171578628Y-100557142D01*
X172054819Y-100795237D02*
X171054819Y-100795237D01*
X171054819Y-100795237D02*
X171054819Y-100414285D01*
X171054819Y-100414285D02*
X171102438Y-100319047D01*
X171102438Y-100319047D02*
X171150057Y-100271428D01*
X171150057Y-100271428D02*
X171245295Y-100223809D01*
X171245295Y-100223809D02*
X171388152Y-100223809D01*
X171388152Y-100223809D02*
X171483390Y-100271428D01*
X171483390Y-100271428D02*
X171531009Y-100319047D01*
X171531009Y-100319047D02*
X171578628Y-100414285D01*
X171578628Y-100414285D02*
X171578628Y-100795237D01*
X172054819Y-99319047D02*
X172054819Y-99795237D01*
X172054819Y-99795237D02*
X171054819Y-99795237D01*
X171531009Y-98985713D02*
X171531009Y-98652380D01*
X172054819Y-98509523D02*
X172054819Y-98985713D01*
X172054819Y-98985713D02*
X171054819Y-98985713D01*
X171054819Y-98985713D02*
X171054819Y-98509523D01*
X172054819Y-98080951D02*
X171054819Y-98080951D01*
X171054819Y-98080951D02*
X171054819Y-97842856D01*
X171054819Y-97842856D02*
X171102438Y-97699999D01*
X171102438Y-97699999D02*
X171197676Y-97604761D01*
X171197676Y-97604761D02*
X171292914Y-97557142D01*
X171292914Y-97557142D02*
X171483390Y-97509523D01*
X171483390Y-97509523D02*
X171626247Y-97509523D01*
X171626247Y-97509523D02*
X171816723Y-97557142D01*
X171816723Y-97557142D02*
X171911961Y-97604761D01*
X171911961Y-97604761D02*
X172007200Y-97699999D01*
X172007200Y-97699999D02*
X172054819Y-97842856D01*
X172054819Y-97842856D02*
X172054819Y-98080951D01*
X172054819Y-96557142D02*
X172054819Y-97128570D01*
X172054819Y-96842856D02*
X171054819Y-96842856D01*
X171054819Y-96842856D02*
X171197676Y-96938094D01*
X171197676Y-96938094D02*
X171292914Y-97033332D01*
X171292914Y-97033332D02*
X171340533Y-97128570D01*
X171176190Y-103754819D02*
X170842857Y-103278628D01*
X170604762Y-103754819D02*
X170604762Y-102754819D01*
X170604762Y-102754819D02*
X170985714Y-102754819D01*
X170985714Y-102754819D02*
X171080952Y-102802438D01*
X171080952Y-102802438D02*
X171128571Y-102850057D01*
X171128571Y-102850057D02*
X171176190Y-102945295D01*
X171176190Y-102945295D02*
X171176190Y-103088152D01*
X171176190Y-103088152D02*
X171128571Y-103183390D01*
X171128571Y-103183390D02*
X171080952Y-103231009D01*
X171080952Y-103231009D02*
X170985714Y-103278628D01*
X170985714Y-103278628D02*
X170604762Y-103278628D01*
X172080952Y-103754819D02*
X171604762Y-103754819D01*
X171604762Y-103754819D02*
X171604762Y-102754819D01*
X172414286Y-103231009D02*
X172747619Y-103231009D01*
X172890476Y-103754819D02*
X172414286Y-103754819D01*
X172414286Y-103754819D02*
X172414286Y-102754819D01*
X172414286Y-102754819D02*
X172890476Y-102754819D01*
X173319048Y-103754819D02*
X173319048Y-102754819D01*
X173319048Y-102754819D02*
X173557143Y-102754819D01*
X173557143Y-102754819D02*
X173700000Y-102802438D01*
X173700000Y-102802438D02*
X173795238Y-102897676D01*
X173795238Y-102897676D02*
X173842857Y-102992914D01*
X173842857Y-102992914D02*
X173890476Y-103183390D01*
X173890476Y-103183390D02*
X173890476Y-103326247D01*
X173890476Y-103326247D02*
X173842857Y-103516723D01*
X173842857Y-103516723D02*
X173795238Y-103611961D01*
X173795238Y-103611961D02*
X173700000Y-103707200D01*
X173700000Y-103707200D02*
X173557143Y-103754819D01*
X173557143Y-103754819D02*
X173319048Y-103754819D01*
X174223810Y-102754819D02*
X174842857Y-102754819D01*
X174842857Y-102754819D02*
X174509524Y-103135771D01*
X174509524Y-103135771D02*
X174652381Y-103135771D01*
X174652381Y-103135771D02*
X174747619Y-103183390D01*
X174747619Y-103183390D02*
X174795238Y-103231009D01*
X174795238Y-103231009D02*
X174842857Y-103326247D01*
X174842857Y-103326247D02*
X174842857Y-103564342D01*
X174842857Y-103564342D02*
X174795238Y-103659580D01*
X174795238Y-103659580D02*
X174747619Y-103707200D01*
X174747619Y-103707200D02*
X174652381Y-103754819D01*
X174652381Y-103754819D02*
X174366667Y-103754819D01*
X174366667Y-103754819D02*
X174271429Y-103707200D01*
X174271429Y-103707200D02*
X174223810Y-103659580D01*
X166076190Y-101254819D02*
X165742857Y-100778628D01*
X165504762Y-101254819D02*
X165504762Y-100254819D01*
X165504762Y-100254819D02*
X165885714Y-100254819D01*
X165885714Y-100254819D02*
X165980952Y-100302438D01*
X165980952Y-100302438D02*
X166028571Y-100350057D01*
X166028571Y-100350057D02*
X166076190Y-100445295D01*
X166076190Y-100445295D02*
X166076190Y-100588152D01*
X166076190Y-100588152D02*
X166028571Y-100683390D01*
X166028571Y-100683390D02*
X165980952Y-100731009D01*
X165980952Y-100731009D02*
X165885714Y-100778628D01*
X165885714Y-100778628D02*
X165504762Y-100778628D01*
X166980952Y-101254819D02*
X166504762Y-101254819D01*
X166504762Y-101254819D02*
X166504762Y-100254819D01*
X167314286Y-100731009D02*
X167647619Y-100731009D01*
X167790476Y-101254819D02*
X167314286Y-101254819D01*
X167314286Y-101254819D02*
X167314286Y-100254819D01*
X167314286Y-100254819D02*
X167790476Y-100254819D01*
X168219048Y-101254819D02*
X168219048Y-100254819D01*
X168219048Y-100254819D02*
X168457143Y-100254819D01*
X168457143Y-100254819D02*
X168600000Y-100302438D01*
X168600000Y-100302438D02*
X168695238Y-100397676D01*
X168695238Y-100397676D02*
X168742857Y-100492914D01*
X168742857Y-100492914D02*
X168790476Y-100683390D01*
X168790476Y-100683390D02*
X168790476Y-100826247D01*
X168790476Y-100826247D02*
X168742857Y-101016723D01*
X168742857Y-101016723D02*
X168695238Y-101111961D01*
X168695238Y-101111961D02*
X168600000Y-101207200D01*
X168600000Y-101207200D02*
X168457143Y-101254819D01*
X168457143Y-101254819D02*
X168219048Y-101254819D01*
X169171429Y-100350057D02*
X169219048Y-100302438D01*
X169219048Y-100302438D02*
X169314286Y-100254819D01*
X169314286Y-100254819D02*
X169552381Y-100254819D01*
X169552381Y-100254819D02*
X169647619Y-100302438D01*
X169647619Y-100302438D02*
X169695238Y-100350057D01*
X169695238Y-100350057D02*
X169742857Y-100445295D01*
X169742857Y-100445295D02*
X169742857Y-100540533D01*
X169742857Y-100540533D02*
X169695238Y-100683390D01*
X169695238Y-100683390D02*
X169123810Y-101254819D01*
X169123810Y-101254819D02*
X169742857Y-101254819D01*
D11*
X180203095Y-81153842D02*
X180384524Y-81214318D01*
X180384524Y-81214318D02*
X180686905Y-81214318D01*
X180686905Y-81214318D02*
X180807857Y-81153842D01*
X180807857Y-81153842D02*
X180868333Y-81093365D01*
X180868333Y-81093365D02*
X180928810Y-80972413D01*
X180928810Y-80972413D02*
X180928810Y-80851461D01*
X180928810Y-80851461D02*
X180868333Y-80730508D01*
X180868333Y-80730508D02*
X180807857Y-80670032D01*
X180807857Y-80670032D02*
X180686905Y-80609556D01*
X180686905Y-80609556D02*
X180445000Y-80549080D01*
X180445000Y-80549080D02*
X180324048Y-80488603D01*
X180324048Y-80488603D02*
X180263571Y-80428127D01*
X180263571Y-80428127D02*
X180203095Y-80307175D01*
X180203095Y-80307175D02*
X180203095Y-80186222D01*
X180203095Y-80186222D02*
X180263571Y-80065270D01*
X180263571Y-80065270D02*
X180324048Y-80004794D01*
X180324048Y-80004794D02*
X180445000Y-79944318D01*
X180445000Y-79944318D02*
X180747381Y-79944318D01*
X180747381Y-79944318D02*
X180928810Y-80004794D01*
X181352143Y-80367651D02*
X181594048Y-81214318D01*
X181594048Y-81214318D02*
X181835953Y-80609556D01*
X181835953Y-80609556D02*
X182077857Y-81214318D01*
X182077857Y-81214318D02*
X182319762Y-80367651D01*
X182803571Y-81214318D02*
X182803571Y-80367651D01*
X182803571Y-79944318D02*
X182743095Y-80004794D01*
X182743095Y-80004794D02*
X182803571Y-80065270D01*
X182803571Y-80065270D02*
X182864048Y-80004794D01*
X182864048Y-80004794D02*
X182803571Y-79944318D01*
X182803571Y-79944318D02*
X182803571Y-80065270D01*
X183226905Y-80367651D02*
X183710714Y-80367651D01*
X183408333Y-79944318D02*
X183408333Y-81032889D01*
X183408333Y-81032889D02*
X183468810Y-81153842D01*
X183468810Y-81153842D02*
X183589762Y-81214318D01*
X183589762Y-81214318D02*
X183710714Y-81214318D01*
X184678333Y-81153842D02*
X184557381Y-81214318D01*
X184557381Y-81214318D02*
X184315476Y-81214318D01*
X184315476Y-81214318D02*
X184194524Y-81153842D01*
X184194524Y-81153842D02*
X184134047Y-81093365D01*
X184134047Y-81093365D02*
X184073571Y-80972413D01*
X184073571Y-80972413D02*
X184073571Y-80609556D01*
X184073571Y-80609556D02*
X184134047Y-80488603D01*
X184134047Y-80488603D02*
X184194524Y-80428127D01*
X184194524Y-80428127D02*
X184315476Y-80367651D01*
X184315476Y-80367651D02*
X184557381Y-80367651D01*
X184557381Y-80367651D02*
X184678333Y-80428127D01*
X185222618Y-81214318D02*
X185222618Y-79944318D01*
X185766904Y-81214318D02*
X185766904Y-80549080D01*
X185766904Y-80549080D02*
X185706428Y-80428127D01*
X185706428Y-80428127D02*
X185585476Y-80367651D01*
X185585476Y-80367651D02*
X185404047Y-80367651D01*
X185404047Y-80367651D02*
X185283095Y-80428127D01*
X185283095Y-80428127D02*
X185222618Y-80488603D01*
X187036905Y-81214318D02*
X186311190Y-81214318D01*
X186674047Y-81214318D02*
X186674047Y-79944318D01*
X186674047Y-79944318D02*
X186553095Y-80125746D01*
X186553095Y-80125746D02*
X186432143Y-80246699D01*
X186432143Y-80246699D02*
X186311190Y-80307175D01*
X182826667Y-114904318D02*
X182826667Y-115811461D01*
X182826667Y-115811461D02*
X182766190Y-115992889D01*
X182766190Y-115992889D02*
X182645238Y-116113842D01*
X182645238Y-116113842D02*
X182463809Y-116174318D01*
X182463809Y-116174318D02*
X182342857Y-116174318D01*
X183310476Y-114904318D02*
X184096667Y-114904318D01*
X184096667Y-114904318D02*
X183673333Y-115388127D01*
X183673333Y-115388127D02*
X183854762Y-115388127D01*
X183854762Y-115388127D02*
X183975714Y-115448603D01*
X183975714Y-115448603D02*
X184036190Y-115509080D01*
X184036190Y-115509080D02*
X184096667Y-115630032D01*
X184096667Y-115630032D02*
X184096667Y-115932413D01*
X184096667Y-115932413D02*
X184036190Y-116053365D01*
X184036190Y-116053365D02*
X183975714Y-116113842D01*
X183975714Y-116113842D02*
X183854762Y-116174318D01*
X183854762Y-116174318D02*
X183491905Y-116174318D01*
X183491905Y-116174318D02*
X183370952Y-116113842D01*
X183370952Y-116113842D02*
X183310476Y-116053365D01*
D12*
X200754819Y-106033333D02*
X201469104Y-106033333D01*
X201469104Y-106033333D02*
X201611961Y-106080952D01*
X201611961Y-106080952D02*
X201707200Y-106176190D01*
X201707200Y-106176190D02*
X201754819Y-106319047D01*
X201754819Y-106319047D02*
X201754819Y-106414285D01*
X200850057Y-105604761D02*
X200802438Y-105557142D01*
X200802438Y-105557142D02*
X200754819Y-105461904D01*
X200754819Y-105461904D02*
X200754819Y-105223809D01*
X200754819Y-105223809D02*
X200802438Y-105128571D01*
X200802438Y-105128571D02*
X200850057Y-105080952D01*
X200850057Y-105080952D02*
X200945295Y-105033333D01*
X200945295Y-105033333D02*
X201040533Y-105033333D01*
X201040533Y-105033333D02*
X201183390Y-105080952D01*
X201183390Y-105080952D02*
X201754819Y-105652380D01*
X201754819Y-105652380D02*
X201754819Y-105033333D01*
X168999953Y-79879737D02*
X168999953Y-78879737D01*
X168999953Y-79355927D02*
X169571381Y-79355927D01*
X169571381Y-79879737D02*
X169571381Y-78879737D01*
X169999953Y-79594022D02*
X170476143Y-79594022D01*
X169904715Y-79879737D02*
X170238048Y-78879737D01*
X170238048Y-78879737D02*
X170571381Y-79879737D01*
X171380905Y-79879737D02*
X170904715Y-79879737D01*
X170904715Y-79879737D02*
X170904715Y-78879737D01*
X172190429Y-79879737D02*
X171714239Y-79879737D01*
X171714239Y-79879737D02*
X171714239Y-78879737D01*
X172476144Y-78974975D02*
X172523763Y-78927356D01*
X172523763Y-78927356D02*
X172619001Y-78879737D01*
X172619001Y-78879737D02*
X172857096Y-78879737D01*
X172857096Y-78879737D02*
X172952334Y-78927356D01*
X172952334Y-78927356D02*
X172999953Y-78974975D01*
X172999953Y-78974975D02*
X173047572Y-79070213D01*
X173047572Y-79070213D02*
X173047572Y-79165451D01*
X173047572Y-79165451D02*
X172999953Y-79308308D01*
X172999953Y-79308308D02*
X172428525Y-79879737D01*
X172428525Y-79879737D02*
X173047572Y-79879737D01*
X168676190Y-106954819D02*
X168342857Y-106478628D01*
X168104762Y-106954819D02*
X168104762Y-105954819D01*
X168104762Y-105954819D02*
X168485714Y-105954819D01*
X168485714Y-105954819D02*
X168580952Y-106002438D01*
X168580952Y-106002438D02*
X168628571Y-106050057D01*
X168628571Y-106050057D02*
X168676190Y-106145295D01*
X168676190Y-106145295D02*
X168676190Y-106288152D01*
X168676190Y-106288152D02*
X168628571Y-106383390D01*
X168628571Y-106383390D02*
X168580952Y-106431009D01*
X168580952Y-106431009D02*
X168485714Y-106478628D01*
X168485714Y-106478628D02*
X168104762Y-106478628D01*
X169580952Y-106954819D02*
X169104762Y-106954819D01*
X169104762Y-106954819D02*
X169104762Y-105954819D01*
X169914286Y-106431009D02*
X170247619Y-106431009D01*
X170390476Y-106954819D02*
X169914286Y-106954819D01*
X169914286Y-106954819D02*
X169914286Y-105954819D01*
X169914286Y-105954819D02*
X170390476Y-105954819D01*
X170819048Y-106954819D02*
X170819048Y-105954819D01*
X170819048Y-105954819D02*
X171057143Y-105954819D01*
X171057143Y-105954819D02*
X171200000Y-106002438D01*
X171200000Y-106002438D02*
X171295238Y-106097676D01*
X171295238Y-106097676D02*
X171342857Y-106192914D01*
X171342857Y-106192914D02*
X171390476Y-106383390D01*
X171390476Y-106383390D02*
X171390476Y-106526247D01*
X171390476Y-106526247D02*
X171342857Y-106716723D01*
X171342857Y-106716723D02*
X171295238Y-106811961D01*
X171295238Y-106811961D02*
X171200000Y-106907200D01*
X171200000Y-106907200D02*
X171057143Y-106954819D01*
X171057143Y-106954819D02*
X170819048Y-106954819D01*
X172247619Y-106288152D02*
X172247619Y-106954819D01*
X172009524Y-105907200D02*
X171771429Y-106621485D01*
X171771429Y-106621485D02*
X172390476Y-106621485D01*
X194000000Y-79904819D02*
X194000000Y-78904819D01*
X194000000Y-79381009D02*
X194571428Y-79381009D01*
X194571428Y-79904819D02*
X194571428Y-78904819D01*
X195000000Y-79619104D02*
X195476190Y-79619104D01*
X194904762Y-79904819D02*
X195238095Y-78904819D01*
X195238095Y-78904819D02*
X195571428Y-79904819D01*
X196380952Y-79904819D02*
X195904762Y-79904819D01*
X195904762Y-79904819D02*
X195904762Y-78904819D01*
X197190476Y-79904819D02*
X196714286Y-79904819D01*
X196714286Y-79904819D02*
X196714286Y-78904819D01*
X198047619Y-79904819D02*
X197476191Y-79904819D01*
X197761905Y-79904819D02*
X197761905Y-78904819D01*
X197761905Y-78904819D02*
X197666667Y-79047676D01*
X197666667Y-79047676D02*
X197571429Y-79142914D01*
X197571429Y-79142914D02*
X197476191Y-79190533D01*
D13*
%TO.C,SW1*%
X205850000Y-95075000D02*
X205850000Y-99075000D01*
X205620000Y-95075000D02*
X205850000Y-95075000D01*
X202950000Y-95075000D02*
X203180000Y-95075000D01*
X205850000Y-99075000D02*
X205620000Y-99075000D01*
X202950000Y-99075000D02*
X202950000Y-95075000D01*
X202950000Y-99075000D02*
X203180000Y-99075000D01*
D14*
%TO.C,3DHALL1*%
X166100000Y-117050000D02*
X166100000Y-119350000D01*
X166100000Y-119350000D02*
X163100000Y-119350000D01*
X163100000Y-119350000D02*
X163100000Y-117050000D01*
X163100000Y-117050000D02*
X166100000Y-117050000D01*
X166150000Y-115300000D02*
X166150000Y-116700000D01*
D15*
%TO.C,OpticalSensor1*%
G36*
X190000000Y-100620001D02*
G01*
X189750000Y-100420001D01*
X190000000Y-100220001D01*
X190000000Y-100620001D01*
G37*
D16*
%TO.C,RLED5*%
X166665000Y-103872936D02*
X166665000Y-104327064D01*
X168135000Y-103872936D02*
X168135000Y-104327064D01*
%TO.C,J1*%
X163720000Y-85820000D02*
X165100000Y-85820000D01*
X163720000Y-87200000D02*
X163720000Y-85820000D01*
X163720000Y-88470000D02*
X163720000Y-98740000D01*
X163720000Y-88470000D02*
X166480000Y-88470000D01*
X163720000Y-98740000D02*
X166480000Y-98740000D01*
X166480000Y-88470000D02*
X166480000Y-98740000D01*
%TO.C,C4*%
X195665000Y-86461252D02*
X195665000Y-85938748D01*
X197135000Y-86461252D02*
X197135000Y-85938748D01*
%TO.C,C2*%
X200465000Y-98188748D02*
X200465000Y-98711252D01*
X201935000Y-98188748D02*
X201935000Y-98711252D01*
D14*
%TO.C,3DHALL2*%
X200900000Y-117050000D02*
X203900000Y-117050000D01*
X200900000Y-119350000D02*
X200900000Y-117050000D01*
X203900000Y-117050000D02*
X203900000Y-119350000D01*
X203900000Y-119350000D02*
X200900000Y-119350000D01*
X203950000Y-115300000D02*
X203950000Y-116700000D01*
D16*
%TO.C,C6*%
X202465000Y-91911252D02*
X202465000Y-91388748D01*
X203935000Y-91911252D02*
X203935000Y-91388748D01*
%TO.C,RLED1*%
X172265000Y-99772936D02*
X172265000Y-100227064D01*
X173735000Y-99772936D02*
X173735000Y-100227064D01*
%TO.C,RLED3*%
X169972936Y-102165000D02*
X170427064Y-102165000D01*
X169972936Y-103635000D02*
X170427064Y-103635000D01*
%TO.C,RLED2*%
X170427064Y-100065000D02*
X169972936Y-100065000D01*
X170427064Y-101535000D02*
X169972936Y-101535000D01*
D14*
%TO.C,Switch1*%
X180270000Y-80245000D02*
X180270000Y-79445000D01*
D17*
X185826000Y-82903000D02*
X185826000Y-82903000D01*
X185890000Y-82903000D02*
X185890000Y-82903000D01*
D14*
X186368000Y-78545000D02*
X180872000Y-78545000D01*
X186970000Y-80245000D02*
X186970000Y-79445000D01*
D17*
X185826000Y-82903000D02*
G75*
G02*
X185890000Y-82903000I32000J0D01*
G01*
X185890000Y-82903000D02*
G75*
G02*
X185826000Y-82903000I-32000J0D01*
G01*
D16*
%TO.C,C7*%
X197965000Y-91861252D02*
X197965000Y-91338748D01*
X199435000Y-91861252D02*
X199435000Y-91338748D01*
D14*
%TO.C,J3*%
X179625000Y-113200000D02*
X179625000Y-113500000D01*
X179625000Y-113500000D02*
X186875000Y-113500000D01*
D18*
X182625000Y-107100000D02*
X182625000Y-107100000D01*
X182625000Y-107200000D02*
X182625000Y-107200000D01*
D14*
X186875000Y-113500000D02*
X186875000Y-113200000D01*
D18*
X182625000Y-107100000D02*
G75*
G02*
X182625000Y-107200000I0J-50000D01*
G01*
X182625000Y-107200000D02*
G75*
G02*
X182625000Y-107100000I0J50000D01*
G01*
D16*
%TO.C,R1*%
X172227064Y-95765000D02*
X171772936Y-95765000D01*
X172227064Y-97235000D02*
X171772936Y-97235000D01*
%TO.C,C8*%
X194015000Y-95738748D02*
X194015000Y-96261252D01*
X195485000Y-95738748D02*
X195485000Y-96261252D01*
%TO.C,C3*%
X193465000Y-86511252D02*
X193465000Y-85988748D01*
X194935000Y-86511252D02*
X194935000Y-85988748D01*
%TO.C,C9*%
X199238748Y-93865000D02*
X199761252Y-93865000D01*
X199238748Y-95335000D02*
X199761252Y-95335000D01*
%TO.C,J2*%
X195915000Y-102590000D02*
X195915000Y-103640000D01*
X195915000Y-107760000D02*
X194925000Y-107760000D01*
X195915000Y-108810000D02*
X195915000Y-107760000D01*
X198415000Y-102590000D02*
X195915000Y-102590000D01*
X198415000Y-108810000D02*
X195915000Y-108810000D01*
X200385000Y-107640000D02*
X200385000Y-103760000D01*
%TO.C,HALL2*%
X169999953Y-80264918D02*
X171999953Y-80264918D01*
X169999953Y-82484918D02*
X171999953Y-82484918D01*
X169479953Y-80404918D02*
X169199953Y-80404918D01*
X169479953Y-80124918D01*
X169479953Y-80404918D01*
G36*
X169479953Y-80404918D02*
G01*
X169199953Y-80404918D01*
X169479953Y-80124918D01*
X169479953Y-80404918D01*
G37*
D14*
%TO.C,LDO1.9*%
X194050000Y-91725000D02*
X196950000Y-91725000D01*
X194050000Y-92275000D02*
X194050000Y-91725000D01*
X196950000Y-91725000D02*
X196950000Y-92275000D01*
X196950000Y-92275000D02*
X194050000Y-92275000D01*
X197000000Y-90125000D02*
X197000000Y-91375000D01*
D19*
%TO.C,U2*%
X174610000Y-78330000D02*
X174610000Y-80870000D01*
X174610000Y-80870000D02*
X174610000Y-111350000D01*
X174610000Y-111350000D02*
X192390000Y-111350000D01*
X192390000Y-78330000D02*
X174610000Y-78330000D01*
X192390000Y-80870000D02*
X192390000Y-78330000D01*
X192390000Y-111350000D02*
X192390000Y-80870000D01*
D16*
%TO.C,C1*%
X197965000Y-98188748D02*
X197965000Y-98711252D01*
X199435000Y-98188748D02*
X199435000Y-98711252D01*
%TO.C,RLED4*%
X170427064Y-104165000D02*
X169972936Y-104165000D01*
X170427064Y-105635000D02*
X169972936Y-105635000D01*
%TO.C,HALL1*%
X195000000Y-80290000D02*
X197000000Y-80290000D01*
X195000000Y-82510000D02*
X197000000Y-82510000D01*
X194480000Y-80430000D02*
X194200000Y-80430000D01*
X194480000Y-80150000D01*
X194480000Y-80430000D01*
G36*
X194480000Y-80430000D02*
G01*
X194200000Y-80430000D01*
X194480000Y-80150000D01*
X194480000Y-80430000D01*
G37*
%TO.C,C5*%
X200215000Y-91911252D02*
X200215000Y-91388748D01*
X201685000Y-91911252D02*
X201685000Y-91388748D01*
%TD*%
D20*
%TO.C,U2*%
X175880000Y-82140000D03*
X175880000Y-84680000D03*
X175880000Y-87220000D03*
X175880000Y-89760000D03*
X175880000Y-92300000D03*
X175880000Y-94840000D03*
X175880000Y-97380000D03*
X175880000Y-99920000D03*
X175880000Y-102460000D03*
X175880000Y-105000000D03*
X175880000Y-107540000D03*
X175880000Y-110080000D03*
X191120000Y-110080000D03*
X191120000Y-107540000D03*
X191120000Y-105000000D03*
X191120000Y-102460000D03*
X191120000Y-99920000D03*
X191120000Y-97380000D03*
X191120000Y-94840000D03*
X191120000Y-92300000D03*
X191120000Y-89760000D03*
X191120000Y-87220000D03*
X191120000Y-84680000D03*
X191120000Y-82140000D03*
X178420000Y-105000000D03*
X180960000Y-105000000D03*
X183500000Y-105000000D03*
%TD*%
%LPC*%
D21*
%TO.C,SW1*%
X204400000Y-95000000D03*
X204400000Y-99150000D03*
%TD*%
D22*
%TO.C,3DHALL1*%
X165575000Y-116000000D03*
X164925000Y-116000000D03*
X164275000Y-116000000D03*
X163625000Y-116000000D03*
X163625000Y-120400000D03*
X164275000Y-120400000D03*
X164925000Y-120400000D03*
X165575000Y-120400000D03*
%TD*%
D23*
%TO.C,OpticalSensor1*%
X188950000Y-100420001D03*
X188950000Y-98640001D03*
D24*
X188950000Y-96860001D03*
D23*
X188950000Y-95080001D03*
X188950000Y-93300001D03*
X188950000Y-91520001D03*
X188950000Y-89740002D03*
D24*
X188950000Y-87960002D03*
D23*
X178250000Y-87070001D03*
X178250000Y-88850001D03*
X178250000Y-90630001D03*
X178250000Y-92410001D03*
X178250000Y-94190001D03*
X178250000Y-95970001D03*
X178250000Y-97750000D03*
X178249999Y-99530001D03*
%TD*%
D25*
%TO.C,RLED5*%
X167400000Y-103187500D03*
X167400000Y-105012500D03*
%TD*%
D26*
%TO.C,J1*%
X165100000Y-87200000D03*
D27*
X165100000Y-89740000D03*
X165100000Y-92280000D03*
X165100000Y-94820000D03*
X165100000Y-97360000D03*
%TD*%
D28*
%TO.C,C4*%
X196400000Y-87150000D03*
X196400000Y-85250000D03*
%TD*%
D29*
%TO.C,C2*%
X201200000Y-97500000D03*
X201200000Y-99400000D03*
%TD*%
D22*
%TO.C,3DHALL2*%
X203375000Y-116000000D03*
X202725000Y-116000000D03*
X202075000Y-116000000D03*
X201425000Y-116000000D03*
X201425000Y-120400000D03*
X202075000Y-120400000D03*
X202725000Y-120400000D03*
X203375000Y-120400000D03*
%TD*%
D28*
%TO.C,C6*%
X203200000Y-92600000D03*
X203200000Y-90700000D03*
%TD*%
D30*
%TO.C,REF\u002A\u002A*%
X203400000Y-81300000D03*
%TD*%
D25*
%TO.C,RLED1*%
X173000000Y-99087500D03*
X173000000Y-100912500D03*
%TD*%
D31*
%TO.C,RLED3*%
X169287500Y-102900000D03*
X171112500Y-102900000D03*
%TD*%
D30*
%TO.C,REF\u002A\u002A*%
X195150000Y-113850000D03*
%TD*%
D32*
%TO.C,RLED2*%
X171112500Y-100800000D03*
X169287500Y-100800000D03*
%TD*%
D30*
%TO.C,REF\u002A\u002A*%
X171800000Y-113800000D03*
%TD*%
D33*
%TO.C,Switch1*%
X185120000Y-79845000D03*
X182120000Y-79845000D03*
D34*
X185870000Y-81595000D03*
X182870000Y-81595000D03*
X181370000Y-81595000D03*
D35*
X187270000Y-80945000D03*
X187270000Y-78745000D03*
X179970000Y-80945000D03*
X179970000Y-78745000D03*
%TD*%
D28*
%TO.C,C7*%
X198700000Y-92550000D03*
X198700000Y-90650000D03*
%TD*%
D30*
%TO.C,REF\u002A\u002A*%
X163600000Y-81300000D03*
%TD*%
D36*
%TO.C,J3*%
X182625000Y-108500000D03*
X183875000Y-108500000D03*
D37*
X180075000Y-111400000D03*
X186425000Y-111400000D03*
%TD*%
D32*
%TO.C,R1*%
X172912500Y-96500000D03*
X171087500Y-96500000D03*
%TD*%
D29*
%TO.C,C8*%
X194750000Y-95050000D03*
X194750000Y-96950000D03*
%TD*%
D28*
%TO.C,C3*%
X194200000Y-87200000D03*
X194200000Y-85300000D03*
%TD*%
D38*
%TO.C,C9*%
X198550000Y-94600000D03*
X200450000Y-94600000D03*
%TD*%
D39*
%TO.C,J2*%
X195700000Y-107200000D03*
X195700000Y-106200000D03*
X195700000Y-105200000D03*
X195700000Y-104200000D03*
D40*
X199575000Y-108500000D03*
X199575000Y-102900000D03*
%TD*%
D41*
%TO.C,HALL2*%
X169972453Y-80724918D03*
X169972453Y-81374918D03*
X169972453Y-82024918D03*
X172027453Y-82024918D03*
X172027453Y-81374918D03*
X172027453Y-80724918D03*
D42*
X170999953Y-81374918D03*
%TD*%
D43*
%TO.C,LDO1.9*%
X196450000Y-90750000D03*
X195500000Y-90750000D03*
X194550000Y-90750000D03*
X194550000Y-93250000D03*
X196450000Y-93250000D03*
%TD*%
D20*
%TO.C,U2*%
X175880000Y-82140000D03*
X175880000Y-84680000D03*
X175880000Y-87220000D03*
X175880000Y-89760000D03*
X175880000Y-92300000D03*
X175880000Y-94840000D03*
X175880000Y-97380000D03*
X175880000Y-99920000D03*
X175880000Y-102460000D03*
X175880000Y-105000000D03*
X175880000Y-107540000D03*
X175880000Y-110080000D03*
X191120000Y-110080000D03*
X191120000Y-107540000D03*
X191120000Y-105000000D03*
X191120000Y-102460000D03*
X191120000Y-99920000D03*
X191120000Y-97380000D03*
X191120000Y-94840000D03*
X191120000Y-92300000D03*
X191120000Y-89760000D03*
X191120000Y-87220000D03*
X191120000Y-84680000D03*
X191120000Y-82140000D03*
X178420000Y-105000000D03*
X180960000Y-105000000D03*
X183500000Y-105000000D03*
%TD*%
D29*
%TO.C,C1*%
X198700000Y-97500000D03*
X198700000Y-99400000D03*
%TD*%
D32*
%TO.C,RLED4*%
X171112500Y-104900000D03*
X169287500Y-104900000D03*
%TD*%
D41*
%TO.C,HALL1*%
X194972500Y-80750000D03*
X194972500Y-81400000D03*
X194972500Y-82050000D03*
X197027500Y-82050000D03*
X197027500Y-81400000D03*
X197027500Y-80750000D03*
D42*
X196000000Y-81400000D03*
%TD*%
D28*
%TO.C,C5*%
X200950000Y-92600000D03*
X200950000Y-90700000D03*
%TD*%
%LPD*%
M02*
